<svg width="96" height="16" viewBox="0 0 96 16" fill="none" xmlns="http://www.w3.org/2000/svg">
<path d="M36.8219 13.0455C36.115 13.0455 35.467 12.9223 34.8779 12.676C34.2996 12.4189 33.8015 12.0547 33.3838 11.5835C32.9661 11.1122 32.6394 10.5392 32.4038 9.86443C32.1789 9.18966 32.0664 8.42385 32.0664 7.56701C32.0664 6.71016 32.1789 5.94971 32.4038 5.28565C32.6394 4.61088 32.9661 4.04858 33.3838 3.59873C33.8015 3.13818 34.2996 2.79008 34.8779 2.55445C35.467 2.30811 36.115 2.18493 36.8219 2.18493C37.5288 2.18493 38.1714 2.30811 38.7498 2.55445C39.3389 2.79008 39.8423 3.13818 40.26 3.59873C40.6777 4.05929 40.999 4.62695 41.224 5.30172C41.4596 5.96577 41.5774 6.72087 41.5774 7.56701C41.5774 8.42385 41.4596 9.18966 41.224 9.86443C40.999 10.5392 40.6777 11.1122 40.26 11.5835C39.8423 12.0547 39.3389 12.4189 38.7498 12.676C38.1714 12.9223 37.5288 13.0455 36.8219 13.0455ZM36.8219 11.0051C37.5395 11.0051 38.1072 10.6999 38.5249 10.0893C38.9426 9.46814 39.1515 8.62735 39.1515 7.56701C39.1515 6.51737 38.9426 5.69801 38.5249 5.10893C38.1072 4.51984 37.5395 4.2253 36.8219 4.2253C36.1043 4.2253 35.5366 4.51984 35.1189 5.10893C34.7012 5.69801 34.4924 6.51737 34.4924 7.56701C34.4924 8.62735 34.7012 9.46814 35.1189 10.0893C35.5366 10.6999 36.1043 11.0051 36.8219 11.0051Z" fill="#131313"/>
<path d="M47.5313 13.0455C47.1779 13.0455 46.8191 12.9598 46.4549 12.7884C46.1015 12.6063 45.7694 12.3439 45.4588 12.0012H45.3946L45.2018 12.8527H43.3542V1.5905H45.7159V4.35383L45.6516 5.57484C45.9622 5.29636 46.2943 5.08215 46.6477 4.9322C47.0119 4.77154 47.3814 4.69121 47.7562 4.69121C48.2382 4.69121 48.672 4.78761 49.0576 4.9804C49.4432 5.17319 49.7698 5.44631 50.0376 5.79976C50.3161 6.1425 50.5249 6.56557 50.6642 7.06896C50.8141 7.56165 50.8891 8.11325 50.8891 8.72375C50.8891 9.40923 50.7927 10.0197 50.5999 10.5553C50.4178 11.0908 50.1661 11.546 49.8448 11.9209C49.5342 12.285 49.1754 12.5635 48.7684 12.7563C48.3721 12.9491 47.9598 13.0455 47.5313 13.0455ZM46.9851 11.1176C47.3921 11.1176 47.7402 10.9355 48.0294 10.5713C48.3186 10.1965 48.4631 9.59666 48.4631 8.77195C48.4631 7.33673 48.0026 6.61912 47.0815 6.61912C46.6102 6.61912 46.155 6.86011 45.7159 7.34208V10.6035C45.9301 10.7962 46.1443 10.9301 46.3585 11.0051C46.5727 11.0801 46.7816 11.1176 46.9851 11.1176Z" fill="#131313"/>
<path d="M54.2698 12.8527L51.5868 4.884H53.9646L54.9928 8.64342C55.0999 9.03971 55.2017 9.44672 55.2981 9.86443C55.4052 10.2714 55.5123 10.6838 55.6194 11.1015H55.6836C55.78 10.6838 55.8764 10.2714 55.9728 9.86443C56.0799 9.44672 56.187 9.03971 56.2941 8.64342L57.3384 4.884H59.6037L57.001 12.8527H54.2698Z" fill="#131313"/>
<path d="M60.8478 12.8527V4.884H63.2095V12.8527H60.8478ZM62.0206 3.71119C61.6243 3.71119 61.2977 3.59873 61.0406 3.37381C60.7836 3.13818 60.655 2.83828 60.655 2.47412C60.655 2.10996 60.7836 1.81542 61.0406 1.5905C61.2977 1.36557 61.6243 1.25311 62.0206 1.25311C62.4276 1.25311 62.7543 1.36557 63.0006 1.5905C63.2577 1.81542 63.3862 2.10996 63.3862 2.47412C63.3862 2.83828 63.2577 3.13818 63.0006 3.37381C62.7543 3.59873 62.4276 3.71119 62.0206 3.71119Z" fill="#131313"/>
<path d="M66.6535 13.0455C66.2465 13.0455 65.9038 12.9062 65.6253 12.6278C65.3575 12.3386 65.2236 11.9851 65.2236 11.5674C65.2236 11.139 65.3575 10.7855 65.6253 10.5071C65.9038 10.2179 66.2465 10.0733 66.6535 10.0733C67.0605 10.0733 67.3979 10.2179 67.6656 10.5071C67.9441 10.7855 68.0834 11.139 68.0834 11.5674C68.0834 11.9851 67.9441 12.3386 67.6656 12.6278C67.3979 12.9062 67.0605 13.0455 66.6535 13.0455Z" fill="#131313"/>
<path d="M72.2734 13.0455C71.8664 13.0455 71.5237 12.9812 71.2452 12.8527C70.9667 12.7242 70.7418 12.5474 70.5704 12.3225C70.4098 12.0869 70.292 11.8084 70.217 11.4871C70.142 11.1551 70.1045 10.7855 70.1045 10.3785V1.5905H72.4662V10.4749C72.4662 10.7213 72.5091 10.8926 72.5947 10.989C72.6911 11.0854 72.7875 11.1336 72.8839 11.1336C72.9375 11.1336 72.9803 11.1336 73.0124 11.1336C73.0553 11.1336 73.1088 11.1229 73.1731 11.1015L73.4623 12.8527C73.3338 12.9062 73.1678 12.9491 72.9643 12.9812C72.7715 13.0241 72.5412 13.0455 72.2734 13.0455Z" fill="#131313"/>
<path d="M74.7015 12.8527V4.884H77.0632V12.8527H74.7015ZM75.8743 3.71119C75.478 3.71119 75.1513 3.59873 74.8943 3.37381C74.6372 3.13818 74.5087 2.83828 74.5087 2.47412C74.5087 2.10996 74.6372 1.81542 74.8943 1.5905C75.1513 1.36557 75.478 1.25311 75.8743 1.25311C76.2813 1.25311 76.608 1.36557 76.8543 1.5905C77.1114 1.81542 77.2399 2.10996 77.2399 2.47412C77.2399 2.83828 77.1114 3.13818 76.8543 3.37381C76.608 3.59873 76.2813 3.71119 75.8743 3.71119Z" fill="#131313"/>
<path d="M79.1416 12.8527V4.884H81.0695L81.2302 5.89615H81.2944C81.6371 5.57484 82.012 5.29636 82.419 5.06073C82.826 4.81438 83.3027 4.69121 83.8489 4.69121C84.7164 4.69121 85.343 4.97504 85.7286 5.54271C86.1249 6.11037 86.323 6.89759 86.323 7.90439V12.8527H83.9614V8.20964C83.9614 7.63127 83.881 7.23498 83.7204 7.02077C83.5704 6.80655 83.3241 6.69945 82.9813 6.69945C82.6814 6.69945 82.4244 6.76907 82.2102 6.90831C81.996 7.03683 81.7603 7.22427 81.5033 7.47061V12.8527H79.1416Z" fill="#131313"/>
<path d="M88.3355 12.8527V1.5905H90.633V8.04898H90.6972L93.2196 4.884H95.7901L92.9946 8.16144L95.999 12.8527H93.4445L91.6451 9.75197L90.633 10.8926V12.8527H88.3355Z" fill="#131313"/>
<path d="M13.4513 3.1423L8.0708 0V1.3467H4.93215C2.2082 1.3467 0 3.55747 0 6.2846C0 9.01172 2.2082 11.2225 4.93215 11.2225H12.5546C15.1274 11.2225 17.2401 9.25025 17.4666 6.7335H15.6614C15.4439 8.2563 14.1358 9.42689 12.5546 9.42689H4.93215C3.19873 9.42689 1.79351 8.02004 1.79351 6.2846C1.79351 4.54915 3.19873 3.1423 4.93215 3.1423L13.4513 3.1423Z" fill="#131313"/>
<path d="M10.3127 12.1203H18.3634C20.0968 12.1203 21.502 10.7134 21.502 8.97799C21.502 7.24255 20.0968 5.8357 18.3634 5.8357H10.741C9.15977 5.8357 7.85167 7.00629 7.6341 8.52909H5.82891C6.05544 6.01234 8.16815 4.0401 10.741 4.0401H18.3634C21.0873 4.0401 23.2955 6.25087 23.2955 8.97799C23.2955 11.7051 21.0873 13.9159 18.3634 13.9159H15.2448V15.2626L10.3127 12.1203Z" fill="#131313"/>
</svg>
