<svg width="238" height="499" viewBox="0 0 238 499" fill="none" xmlns="http://www.w3.org/2000/svg">
<path d="M0 99.2327C0 97.8861 1.01803 96.7945 2.27383 96.7945C3.52964 96.7945 4.54767 97.8861 4.54767 99.2327V159.375C4.54767 160.721 3.52964 161.813 2.27383 161.813C1.01803 161.813 0 160.721 0 159.375V99.2327Z" fill="#161616"/>
<path d="M0 177.255C0 175.908 1.01803 174.816 2.27383 174.816C3.52964 174.816 4.54767 175.908 4.54767 177.255V198.385C4.54767 199.732 3.52964 200.824 2.27383 200.824C1.01803 200.824 0 199.732 0 198.385V177.255Z" fill="#161616"/>
<path d="M233.447 93.5436C233.447 92.197 234.465 91.1054 235.721 91.1054C236.977 91.1054 237.995 92.197 237.995 93.5436V114.675C237.995 116.021 236.977 117.113 235.721 117.113C234.465 117.113 233.447 116.021 233.447 114.675V93.5436Z" fill="#161616"/>
<path d="M1.51589 20.3182C1.51589 9.09677 9.99947 0 20.4645 0H217.53C227.995 0 236.479 9.09676 236.479 20.3182V477.884C236.479 489.105 227.995 498.202 217.53 498.202H20.4645C9.99947 498.202 1.51589 489.105 1.51589 477.884V20.3182Z" fill="#161616"/>
<path d="M3.03125 23.5269C3.03125 12.3054 11.5148 3.20868 21.9799 3.20868H216.014C226.479 3.20868 234.962 12.3054 234.962 23.5269V474.674C234.962 485.896 226.479 494.993 216.014 494.993H21.9799C11.5148 494.993 3.03125 485.896 3.03125 474.674V23.5269Z" fill="url(#paint0_linear_0_18312)"/>
<path d="M3.03125 474.674C3.03125 485.896 11.5148 494.993 21.9799 494.993H216.014C226.479 494.993 234.962 485.896 234.962 474.674V23.5269C234.962 12.3054 226.479 3.20868 216.014 3.20868H21.9799C11.5148 3.20868 3.03125 12.3054 3.03125 23.5269V474.674Z" fill="url(#paint1_linear_0_18312)"/>
<mask id="mask0_0_18312" style="mask-type:alpha" maskUnits="userSpaceOnUse" x="5" y="10" width="229" height="469">
<path d="M5.30664 23.569C5.30664 16.3873 10.7361 10.5654 17.4338 10.5654H221.321C228.018 10.5654 233.448 16.3873 233.448 23.569V465.693C233.448 472.875 228.018 478.696 221.321 478.696H17.4338C10.7361 478.696 5.30664 472.875 5.30664 465.693V23.569Z" fill="#CFCFCF"/>
</mask>
<g mask="url(#mask0_0_18312)">
<path d="M3.03125 23.5691C3.03125 12.3477 11.5148 3.25095 21.9799 3.25095H216.014C226.479 3.25095 234.962 12.3477 234.962 23.5691V474.633C234.962 485.854 226.479 494.951 216.014 494.951H21.9799C11.5148 494.951 3.03125 485.854 3.03125 474.633V23.5691Z" fill="url(#paint2_linear_0_18312)"/>
<rect width="227.88" height="468.055" transform="translate(5.35352 10.3137)" fill="white"/>
<rect x="16.3932" y="105.381" width="177.318" height="24.2121" rx="3.20454" fill="white" stroke="#E5E5E5" stroke-width="0.71212"/>
<rect x="23.1602" y="110.722" width="17.803" height="13.5303" fill="#E2E2E2"/>
<rect x="62.3262" y="105.737" width="0.71212" height="23.5" fill="#E5E5E5"/>
<path d="M48.2867 115.91C48.0164 116.182 48.0164 116.621 48.2867 116.893L51.0996 119.717C51.1158 119.738 51.1334 119.757 51.1522 119.776C51.3658 119.991 51.6844 120.036 51.9419 119.911C52.0117 119.878 52.0772 119.832 52.1349 119.774C52.1462 119.763 52.1569 119.751 52.1672 119.739L55.0025 116.893C55.2728 116.621 55.2728 116.182 55.0025 115.91C54.7323 115.639 54.2942 115.639 54.0241 115.91L51.6446 118.299L49.2651 115.91C48.9949 115.639 48.5569 115.639 48.2867 115.91Z" fill="#343434"/>
<path fill-rule="evenodd" clip-rule="evenodd" d="M214.498 124.579C213.211 124.579 212.001 124.25 210.949 123.673L206.885 124.964L208.21 121.056C207.541 119.958 207.156 118.671 207.156 117.295C207.156 113.271 210.443 110.01 214.498 110.01C218.552 110.01 221.839 113.271 221.839 117.295C221.839 121.318 218.553 124.579 214.498 124.579ZM214.498 111.17C211.094 111.17 208.326 113.918 208.326 117.295C208.326 118.635 208.763 119.876 209.501 120.885L208.73 123.16L211.102 122.406C212.077 123.046 213.244 123.419 214.498 123.419C217.901 123.419 220.67 120.672 220.67 117.295C220.67 113.918 217.901 111.17 214.498 111.17ZM218.205 118.972C218.16 118.898 218.04 118.853 217.86 118.764C217.68 118.675 216.795 118.243 216.63 118.183C216.465 118.124 216.345 118.094 216.225 118.272C216.106 118.451 215.761 118.853 215.655 118.972C215.55 119.092 215.446 119.107 215.266 119.017C215.086 118.928 214.506 118.739 213.818 118.131C213.283 117.658 212.922 117.074 212.817 116.895C212.712 116.716 212.806 116.619 212.896 116.531C212.977 116.45 213.076 116.322 213.166 116.218C213.256 116.113 213.286 116.039 213.346 115.92C213.406 115.801 213.376 115.697 213.331 115.607C213.286 115.518 212.926 114.639 212.776 114.282C212.626 113.924 212.477 113.984 212.371 113.984C212.266 113.984 212.146 113.969 212.026 113.969C211.906 113.969 211.711 114.014 211.546 114.192C211.382 114.371 210.917 114.803 210.917 115.681C210.917 116.56 211.561 117.409 211.652 117.528C211.741 117.647 212.896 119.509 214.725 120.224C216.555 120.938 216.555 120.7 216.885 120.67C217.215 120.641 217.95 120.238 218.1 119.822C218.25 119.404 218.25 119.047 218.205 118.972Z" fill="#2FD74D"/>
<path d="M18.2204 96.2836L18.347 97.1515L18.5323 96.3695L19.8342 91.7769H20.5664L21.8366 96.3695L22.0175 97.1651L22.1576 96.2791L23.1792 91.7769H24.0516L22.4559 98.3585H21.6649L20.3088 93.5624L20.2048 93.0607L20.1009 93.5624L18.695 98.3585H17.904L16.3128 91.7769H17.1807L18.2204 96.2836ZM25.7241 94.0597C26.0948 93.6046 26.5769 93.3771 27.1706 93.3771C28.2042 93.3771 28.7256 93.9602 28.7346 95.1264V98.3585H27.8984V95.1219C27.8954 94.7693 27.814 94.5087 27.6543 94.3399C27.4976 94.1712 27.252 94.0868 26.9175 94.0868C26.6462 94.0868 26.4082 94.1591 26.2033 94.3038C25.9983 94.4484 25.8386 94.6383 25.7241 94.8733V98.3585H24.8878V91.4153H25.7241V94.0597ZM33.0063 98.3585C32.9581 98.262 32.9189 98.0903 32.8888 97.8431C32.5 98.247 32.0359 98.4489 31.4965 98.4489C31.0144 98.4489 30.6181 98.3133 30.3077 98.042C30.0003 97.7678 29.8466 97.4213 29.8466 97.0024C29.8466 96.4931 30.0395 96.0983 30.4252 95.8181C30.814 95.5348 31.3594 95.3931 32.0616 95.3931H32.8752V95.0089C32.8752 94.7166 32.7878 94.4846 32.613 94.3128C32.4382 94.138 32.1806 94.0506 31.8401 94.0506C31.5417 94.0506 31.2916 94.126 31.0897 94.2766C30.8878 94.4273 30.7868 94.6096 30.7868 94.8236H29.9461C29.9461 94.5795 30.0319 94.3444 30.2037 94.1184C30.3785 93.8894 30.6136 93.7086 30.9089 93.576C31.2072 93.4434 31.5342 93.3771 31.8898 93.3771C32.4533 93.3771 32.8948 93.5187 33.2142 93.802C33.5337 94.0823 33.6994 94.4695 33.7115 94.9637V97.2148C33.7115 97.6638 33.7687 98.0209 33.8832 98.2861V98.3585H33.0063ZM31.6186 97.7211C31.8807 97.7211 32.1294 97.6533 32.3644 97.5177C32.5995 97.3821 32.7697 97.2058 32.8752 96.9888V95.9853H32.2198C31.1952 95.9853 30.6829 96.2852 30.6829 96.8848C30.6829 97.147 30.7703 97.3519 30.945 97.4996C31.1198 97.6473 31.3443 97.7211 31.6186 97.7211ZM36.1569 92.2832V93.4675H37.07V94.1139H36.1569V97.147C36.1569 97.3429 36.1976 97.4906 36.279 97.59C36.3604 97.6864 36.499 97.7347 36.6949 97.7347C36.7913 97.7347 36.9239 97.7166 37.0926 97.6804V98.3585C36.8727 98.4187 36.6587 98.4489 36.4508 98.4489C36.0771 98.4489 35.7953 98.3359 35.6055 98.1098C35.4156 97.8838 35.3207 97.5629 35.3207 97.147V94.1139H34.4302V93.4675H35.3207V92.2832H36.1569ZM40.8987 97.0611C40.8987 96.8351 40.8128 96.6603 40.6411 96.5368C40.4723 96.4102 40.1755 96.3017 39.7506 96.2113C39.3287 96.1209 38.9927 96.0124 38.7426 95.8859C38.4954 95.7593 38.3116 95.6086 38.1911 95.4338C38.0735 95.259 38.0148 95.0511 38.0148 94.81C38.0148 94.4092 38.1835 94.0702 38.5211 93.793C38.8616 93.5157 39.2955 93.3771 39.8229 93.3771C40.3774 93.3771 40.8264 93.5202 41.17 93.8065C41.5165 94.0928 41.6898 94.459 41.6898 94.905H40.849C40.849 94.6759 40.7511 94.4785 40.5552 94.3128C40.3623 94.1471 40.1182 94.0642 39.8229 94.0642C39.5185 94.0642 39.2805 94.1305 39.1087 94.2631C38.9369 94.3957 38.851 94.5689 38.851 94.7829C38.851 94.9848 38.9309 95.137 39.0906 95.2395C39.2503 95.3419 39.5381 95.4399 39.954 95.5333C40.3729 95.6267 40.7119 95.7382 40.9711 95.8678C41.2302 95.9974 41.4216 96.1541 41.5451 96.3379C41.6717 96.5187 41.735 96.7402 41.735 97.0024C41.735 97.4393 41.5602 97.7904 41.2106 98.0556C40.8611 98.3178 40.4075 98.4489 39.85 98.4489C39.4583 98.4489 39.1117 98.3796 38.8104 98.2409C38.509 98.1023 38.2724 97.9094 38.1007 97.6623C37.9319 97.4122 37.8475 97.1425 37.8475 96.8532H38.6838C38.6989 97.1335 38.8104 97.3565 39.0183 97.5222C39.2292 97.6849 39.5065 97.7663 39.85 97.7663C40.1664 97.7663 40.4196 97.703 40.6094 97.5764C40.8023 97.4469 40.8987 97.2751 40.8987 97.0611ZM45.8439 98.3585C45.7957 98.262 45.7565 98.0903 45.7264 97.8431C45.3377 98.247 44.8736 98.4489 44.3342 98.4489C43.852 98.4489 43.4557 98.3133 43.1453 98.042C42.8379 97.7678 42.6843 97.4213 42.6843 97.0024C42.6843 96.4931 42.8771 96.0983 43.2628 95.8181C43.6516 95.5348 44.197 95.3931 44.8992 95.3931H45.7128V95.0089C45.7128 94.7166 45.6255 94.4846 45.4507 94.3128C45.2759 94.138 45.0182 94.0506 44.6777 94.0506C44.3794 94.0506 44.1292 94.126 43.9273 94.2766C43.7254 94.4273 43.6245 94.6096 43.6245 94.8236H42.7837C42.7837 94.5795 42.8696 94.3444 43.0414 94.1184C43.2161 93.8894 43.4512 93.7086 43.7465 93.576C44.0449 93.4434 44.3718 93.3771 44.7274 93.3771C45.291 93.3771 45.7324 93.5187 46.0519 93.802C46.3713 94.0823 46.537 94.4695 46.5491 94.9637V97.2148C46.5491 97.6638 46.6064 98.0209 46.7209 98.2861V98.3585H45.8439ZM44.4562 97.7211C44.7184 97.7211 44.967 97.6533 45.2021 97.5177C45.4371 97.3821 45.6074 97.2058 45.7128 96.9888V95.9853H45.0574C44.0328 95.9853 43.5205 96.2852 43.5205 96.8848C43.5205 97.147 43.6079 97.3519 43.7827 97.4996C43.9575 97.6473 44.182 97.7211 44.4562 97.7211ZM51.9915 95.9672C51.9915 96.7116 51.8213 97.3113 51.4807 97.7663C51.1402 98.2213 50.6791 98.4489 50.0975 98.4489C49.5039 98.4489 49.0368 98.2605 48.6962 97.8838V100.239H47.86V93.4675H48.6239L48.6646 94.0099C49.0051 93.588 49.4783 93.3771 50.084 93.3771C50.6716 93.3771 51.1357 93.5986 51.4762 94.0416C51.8198 94.4846 51.9915 95.1008 51.9915 95.8904V95.9672ZM51.1553 95.8723C51.1553 95.3208 51.0378 94.8854 50.8027 94.5659C50.5676 94.2465 50.2452 94.0868 49.8354 94.0868C49.3291 94.0868 48.9494 94.3113 48.6962 94.7603V97.0973C48.9464 97.5433 49.3291 97.7663 49.8444 97.7663C50.2452 97.7663 50.5631 97.6081 50.7982 97.2917C51.0362 96.9722 51.1553 96.4991 51.1553 95.8723ZM57.1899 95.9672C57.1899 96.7116 57.0196 97.3113 56.6791 97.7663C56.3386 98.2213 55.8775 98.4489 55.2959 98.4489C54.7022 98.4489 54.2351 98.2605 53.8946 97.8838V100.239H53.0583V93.4675H53.8223L53.8629 94.0099C54.2035 93.588 54.6766 93.3771 55.2823 93.3771C55.8699 93.3771 56.334 93.5986 56.6746 94.0416C57.0181 94.4846 57.1899 95.1008 57.1899 95.8904V95.9672ZM56.3536 95.8723C56.3536 95.3208 56.2361 94.8854 56.001 94.5659C55.766 94.2465 55.4435 94.0868 55.0337 94.0868C54.5274 94.0868 54.1477 94.3113 53.8946 94.7603V97.0973C54.1447 97.5433 54.5274 97.7663 55.0427 97.7663C55.4435 97.7663 55.7615 97.6081 55.9965 97.2917C56.2346 96.9722 56.3536 96.4991 56.3536 95.8723Z" fill="#9E9E9E"/>
<rect x="16.3932" y="156.654" width="177.318" height="24.2121" rx="3.20454" fill="white" stroke="#E5E5E5" stroke-width="0.71212"/>
<rect x="23.1602" y="161.995" width="17.803" height="13.5303" fill="#E2E2E2"/>
<rect x="62.3262" y="157.01" width="0.71212" height="23.5" fill="#E5E5E5"/>
<path d="M48.2867 167.183C48.0164 167.454 48.0164 167.894 48.2867 168.165L51.0996 170.99C51.1158 171.01 51.1334 171.03 51.1522 171.049C51.3658 171.263 51.6844 171.308 51.9419 171.184C52.0117 171.15 52.0772 171.105 52.1349 171.047C52.1462 171.035 52.1569 171.024 52.1672 171.012L55.0025 168.165C55.2728 167.894 55.2728 167.454 55.0025 167.183C54.7323 166.912 54.2942 166.912 54.0241 167.183L51.6446 169.572L49.2651 167.183C48.9949 166.912 48.5569 166.912 48.2867 167.183Z" fill="#343434"/>
<path fill-rule="evenodd" clip-rule="evenodd" d="M214.913 166.049C215.218 166.114 215.452 166.23 215.651 166.417C215.908 166.66 216.049 166.954 216.111 167.376C216.153 167.651 216.136 167.759 216.038 167.849C215.947 167.932 215.778 167.935 215.676 167.857C215.602 167.801 215.579 167.742 215.562 167.583C215.542 167.371 215.504 167.223 215.441 167.085C215.305 166.793 215.065 166.641 214.659 166.592C214.468 166.569 214.411 166.547 214.349 166.474C214.236 166.34 214.28 166.122 214.436 166.042C214.495 166.012 214.519 166.009 214.65 166.017C214.73 166.021 214.849 166.035 214.913 166.049ZM214.583 164.882C215.523 165.02 216.251 165.456 216.728 166.164C216.996 166.563 217.163 167.031 217.22 167.533C217.24 167.717 217.24 168.053 217.218 168.109C217.198 168.161 217.133 168.232 217.078 168.262C217.017 168.293 216.889 168.289 216.817 168.252C216.698 168.192 216.663 168.096 216.663 167.836C216.663 167.436 216.559 167.014 216.379 166.686C216.175 166.312 215.878 166.003 215.515 165.788C215.204 165.602 214.744 165.465 214.325 165.431C214.173 165.418 214.089 165.387 214.032 165.321C213.944 165.22 213.934 165.084 214.009 164.971C214.089 164.847 214.213 164.826 214.583 164.882ZM210.937 163.928C210.991 163.947 211.075 163.99 211.123 164.021C211.417 164.216 212.236 165.262 212.504 165.785C212.657 166.083 212.708 166.304 212.66 166.468C212.61 166.645 212.528 166.737 212.161 167.033C212.014 167.152 211.876 167.274 211.855 167.306C211.799 167.387 211.754 167.544 211.754 167.656C211.756 167.914 211.923 168.382 212.143 168.743C212.313 169.022 212.618 169.381 212.92 169.656C213.275 169.981 213.587 170.202 213.94 170.377C214.394 170.602 214.671 170.66 214.874 170.565C214.925 170.542 214.979 170.511 214.996 170.497C215.012 170.483 215.131 170.338 215.261 170.177C215.512 169.862 215.569 169.811 215.741 169.752C215.959 169.678 216.182 169.698 216.407 169.812C216.577 169.9 216.949 170.131 217.189 170.298C217.505 170.519 218.18 171.069 218.271 171.179C218.432 171.377 218.46 171.63 218.352 171.91C218.237 172.205 217.791 172.759 217.48 172.996C217.198 173.209 216.999 173.291 216.735 173.303C216.518 173.314 216.429 173.295 216.152 173.181C213.978 172.286 212.242 170.95 210.864 169.115C210.144 168.157 209.596 167.162 209.221 166.131C209.003 165.53 208.992 165.269 209.172 164.961C209.249 164.831 209.579 164.509 209.819 164.33C210.218 164.033 210.403 163.924 210.55 163.893C210.65 163.871 210.825 163.888 210.937 163.928ZM214.476 163.761C215.009 163.828 215.439 163.956 215.912 164.186C216.376 164.414 216.673 164.629 217.067 165.02C217.435 165.389 217.64 165.669 217.856 166.103C218.158 166.709 218.33 167.43 218.36 168.223C218.37 168.493 218.363 168.554 218.301 168.631C218.183 168.781 217.924 168.756 217.836 168.588C217.808 168.532 217.801 168.484 217.791 168.268C217.776 167.935 217.753 167.721 217.706 167.464C217.523 166.457 217.04 165.654 216.269 165.077C215.627 164.594 214.962 164.359 214.092 164.308C213.798 164.291 213.747 164.281 213.68 164.23C213.556 164.132 213.55 163.903 213.669 163.797C213.742 163.73 213.793 163.721 214.046 163.729C214.178 163.733 214.371 163.749 214.476 163.761ZM214.007 160.57C218.333 160.57 221.84 164.078 221.84 168.404C221.84 172.73 218.333 176.237 214.007 176.237C209.681 176.237 206.174 172.73 206.174 168.404C206.174 164.078 209.681 160.57 214.007 160.57Z" fill="#6C4FD2"/>
<path d="M18.9798 148.478L20.8603 143.05H21.8095L19.3686 149.631H18.6001L16.1637 143.05H17.1084L18.9798 148.478ZM23.473 149.631H22.6367V144.74H23.473V149.631ZM22.5689 143.443C22.5689 143.307 22.6096 143.193 22.691 143.099C22.7754 143.006 22.8989 142.959 23.0616 142.959C23.2244 142.959 23.3479 143.006 23.4323 143.099C23.5167 143.193 23.5589 143.307 23.5589 143.443C23.5589 143.578 23.5167 143.691 23.4323 143.782C23.3479 143.872 23.2244 143.917 23.0616 143.917C22.8989 143.917 22.7754 143.872 22.691 143.782C22.6096 143.691 22.5689 143.578 22.5689 143.443ZM28.9561 147.24C28.9561 147.987 28.7843 148.588 28.4408 149.043C28.0973 149.495 27.6362 149.722 27.0576 149.722C26.4398 149.722 25.9622 149.503 25.6247 149.066L25.584 149.631H24.8155V142.688H25.6518V145.278C25.9893 144.859 26.4549 144.65 27.0485 144.65C27.6422 144.65 28.1078 144.874 28.4453 145.323C28.7858 145.772 28.9561 146.387 28.9561 147.168V147.24ZM28.1199 147.145C28.1199 146.575 28.0099 146.135 27.7899 145.825C27.5699 145.515 27.2535 145.359 26.8406 145.359C26.2891 145.359 25.8929 145.616 25.6518 146.128V148.243C25.9079 148.756 26.3072 149.012 26.8497 149.012C27.2505 149.012 27.5624 148.857 27.7854 148.546C28.0084 148.236 28.1199 147.769 28.1199 147.145ZM32.0435 149.722C31.3805 149.722 30.8411 149.505 30.4252 149.071C30.0093 148.634 29.8014 148.051 29.8014 147.321V147.168C29.8014 146.682 29.8933 146.25 30.0771 145.87C30.264 145.487 30.5231 145.189 30.8546 144.975C31.1891 144.758 31.5508 144.65 31.9395 144.65C32.5754 144.65 33.0696 144.859 33.4222 145.278C33.7747 145.697 33.951 146.297 33.951 147.077V147.425H30.6377C30.6497 147.907 30.7898 148.298 31.0581 148.596C31.3293 148.891 31.6728 149.039 32.0887 149.039C32.384 149.039 32.6341 148.979 32.839 148.858C33.044 148.738 33.2233 148.578 33.377 148.379L33.8878 148.777C33.4779 149.407 32.8632 149.722 32.0435 149.722ZM31.9395 145.337C31.602 145.337 31.3187 145.46 31.0897 145.707C30.8607 145.952 30.719 146.295 30.6648 146.738H33.1148V146.675C33.0907 146.25 32.9762 145.921 32.7712 145.689C32.5663 145.454 32.2891 145.337 31.9395 145.337ZM37.287 145.491C37.1604 145.469 37.0233 145.459 36.8757 145.459C36.3272 145.459 35.955 145.692 35.7592 146.16V149.631H34.9229V144.74H35.7366L35.7501 145.305C36.0243 144.868 36.4131 144.65 36.9164 144.65C37.0791 144.65 37.2026 144.671 37.287 144.713V145.491Z" fill="#9E9E9E"/>
<rect x="16.3932" y="207.926" width="177.318" height="24.2121" rx="3.20454" fill="white" stroke="#E5E5E5" stroke-width="0.71212"/>
<path d="M219.599 214.753L208.876 218.524C208.144 218.792 208.148 219.164 208.742 219.33L211.417 220.091L212.44 222.951C212.564 223.265 212.503 223.389 212.864 223.389C213.142 223.389 213.265 223.273 213.42 223.135C213.519 223.047 214.104 222.528 214.758 221.949L217.54 223.823C218.051 224.081 218.421 223.947 218.549 223.39L220.375 215.544C220.562 214.86 220.089 214.55 219.599 214.753ZM211.836 219.916L217.865 216.448C218.166 216.282 218.442 216.371 218.215 216.555L213.053 220.801L212.852 222.756L211.836 219.916Z" fill="#2EA5D9"/>
<path d="M21.3485 195.036H19.233V200.904H18.3696V195.036H16.2586V194.322H21.3485V195.036ZM23.7713 200.994C23.1084 200.994 22.5689 200.777 22.1531 200.343C21.7372 199.906 21.5293 199.323 21.5293 198.594V198.44C21.5293 197.955 21.6212 197.523 21.805 197.143C21.9918 196.76 22.251 196.462 22.5825 196.248C22.917 196.031 23.2786 195.922 23.6674 195.922C24.3032 195.922 24.7974 196.132 25.15 196.551C25.5026 196.97 25.6789 197.569 25.6789 198.35V198.698H22.3655C22.3776 199.18 22.5177 199.57 22.7859 199.869C23.0571 200.164 23.4007 200.312 23.8165 200.312C24.1119 200.312 24.362 200.251 24.5669 200.131C24.7718 200.01 24.9511 199.851 25.1048 199.652L25.6156 200.049C25.2058 200.679 24.591 200.994 23.7713 200.994ZM23.6674 196.61C23.3299 196.61 23.0466 196.733 22.8176 196.98C22.5885 197.224 22.4469 197.568 22.3926 198.011H24.8426V197.948C24.8185 197.523 24.704 197.194 24.4991 196.962C24.2942 196.727 24.0169 196.61 23.6674 196.61ZM27.5593 200.904H26.7231V193.961H27.5593V200.904ZM30.9315 200.994C30.2685 200.994 29.7291 200.777 29.3132 200.343C28.8973 199.906 28.6894 199.323 28.6894 198.594V198.44C28.6894 197.955 28.7813 197.523 28.9652 197.143C29.152 196.76 29.4112 196.462 29.7426 196.248C30.0771 196.031 30.4388 195.922 30.8275 195.922C31.4634 195.922 31.9576 196.132 32.3102 196.551C32.6628 196.97 32.839 197.569 32.839 198.35V198.698H29.5257C29.5377 199.18 29.6779 199.57 29.9461 199.869C30.2173 200.164 30.5608 200.312 30.9767 200.312C31.272 200.312 31.5221 200.251 31.7271 200.131C31.932 200.01 32.1113 199.851 32.265 199.652L32.7758 200.049C32.3659 200.679 31.7512 200.994 30.9315 200.994ZM30.8275 196.61C30.49 196.61 30.2067 196.733 29.9777 196.98C29.7487 197.224 29.607 197.568 29.5528 198.011H32.0028V197.948C31.9787 197.523 31.8642 197.194 31.6592 196.962C31.4543 196.727 31.1771 196.61 30.8275 196.61ZM33.612 198.418C33.612 197.655 33.7883 197.05 34.1409 196.6C34.4935 196.148 34.9606 195.922 35.5422 195.922C36.1389 195.922 36.6045 196.133 36.939 196.555L36.9796 196.013H37.7436V200.786C37.7436 201.419 37.5552 201.918 37.1785 202.282C36.8049 202.647 36.3016 202.829 35.6688 202.829C35.3162 202.829 34.9711 202.754 34.6336 202.603C34.2961 202.453 34.0384 202.246 33.8606 201.984L34.2946 201.482C34.6532 201.925 35.0917 202.147 35.61 202.147C36.0168 202.147 36.3332 202.032 36.5592 201.803C36.7883 201.574 36.9028 201.252 36.9028 200.836V200.416C36.5683 200.801 36.1117 200.994 35.5331 200.994C34.9606 200.994 34.4965 200.764 34.1409 200.303C33.7883 199.842 33.612 199.213 33.612 198.418ZM34.4528 198.513C34.4528 199.064 34.5658 199.498 34.7918 199.814C35.0178 200.128 35.3342 200.285 35.7411 200.285C36.2684 200.285 36.6557 200.045 36.9028 199.566V197.333C36.6466 196.866 36.2624 196.632 35.7501 196.632C35.3433 196.632 35.0254 196.79 34.7963 197.107C34.5673 197.423 34.4528 197.892 34.4528 198.513ZM41.3734 196.763C41.2468 196.742 41.1097 196.732 40.962 196.732C40.4136 196.732 40.0414 196.965 39.8455 197.432V200.904H39.0092V196.013H39.8229L39.8365 196.578C40.1107 196.141 40.4994 195.922 41.0027 195.922C41.1654 195.922 41.289 195.944 41.3734 195.986V196.763ZM44.9851 200.904C44.9369 200.807 44.8977 200.636 44.8676 200.388C44.4788 200.792 44.0147 200.994 43.4753 200.994C42.9931 200.994 42.5969 200.859 42.2865 200.587C41.9791 200.313 41.8254 199.967 41.8254 199.548C41.8254 199.038 42.0183 198.644 42.404 198.363C42.7927 198.08 43.3382 197.938 44.0403 197.938H44.854V197.554C44.854 197.262 44.7666 197.03 44.5918 196.858C44.417 196.683 44.1594 196.596 43.8188 196.596C43.5205 196.596 43.2704 196.671 43.0685 196.822C42.8666 196.973 42.7656 197.155 42.7656 197.369H41.9248C41.9248 197.125 42.0107 196.89 42.1825 196.664C42.3573 196.435 42.5923 196.254 42.8877 196.121C43.186 195.989 43.513 195.922 43.8686 195.922C44.4321 195.922 44.8736 196.064 45.193 196.347C45.5124 196.628 45.6782 197.015 45.6902 197.509V199.76C45.6902 200.209 45.7475 200.566 45.862 200.831V200.904H44.9851ZM43.5973 200.266C43.8595 200.266 44.1081 200.199 44.3432 200.063C44.5783 199.927 44.7485 199.751 44.854 199.534V198.531H44.1985C43.1739 198.531 42.6616 198.83 42.6616 199.43C42.6616 199.692 42.749 199.897 42.9238 200.045C43.0986 200.193 43.3231 200.266 43.5973 200.266ZM47.7877 196.013L47.8103 196.555C48.1689 196.133 48.6525 195.922 49.2613 195.922C49.9454 195.922 50.4109 196.185 50.6581 196.709C50.8208 196.474 51.0317 196.284 51.2909 196.139C51.5531 195.995 51.862 195.922 52.2176 195.922C53.2904 195.922 53.8358 196.49 53.8539 197.627V200.904H53.0176V197.676C53.0176 197.327 52.9378 197.066 52.7781 196.894C52.6184 196.72 52.3501 196.632 51.9735 196.632C51.6631 196.632 51.4054 196.726 51.2005 196.912C50.9956 197.096 50.8765 197.345 50.8434 197.658V200.904H50.0026V197.699C50.0026 196.988 49.6545 196.632 48.9584 196.632C48.41 196.632 48.0348 196.866 47.8329 197.333V200.904H46.9966V196.013H47.7877Z" fill="#9E9E9E"/>
<rect x="16.3932" y="259.199" width="177.318" height="24.2121" rx="3.20454" fill="white" stroke="#E5E5E5" stroke-width="0.71212"/>
<path d="M213.517 269.66L210.842 272.518L213.274 271.18L214.521 272.518L217.196 269.66L214.794 270.997L213.517 269.66Z" fill="#0080FF"/>
<path d="M214.007 263.116C209.681 263.116 206.174 266.622 206.174 270.949C206.174 275.275 209.681 278.782 214.007 278.782C218.333 278.782 221.84 275.275 221.84 270.949C221.841 266.622 218.333 263.116 214.007 263.116ZM214.036 275.497C213.548 275.497 213.077 275.43 212.632 275.307L210.966 276.227V274.488C209.853 273.652 209.141 272.372 209.141 270.937C209.141 268.418 211.333 266.376 214.036 266.376C216.74 266.376 218.931 268.418 218.931 270.937C218.931 273.455 216.74 275.497 214.036 275.497Z" fill="#0080FF"/>
<path d="M17.9221 245.595L20.0737 250.965L22.2254 245.595H23.3509V252.176H22.4831V249.613L22.5644 246.847L20.4037 252.176H19.7392L17.5831 246.861L17.6689 249.613V252.176H16.801V245.595H17.9221ZM26.7819 252.267C26.1189 252.267 25.5795 252.05 25.1636 251.616C24.7477 251.179 24.5398 250.596 24.5398 249.867V249.713C24.5398 249.228 24.6317 248.795 24.8155 248.416C25.0024 248.033 25.2615 247.734 25.593 247.52C25.9275 247.304 26.2891 247.195 26.6779 247.195C27.3137 247.195 27.808 247.404 28.1605 247.823C28.5131 248.242 28.6894 248.842 28.6894 249.622V249.97H25.376C25.3881 250.453 25.5282 250.843 25.7964 251.141C26.0676 251.437 26.4112 251.584 26.8271 251.584C27.1224 251.584 27.3725 251.524 27.5774 251.403C27.7823 251.283 27.9616 251.123 28.1153 250.924L28.6261 251.322C28.2163 251.952 27.6015 252.267 26.7819 252.267ZM26.6779 247.882C26.3404 247.882 26.0571 248.006 25.8281 248.253C25.599 248.497 25.4574 248.84 25.4032 249.283H27.8532V249.22C27.8291 248.795 27.7145 248.467 27.5096 248.235C27.3047 248 27.0275 247.882 26.6779 247.882ZM32.5091 250.879C32.5091 250.653 32.4232 250.478 32.2514 250.355C32.0827 250.228 31.7858 250.12 31.3609 250.029C30.939 249.939 30.603 249.83 30.3529 249.704C30.1058 249.577 29.9219 249.427 29.8014 249.252C29.6839 249.077 29.6251 248.869 29.6251 248.628C29.6251 248.227 29.7939 247.888 30.1314 247.611C30.4719 247.334 30.9059 247.195 31.4332 247.195C31.9877 247.195 32.4367 247.338 32.7803 247.624C33.1268 247.911 33.3001 248.277 33.3001 248.723H32.4593C32.4593 248.494 32.3614 248.296 32.1655 248.131C31.9727 247.965 31.7286 247.882 31.4332 247.882C31.1289 247.882 30.8908 247.948 30.719 248.081C30.5473 248.214 30.4614 248.387 30.4614 248.601C30.4614 248.803 30.5412 248.955 30.7009 249.057C30.8607 249.16 31.1485 249.258 31.5643 249.351C31.9832 249.445 32.3222 249.556 32.5814 249.686C32.8406 249.815 33.0319 249.972 33.1555 250.156C33.282 250.337 33.3453 250.558 33.3453 250.82C33.3453 251.257 33.1705 251.608 32.821 251.874C32.4714 252.136 32.0179 252.267 31.4604 252.267C31.0686 252.267 30.722 252.197 30.4207 252.059C30.1193 251.92 29.8828 251.727 29.711 251.48C29.5422 251.23 29.4579 250.96 29.4579 250.671H30.2941C30.3092 250.951 30.4207 251.174 30.6286 251.34C30.8396 251.503 31.1168 251.584 31.4604 251.584C31.7768 251.584 32.0299 251.521 32.2198 251.394C32.4126 251.265 32.5091 251.093 32.5091 250.879ZM37.2825 250.879C37.2825 250.653 37.1966 250.478 37.0248 250.355C36.8561 250.228 36.5592 250.12 36.1343 250.029C35.7124 249.939 35.3764 249.83 35.1263 249.704C34.8792 249.577 34.6954 249.427 34.5748 249.252C34.4573 249.077 34.3985 248.869 34.3985 248.628C34.3985 248.227 34.5673 247.888 34.9048 247.611C35.2453 247.334 35.6793 247.195 36.2067 247.195C36.7612 247.195 37.2102 247.338 37.5537 247.624C37.9003 247.911 38.0735 248.277 38.0735 248.723H37.2328C37.2328 248.494 37.1348 248.296 36.939 248.131C36.7461 247.965 36.502 247.882 36.2067 247.882C35.9023 247.882 35.6642 247.948 35.4925 248.081C35.3207 248.214 35.2348 248.387 35.2348 248.601C35.2348 248.803 35.3147 248.955 35.4744 249.057C35.6341 249.16 35.9219 249.258 36.3378 249.351C36.7566 249.445 37.0957 249.556 37.3548 249.686C37.614 249.815 37.8053 249.972 37.9289 250.156C38.0555 250.337 38.1188 250.558 38.1188 250.82C38.1188 251.257 37.944 251.608 37.5944 251.874C37.2448 252.136 36.7913 252.267 36.2338 252.267C35.842 252.267 35.4955 252.197 35.1941 252.059C34.8928 251.92 34.6562 251.727 34.4844 251.48C34.3157 251.23 34.2313 250.96 34.2313 250.671H35.0676C35.0826 250.951 35.1941 251.174 35.4021 251.34C35.613 251.503 35.8902 251.584 36.2338 251.584C36.5502 251.584 36.8033 251.521 36.9932 251.394C37.1861 251.265 37.2825 251.093 37.2825 250.879ZM41.2378 252.267C40.5748 252.267 40.0354 252.05 39.6195 251.616C39.2036 251.179 38.9957 250.596 38.9957 249.867V249.713C38.9957 249.228 39.0876 248.795 39.2714 248.416C39.4583 248.033 39.7174 247.734 40.0489 247.52C40.3834 247.304 40.745 247.195 41.1338 247.195C41.7696 247.195 42.2639 247.404 42.6164 247.823C42.969 248.242 43.1453 248.842 43.1453 249.622V249.97H39.8319C39.844 250.453 39.9841 250.843 40.2523 251.141C40.5235 251.437 40.8671 251.584 41.283 251.584C41.5783 251.584 41.8284 251.524 42.0333 251.403C42.2382 251.283 42.4176 251.123 42.5712 250.924L43.082 251.322C42.6722 251.952 42.0574 252.267 41.2378 252.267ZM41.1338 247.882C40.7963 247.882 40.513 248.006 40.284 248.253C40.0549 248.497 39.9133 248.84 39.8591 249.283H42.3091V249.22C42.285 248.795 42.1704 248.467 41.9655 248.235C41.7606 248 41.4834 247.882 41.1338 247.882ZM44.9082 247.285L44.9354 247.9C45.309 247.43 45.7972 247.195 46.3999 247.195C47.4336 247.195 47.9549 247.778 47.964 248.944V252.176H47.1277V248.94C47.1247 248.587 47.0433 248.327 46.8836 248.158C46.7269 247.989 46.4813 247.905 46.1468 247.905C45.8756 247.905 45.6375 247.977 45.4326 248.122C45.2277 248.266 45.068 248.456 44.9534 248.691V252.176H44.1172V247.285H44.9082ZM49.0262 249.69C49.0262 248.928 49.2025 248.322 49.5551 247.873C49.9077 247.421 50.3748 247.195 50.9564 247.195C51.5531 247.195 52.0187 247.406 52.3532 247.828L52.3938 247.285H53.1578V252.059C53.1578 252.692 52.9694 253.19 52.5927 253.555C52.2191 253.92 51.7158 254.102 51.083 254.102C50.7304 254.102 50.3853 254.027 50.0478 253.876C49.7103 253.725 49.4526 253.519 49.2748 253.257L49.7088 252.755C50.0674 253.198 50.5059 253.419 51.0242 253.419C51.431 253.419 51.7474 253.305 51.9735 253.076C52.2025 252.847 52.317 252.524 52.317 252.109V251.688C51.9825 252.074 51.5259 252.267 50.9473 252.267C50.3748 252.267 49.9107 252.036 49.5551 251.575C49.2025 251.114 49.0262 250.486 49.0262 249.69ZM49.867 249.785C49.867 250.337 49.98 250.771 50.206 251.087C50.432 251.4 50.7485 251.557 51.1553 251.557C51.6826 251.557 52.0699 251.318 52.317 250.838V248.605C52.0608 248.138 51.6766 247.905 51.1643 247.905C50.7575 247.905 50.4396 248.063 50.2105 248.379C49.9815 248.696 49.867 249.164 49.867 249.785ZM56.4531 252.267C55.7901 252.267 55.2507 252.05 54.8348 251.616C54.4189 251.179 54.211 250.596 54.211 249.867V249.713C54.211 249.228 54.3029 248.795 54.4867 248.416C54.6736 248.033 54.9327 247.734 55.2642 247.52C55.5987 247.304 55.9604 247.195 56.3491 247.195C56.985 247.195 57.4792 247.404 57.8318 247.823C58.1843 248.242 58.3606 248.842 58.3606 249.622V249.97H55.0473C55.0593 250.453 55.1994 250.843 55.4676 251.141C55.7389 251.437 56.0824 251.584 56.4983 251.584C56.7936 251.584 57.0437 251.524 57.2486 251.403C57.4536 251.283 57.6329 251.123 57.7866 250.924L58.2973 251.322C57.8875 251.952 57.2727 252.267 56.4531 252.267ZM56.3491 247.882C56.0116 247.882 55.7283 248.006 55.4993 248.253C55.2703 248.497 55.1286 248.84 55.0744 249.283H57.5244V249.22C57.5003 248.795 57.3858 248.467 57.1808 248.235C56.9759 248 56.6987 247.882 56.3491 247.882ZM61.6966 248.036C61.57 248.015 61.4329 248.004 61.2853 248.004C60.7368 248.004 60.3646 248.238 60.1687 248.705V252.176H59.3325V247.285H60.1461L60.1597 247.85C60.4339 247.414 60.8227 247.195 61.3259 247.195C61.4887 247.195 61.6122 247.216 61.6966 247.258V248.036Z" fill="#9E9E9E"/>
<rect x="16.3932" y="310.472" width="177.318" height="24.2121" rx="3.20454" fill="white" stroke="#E5E5E5" stroke-width="0.71212"/>
<path fill-rule="evenodd" clip-rule="evenodd" d="M220.112 323.716C220.074 323.627 220.057 323.546 220.077 323.448C220.224 322.732 220.229 322.014 220.108 321.293C219.578 318.113 216.539 315.884 213.31 316.315C213.121 316.34 212.964 316.311 212.795 316.221C211.43 315.503 209.762 315.75 208.652 316.824C207.559 317.882 207.284 319.536 207.984 320.882C208.058 321.024 208.081 321.152 208.047 321.31C207.98 321.633 207.974 321.963 207.958 322.307C207.97 322.5 207.974 322.708 207.996 322.914C208.361 326.36 211.562 328.777 215.048 328.24C215.154 328.223 215.244 328.241 215.339 328.288C215.998 328.616 216.705 328.695 217.418 328.583C219.749 328.217 221.047 325.856 220.112 323.716ZM217.074 325.322C216.683 325.761 216.19 326.043 215.631 326.201C214.581 326.499 213.52 326.509 212.474 326.199C211.523 325.916 210.822 325.336 210.542 324.361C210.344 323.67 210.796 323.154 211.494 323.235C211.795 323.27 211.994 323.45 212.135 323.698C212.223 323.853 212.298 324.017 212.377 324.178C212.637 324.702 213.054 324.998 213.647 325.062C214.133 325.115 214.603 325.08 215.052 324.88C215.226 324.802 215.38 324.695 215.505 324.552C215.841 324.169 215.781 323.628 215.368 323.326C214.97 323.035 214.492 322.958 214.026 322.855C213.36 322.709 212.692 322.57 212.066 322.295C211.418 322.01 210.893 321.597 210.723 320.875C210.526 320.039 210.763 319.33 211.442 318.787C212.042 318.308 212.764 318.153 213.511 318.089C213.683 318.074 213.859 318.087 214.032 318.087C214.722 318.068 215.394 318.158 216.017 318.471C216.494 318.711 216.889 319.038 217.118 319.529C217.23 319.77 217.284 320.026 217.212 320.282C217.124 320.593 216.91 320.809 216.584 320.875C216.245 320.943 215.929 320.89 215.716 320.579C215.614 320.431 215.516 320.281 215.424 320.127C215.133 319.637 214.717 319.365 214.128 319.367C213.859 319.368 213.591 319.359 213.327 319.422C213.09 319.479 212.874 319.576 212.694 319.74C212.373 320.034 212.386 320.436 212.727 320.705C212.953 320.881 213.219 320.98 213.495 321.049C214.141 321.211 214.79 321.362 215.435 321.528C215.787 321.619 216.122 321.755 216.447 321.916C217.96 322.663 217.852 324.449 217.074 325.322Z" fill="#00AFF0"/>
<path d="M18.7402 300.515C17.9959 300.301 17.4535 300.039 17.1129 299.729C16.7754 299.415 16.6067 299.03 16.6067 298.572C16.6067 298.053 16.8131 297.625 17.2259 297.288C17.6418 296.947 18.1812 296.777 18.8442 296.777C19.2962 296.777 19.6985 296.864 20.0511 297.039C20.4067 297.214 20.681 297.455 20.8738 297.763C21.0697 298.07 21.1676 298.406 21.1676 298.771H20.2952C20.2952 298.373 20.1687 298.061 19.9155 297.835C19.6624 297.606 19.3053 297.491 18.8442 297.491C18.4163 297.491 18.0818 297.586 17.8407 297.776C17.6026 297.963 17.4836 298.224 17.4836 298.558C17.4836 298.826 17.5966 299.054 17.8226 299.241C18.0517 299.424 18.4389 299.593 18.9843 299.747C19.5328 299.901 19.9607 300.071 20.2681 300.258C20.5785 300.442 20.8075 300.657 20.9552 300.904C21.1059 301.151 21.1812 301.442 21.1812 301.777C21.1812 302.31 20.9733 302.738 20.5574 303.06C20.1415 303.38 19.5855 303.539 18.8894 303.539C18.4374 303.539 18.0155 303.454 17.6237 303.282C17.232 303.107 16.9291 302.869 16.7152 302.568C16.5042 302.266 16.3987 301.924 16.3987 301.541H17.2711C17.2711 301.939 17.4173 302.254 17.7096 302.486C18.0049 302.715 18.3982 302.83 18.8894 302.83C19.3475 302.83 19.6985 302.736 19.9426 302.549C20.1867 302.363 20.3088 302.108 20.3088 301.786C20.3088 301.463 20.1958 301.215 19.9698 301.04C19.7438 300.862 19.3339 300.687 18.7402 300.515ZM23.5318 301.184L23.0074 301.731V303.449H22.1711V296.506H23.0074V300.705L23.4549 300.167L24.9783 298.558H25.9953L24.0923 300.601L26.2168 303.449H25.2359L23.5318 301.184ZM28.4589 302.224L29.598 298.558H30.493L28.5267 304.204C28.2223 305.018 27.7386 305.424 27.0757 305.424L26.9175 305.411L26.6056 305.352V304.674L26.8316 304.692C27.1148 304.692 27.3348 304.635 27.4915 304.52C27.6513 304.406 27.7823 304.196 27.8848 303.892L28.0701 303.395L26.3253 298.558H27.2384L28.4589 302.224ZM35.3749 301.058C35.3749 301.802 35.2047 302.402 34.8641 302.857C34.5236 303.312 34.0625 303.539 33.4809 303.539C32.8873 303.539 32.4202 303.351 32.0796 302.974V305.329H31.2434V298.558H32.0073L32.048 299.101C32.3885 298.679 32.8616 298.468 33.4674 298.468C34.055 298.468 34.5191 298.689 34.8596 299.132C35.2032 299.575 35.3749 300.191 35.3749 300.981V301.058ZM34.5387 300.963C34.5387 300.411 34.4211 299.976 34.1861 299.657C33.951 299.337 33.6286 299.177 33.2188 299.177C32.7125 299.177 32.3328 299.402 32.0796 299.851V302.188C32.3298 302.634 32.7125 302.857 33.2278 302.857C33.6286 302.857 33.9465 302.699 34.1816 302.382C34.4196 302.063 34.5387 301.59 34.5387 300.963ZM38.4713 303.539C37.8084 303.539 37.2689 303.322 36.8531 302.889C36.4372 302.452 36.2293 301.868 36.2293 301.139V300.985C36.2293 300.5 36.3212 300.068 36.505 299.688C36.6918 299.305 36.951 299.007 37.2825 298.793C37.617 298.576 37.9786 298.468 38.3674 298.468C39.0032 298.468 39.4974 298.677 39.85 299.096C40.2026 299.515 40.3789 300.115 40.3789 300.895V301.243H37.0655C37.0776 301.725 37.2177 302.116 37.4859 302.414C37.7571 302.709 38.1007 302.857 38.5165 302.857C38.8119 302.857 39.062 302.797 39.2669 302.676C39.4718 302.556 39.6511 302.396 39.8048 302.197L40.3156 302.595C39.9058 303.225 39.291 303.539 38.4713 303.539ZM38.3674 299.155C38.0299 299.155 37.7466 299.278 37.5176 299.525C37.2885 299.77 37.1469 300.113 37.0926 300.556H39.5426V300.493C39.5185 300.068 39.404 299.739 39.1991 299.507C38.9942 299.272 38.7169 299.155 38.3674 299.155Z" fill="#9E9E9E"/>
<rect x="16.3932" y="361.744" width="177.318" height="24.2121" rx="3.20454" fill="white" stroke="#E5E5E5" stroke-width="0.71212"/>
<path d="M221.052 376.296C221.034 376.26 221.018 376.231 221.003 376.207C220.756 375.778 220.284 375.251 219.587 374.627L219.572 374.613L219.565 374.606L219.557 374.598H219.55C219.234 374.308 219.033 374.112 218.949 374.012C218.796 373.821 218.762 373.628 218.845 373.433C218.905 373.285 219.127 372.973 219.513 372.497C219.716 372.244 219.876 372.042 219.995 371.889C220.85 370.793 221.221 370.092 221.107 369.787L221.063 369.716C221.033 369.673 220.957 369.634 220.833 369.598C220.709 369.562 220.551 369.557 220.358 369.58L218.223 369.595C218.188 369.583 218.139 369.584 218.075 369.598C218.01 369.612 217.978 369.62 217.978 369.62L217.941 369.638L217.911 369.659C217.887 369.673 217.86 369.698 217.83 369.734C217.8 369.77 217.776 369.811 217.756 369.859C217.523 370.436 217.259 370.972 216.962 371.467C216.779 371.763 216.611 372.019 216.458 372.236C216.305 372.453 216.176 372.612 216.072 372.715C215.969 372.817 215.875 372.899 215.791 372.961C215.707 373.023 215.642 373.05 215.598 373.04C215.553 373.031 215.511 373.021 215.472 373.011C215.403 372.969 215.347 372.91 215.305 372.836C215.263 372.762 215.234 372.67 215.22 372.558C215.205 372.445 215.196 372.349 215.194 372.268C215.191 372.187 215.192 372.073 215.197 371.925C215.203 371.777 215.205 371.677 215.205 371.625C215.205 371.444 215.209 371.247 215.216 371.035C215.223 370.823 215.229 370.655 215.235 370.531C215.24 370.407 215.242 370.276 215.242 370.138C215.242 370 215.233 369.891 215.216 369.813C215.199 369.734 215.173 369.658 215.138 369.584C215.104 369.51 215.053 369.453 214.986 369.412C214.92 369.372 214.837 369.34 214.738 369.316C214.476 369.258 214.142 369.228 213.737 369.223C212.817 369.213 212.226 369.27 211.964 369.394C211.861 369.447 211.767 369.518 211.683 369.609C211.594 369.714 211.581 369.771 211.645 369.78C211.942 369.823 212.152 369.926 212.276 370.088L212.32 370.173C212.355 370.235 212.39 370.345 212.424 370.502C212.459 370.66 212.481 370.833 212.491 371.024C212.516 371.372 212.516 371.67 212.491 371.918C212.466 372.165 212.443 372.358 212.42 372.497C212.398 372.635 212.365 372.747 212.32 372.833C212.276 372.918 212.246 372.971 212.231 372.99C212.216 373.009 212.204 373.021 212.194 373.026C212.13 373.049 212.063 373.061 211.994 373.061C211.925 373.061 211.841 373.028 211.742 372.961C211.643 372.894 211.54 372.803 211.434 372.686C211.328 372.569 211.208 372.406 211.074 372.196C210.941 371.987 210.803 371.739 210.659 371.453L210.541 371.246C210.466 371.112 210.365 370.918 210.237 370.663C210.108 370.408 209.994 370.161 209.896 369.923C209.856 369.823 209.797 369.747 209.718 369.694L209.68 369.673C209.656 369.654 209.616 369.634 209.562 369.612C209.507 369.591 209.451 369.575 209.391 369.566L207.359 369.58C207.152 369.58 207.011 369.625 206.937 369.716L206.907 369.759C206.892 369.783 206.885 369.821 206.885 369.873C206.885 369.926 206.9 369.99 206.929 370.066C207.226 370.738 207.548 371.386 207.897 372.01C208.245 372.635 208.548 373.138 208.805 373.519C209.062 373.9 209.324 374.26 209.591 374.598C209.858 374.936 210.035 375.153 210.121 375.249C210.208 375.344 210.276 375.415 210.325 375.463L210.511 375.635C210.63 375.749 210.804 375.886 211.034 376.046C211.264 376.205 211.518 376.362 211.797 376.517C212.077 376.672 212.402 376.799 212.773 376.896C213.143 376.994 213.504 377.033 213.855 377.014H214.708C214.881 377 215.012 376.947 215.101 376.857L215.131 376.821C215.15 376.793 215.169 376.749 215.186 376.689C215.204 376.629 215.212 376.564 215.212 376.492C215.207 376.288 215.223 376.103 215.26 375.939C215.297 375.774 215.339 375.65 215.386 375.567C215.434 375.483 215.487 375.413 215.546 375.356C215.605 375.299 215.647 375.264 215.672 375.252C215.697 375.24 215.716 375.232 215.731 375.227C215.85 375.189 215.989 375.226 216.15 375.338C216.311 375.45 216.462 375.589 216.603 375.753C216.744 375.917 216.913 376.102 217.111 376.307C217.308 376.512 217.481 376.664 217.63 376.764L217.778 376.85C217.877 376.907 218.005 376.96 218.164 377.007C218.322 377.055 218.46 377.067 218.579 377.043L220.477 377.015C220.665 377.015 220.811 376.985 220.915 376.925C221.018 376.866 221.08 376.8 221.1 376.729C221.12 376.657 221.121 376.576 221.104 376.485C221.086 376.395 221.069 376.332 221.052 376.296Z" fill="#467FC1"/>
<path d="M16.801 354.722V348.14H18.9527C19.6669 348.14 20.2033 348.288 20.5619 348.583C20.9235 348.879 21.1044 349.315 21.1044 349.894C21.1044 350.201 21.017 350.474 20.8422 350.712C20.6674 350.947 20.4293 351.13 20.128 351.259C20.4836 351.359 20.7638 351.548 20.9688 351.829C21.1767 352.106 21.2807 352.437 21.2807 352.823C21.2807 353.414 21.0893 353.878 20.7066 354.215C20.3239 354.553 19.7829 354.722 19.0838 354.722H16.801ZM17.6689 351.643V354.012H19.1019C19.5057 354.012 19.8236 353.908 20.0557 353.7C20.2907 353.489 20.4082 353.2 20.4082 352.832C20.4082 352.04 19.9773 351.643 19.1154 351.643H17.6689ZM17.6689 350.947H18.9798C19.3595 350.947 19.6624 350.852 19.8884 350.663C20.1174 350.473 20.2319 350.215 20.2319 349.89C20.2319 349.528 20.1265 349.266 19.9155 349.103C19.7046 348.937 19.3836 348.854 18.9527 348.854H17.6689V350.947ZM23.9612 352.638H23.3509V354.722H22.5102V349.831H23.3509V351.901H23.8979L25.5433 349.831H26.5558L24.6211 352.181L26.7186 354.722H25.6563L23.9612 352.638ZM27.1164 352.231C27.1164 351.752 27.2098 351.321 27.3966 350.938C27.5865 350.556 27.8486 350.26 28.1831 350.052C28.5207 349.844 28.9049 349.74 29.3358 349.74C30.0018 349.74 30.5397 349.971 30.9496 350.432C31.3624 350.893 31.5688 351.506 31.5688 352.272V352.331C31.5688 352.807 31.4769 353.235 31.2931 353.614C31.1123 353.991 30.8516 354.285 30.5111 354.496C30.1736 354.707 29.7848 354.812 29.3449 354.812C28.6819 354.812 28.144 354.582 27.7311 354.121C27.3213 353.659 27.1164 353.049 27.1164 352.29V352.231ZM27.9571 352.331C27.9571 352.873 28.0822 353.308 28.3323 353.637C28.5854 353.965 28.923 354.13 29.3449 354.13C29.7698 354.13 30.1073 353.964 30.3574 353.632C30.6075 353.298 30.7326 352.831 30.7326 352.231C30.7326 351.695 30.6045 351.261 30.3484 350.929C30.0952 350.595 29.7577 350.427 29.3358 350.427C28.923 350.427 28.59 350.592 28.3368 350.92C28.0837 351.249 27.9571 351.719 27.9571 352.331ZM36.6135 354.722H35.7772V352.633H33.5307V354.722H32.6899V349.831H33.5307V351.951H35.7772V349.831H36.6135V354.722ZM41.5949 350.509H39.954V354.722H39.1177V350.509H37.5085V349.831H41.5949V350.509ZM45.3557 354.722C45.3075 354.625 45.2684 354.454 45.2382 354.206C44.8495 354.61 44.3854 354.812 43.846 354.812C43.3638 354.812 42.9675 354.677 42.6571 354.405C42.3497 354.131 42.1961 353.785 42.1961 353.366C42.1961 352.856 42.3889 352.462 42.7747 352.181C43.1634 351.898 43.7089 351.756 44.411 351.756H45.2247V351.372C45.2247 351.08 45.1373 350.848 44.9625 350.676C44.7877 350.501 44.53 350.414 44.1895 350.414C43.8912 350.414 43.641 350.489 43.4391 350.64C43.2372 350.791 43.1363 350.973 43.1363 351.187H42.2955C42.2955 350.943 42.3814 350.708 42.5532 350.482C42.7279 350.253 42.963 350.072 43.2583 349.939C43.5567 349.807 43.8836 349.74 44.2392 349.74C44.8028 349.74 45.2442 349.882 45.5637 350.165C45.8831 350.446 46.0489 350.833 46.0609 351.327V353.578C46.0609 354.027 46.1182 354.384 46.2327 354.649V354.722H45.3557ZM43.968 354.084C44.2302 354.084 44.4788 354.017 44.7139 353.881C44.9489 353.745 45.1192 353.569 45.2247 353.352V352.349H44.5692C43.5446 352.349 43.0323 352.648 43.0323 353.248C43.0323 353.51 43.1197 353.715 43.2945 353.863C43.4693 354.011 43.6938 354.084 43.968 354.084ZM48.8951 352.638H48.2849V354.722H47.4441V349.831H48.2849V351.901H48.8319L50.4772 349.831H51.4898L49.5551 352.181L51.6525 354.722H50.5902L48.8951 352.638ZM56.0056 350.509H54.3647V354.722H53.5284V350.509H51.9192V349.831H56.0056V350.509ZM58.4872 354.812C57.8242 354.812 57.2848 354.595 56.8689 354.161C56.4531 353.724 56.2451 353.141 56.2451 352.412V352.258C56.2451 351.773 56.337 351.341 56.5209 350.961C56.7077 350.578 56.9669 350.28 57.2984 350.066C57.6329 349.849 57.9945 349.74 58.3832 349.74C59.0191 349.74 59.5133 349.95 59.8659 350.369C60.2185 350.788 60.3948 351.387 60.3948 352.168V352.516H57.0814C57.0934 352.998 57.2336 353.388 57.5018 353.687C57.773 353.982 58.1165 354.13 58.5324 354.13C58.8277 354.13 59.0779 354.069 59.2828 353.949C59.4877 353.828 59.667 353.669 59.8207 353.47L60.3315 353.867C59.9216 354.497 59.3069 354.812 58.4872 354.812ZM58.3832 350.427C58.0457 350.427 57.7624 350.551 57.5334 350.798C57.3044 351.042 57.1628 351.386 57.1085 351.829H59.5585V351.765C59.5344 351.341 59.4199 351.012 59.215 350.78C59.01 350.545 58.7328 350.427 58.3832 350.427Z" fill="#9E9E9E"/>
<rect x="5.35352" y="74.404" width="227.878" height="0.71212" fill="#EFEFEF"/>
<path d="M82.9896 54.0345L84.8881 59.0792L86.7821 54.0345H88.2602V60.6161H87.1211V58.4463L87.2341 55.5443L85.2904 60.6161H84.4722L82.533 55.5488L82.646 58.4463V60.6161H81.5069V54.0345H82.9896ZM91.664 60.7065C90.9679 60.7065 90.4028 60.488 89.9689 60.0511C89.538 59.6111 89.3225 59.0265 89.3225 58.2972V58.1616C89.3225 57.6734 89.4159 57.2379 89.6027 56.8552C89.7926 56.4695 90.0578 56.1696 90.3983 55.9557C90.7388 55.7417 91.1185 55.6347 91.5374 55.6347C92.2034 55.6347 92.7172 55.8472 93.0788 56.2721C93.4435 56.697 93.6258 57.2982 93.6258 58.0757V58.5187H90.43C90.4631 58.9225 90.5972 59.2419 90.8323 59.477C91.0703 59.712 91.3687 59.8296 91.7273 59.8296C92.2305 59.8296 92.6404 59.6261 92.9568 59.2193L93.549 59.7844C93.3531 60.0767 93.0909 60.3042 92.7624 60.4669C92.437 60.6266 92.0708 60.7065 91.664 60.7065ZM91.5329 56.5162C91.2316 56.5162 90.9875 56.6217 90.8006 56.8326C90.6168 57.0435 90.4993 57.3374 90.448 57.7141H92.5409V57.6327C92.5168 57.265 92.4189 56.9878 92.2471 56.801C92.0753 56.6111 91.8373 56.5162 91.5329 56.5162ZM96.4917 59.8296C96.7659 59.8296 96.9934 59.7497 97.1742 59.59C97.355 59.4303 97.4515 59.2329 97.4635 58.9978H98.4987C98.4866 59.3022 98.3917 59.587 98.2139 59.8522C98.0361 60.1143 97.795 60.3223 97.4907 60.476C97.1863 60.6296 96.8578 60.7065 96.5052 60.7065C95.8212 60.7065 95.2787 60.485 94.8779 60.042C94.4771 59.599 94.2767 58.9873 94.2767 58.2068V58.0938C94.2767 57.3494 94.4756 56.7543 94.8734 56.3082C95.2712 55.8592 95.8136 55.6347 96.5007 55.6347C97.0823 55.6347 97.5554 55.805 97.9201 56.1455C98.2877 56.483 98.4806 56.9275 98.4987 57.479H97.4635C97.4515 57.1987 97.355 56.9682 97.1742 56.7874C96.9964 56.6066 96.7689 56.5162 96.4917 56.5162C96.1361 56.5162 95.8618 56.6458 95.669 56.9049C95.4761 57.1611 95.3782 57.5513 95.3752 58.0757V58.252C95.3752 58.7824 95.4701 59.1786 95.6599 59.4408C95.8528 59.7 96.13 59.8296 96.4917 59.8296ZM101.337 59.8296C101.612 59.8296 101.839 59.7497 102.02 59.59C102.201 59.4303 102.297 59.2329 102.309 58.9978H103.344C103.332 59.3022 103.237 59.587 103.06 59.8522C102.882 60.1143 102.641 60.3223 102.336 60.476C102.032 60.6296 101.704 60.7065 101.351 60.7065C100.667 60.7065 100.124 60.485 99.7237 60.042C99.3229 59.599 99.1225 58.9873 99.1225 58.2068V58.0938C99.1225 57.3494 99.3214 56.7543 99.7192 56.3082C100.117 55.8592 100.659 55.6347 101.346 55.6347C101.928 55.6347 102.401 55.805 102.766 56.1455C103.133 56.483 103.326 56.9275 103.344 57.479H102.309C102.297 57.1987 102.201 56.9682 102.02 56.7874C101.842 56.6066 101.615 56.5162 101.337 56.5162C100.982 56.5162 100.708 56.6458 100.515 56.9049C100.322 57.1611 100.224 57.5513 100.221 58.0757V58.252C100.221 58.7824 100.316 59.1786 100.506 59.4408C100.699 59.7 100.976 59.8296 101.337 59.8296ZM106.328 60.7065C105.632 60.7065 105.067 60.488 104.633 60.0511C104.202 59.6111 103.986 59.0265 103.986 58.2972V58.1616C103.986 57.6734 104.08 57.2379 104.267 56.8552C104.456 56.4695 104.722 56.1696 105.062 55.9557C105.403 55.7417 105.782 55.6347 106.201 55.6347C106.867 55.6347 107.381 55.8472 107.743 56.2721C108.107 56.697 108.29 57.2982 108.29 58.0757V58.5187H105.094C105.127 58.9225 105.261 59.2419 105.496 59.477C105.734 59.712 106.033 59.8296 106.391 59.8296C106.894 59.8296 107.304 59.6261 107.621 59.2193L108.213 59.7844C108.017 60.0767 107.755 60.3042 107.426 60.4669C107.101 60.6266 106.735 60.7065 106.328 60.7065ZM106.197 56.5162C105.895 56.5162 105.651 56.6217 105.464 56.8326C105.281 57.0435 105.163 57.3374 105.112 57.7141H107.205V57.6327C107.181 57.265 107.083 56.9878 106.911 56.801C106.739 56.6111 106.501 56.5162 106.197 56.5162ZM113.289 60.6161H112.191V58.6407H110.288V60.6161H109.189V55.7251H110.288V57.7638H112.191V55.7251H113.289V60.6161ZM114.482 59.7392C114.787 59.3986 114.99 59.0762 115.093 58.7718C115.198 58.4644 115.261 58.0727 115.283 57.5965L115.346 55.7251H118.741V59.7392H119.419V62.0716H118.325V60.6161H115.188V62.0716H114.076L114.08 59.7392H114.482ZM115.771 59.7392H117.647V56.6699H116.413L116.381 57.6056C116.339 58.5036 116.135 59.2148 115.771 59.7392ZM124.508 58.6498H123.925V60.6161H122.827V58.6498H122.248L121.123 60.6161H119.776L121.399 58.0712L119.862 55.7251H121.204L122.312 57.6463H122.827V55.7251H123.925V57.6463H124.445L125.557 55.7251H126.9L125.367 58.0576L126.999 60.6161H125.634L124.508 58.6498ZM129.743 60.7065C129.047 60.7065 128.482 60.488 128.048 60.0511C127.617 59.6111 127.401 59.0265 127.401 58.2972V58.1616C127.401 57.6734 127.495 57.2379 127.682 56.8552C127.872 56.4695 128.137 56.1696 128.477 55.9557C128.818 55.7417 129.198 55.6347 129.616 55.6347C130.282 55.6347 130.796 55.8472 131.158 56.2721C131.522 56.697 131.705 57.2982 131.705 58.0757V58.5187H128.509C128.542 58.9225 128.676 59.2419 128.911 59.477C129.149 59.712 129.448 59.8296 129.806 59.8296C130.31 59.8296 130.719 59.6261 131.036 59.2193L131.628 59.7844C131.432 60.0767 131.17 60.3042 130.841 60.4669C130.516 60.6266 130.15 60.7065 129.743 60.7065ZM129.612 56.5162C129.311 56.5162 129.066 56.6217 128.88 56.8326C128.696 57.0435 128.578 57.3374 128.527 57.7141H130.62V57.6327C130.596 57.265 130.498 56.9878 130.326 56.801C130.154 56.6111 129.916 56.5162 129.612 56.5162ZM136.844 58.2203C136.844 58.9767 136.673 59.5809 136.329 60.033C135.985 60.482 135.524 60.7065 134.946 60.7065C134.409 60.7065 133.98 60.5302 133.658 60.1776V62.4965H132.559V55.7251H133.572L133.617 56.2224C133.939 55.8306 134.378 55.6347 134.932 55.6347C135.529 55.6347 135.996 55.8577 136.334 56.3037C136.674 56.7467 136.844 57.363 136.844 58.1525V58.2203ZM135.75 58.1254C135.75 57.6372 135.652 57.25 135.457 56.9637C135.264 56.6774 134.987 56.5343 134.625 56.5343C134.176 56.5343 133.853 56.7196 133.658 57.0903V59.26C133.856 59.6397 134.182 59.8296 134.634 59.8296C134.983 59.8296 135.256 59.6894 135.452 59.4092C135.651 59.1259 135.75 58.698 135.75 58.1254ZM138.96 57.2801H140.036C140.436 57.2801 140.786 57.3494 141.084 57.488C141.383 57.6267 141.609 57.821 141.762 58.0712C141.919 58.3213 141.997 58.6121 141.997 58.9436C141.997 59.4468 141.82 59.8507 141.464 60.155C141.108 60.4594 140.635 60.6131 140.045 60.6161H137.861V55.7251H138.96V57.2801ZM143.91 60.6161H142.811V55.7251H143.91V60.6161ZM138.96 58.1616V59.7392H140.031C140.299 59.7392 140.51 59.6729 140.664 59.5403C140.821 59.4046 140.899 59.2133 140.899 58.9662C140.899 58.7191 140.822 58.5247 140.669 58.3831C140.518 58.2384 140.313 58.1646 140.054 58.1616H138.96Z" fill="black"/>
<rect x="5.35742" y="10.3137" width="227.878" height="28.4848" fill="black"/>
<path d="M224.504 29.1875C224.748 29.4311 224.748 29.8261 224.504 30.0698C224.261 30.3134 223.866 30.3134 223.622 30.0698L218.99 25.4378L214.358 30.0698C214.114 30.3134 213.719 30.3134 213.476 30.0698C213.232 29.8261 213.232 29.4311 213.476 29.1875L218.108 24.5555L213.476 19.9236C213.232 19.6799 213.232 19.2849 213.476 19.0413C213.719 18.7976 214.114 18.7976 214.358 19.0413L218.99 23.6732L223.622 19.0413C223.866 18.7976 224.261 18.7976 224.504 19.0413C224.748 19.2849 224.748 19.6799 224.504 19.9236L219.872 24.5555L224.504 29.1875Z" fill="white"/>
<path d="M22.722 20.6262L26.2346 22.6776L20.673 22.6776C19.5414 22.6776 18.624 23.596 18.624 24.729C18.624 25.862 19.5414 26.7804 20.673 26.7804H25.6492C26.6815 26.7804 27.5354 26.0162 27.6775 25.0221H28.856C28.7081 26.6651 27.3288 27.9526 25.6492 27.9526H20.673C18.8947 27.9526 17.4531 26.5094 17.4531 24.729C17.4531 22.9486 18.8947 21.5054 20.673 21.5054H22.722V20.6262Z" fill="white"/>
<path d="M29.4414 28.5388H24.1856L27.4055 30.5902V29.711H29.4414C31.2197 29.711 32.6613 28.2677 32.6613 26.4873C32.6613 24.707 31.2197 23.2637 29.4414 23.2637H24.4652C22.7856 23.2637 21.4063 24.5513 21.2584 26.1943H22.4369C22.579 25.2002 23.4329 24.4359 24.4652 24.4359H29.4414C30.573 24.4359 31.4904 25.3544 31.4904 26.4873C31.4904 27.6203 30.573 28.5388 29.4414 28.5388Z" fill="white"/>
<path d="M57.1771 29.0169V23.8147H58.7189V29.0169H57.1771Z" fill="white"/>
<path d="M57.9428 23.049C57.684 23.049 57.4708 22.9756 57.303 22.8288C57.1352 22.675 57.0512 22.4792 57.0512 22.2414C57.0512 22.0037 57.1352 21.8114 57.303 21.6646C57.4708 21.5177 57.684 21.4443 57.9428 21.4443C58.2085 21.4443 58.4217 21.5177 58.5825 21.6646C58.7504 21.8114 58.8343 22.0037 58.8343 22.2414C58.8343 22.4792 58.7504 22.675 58.5825 22.8288C58.4217 22.9756 58.2085 23.049 57.9428 23.049Z" fill="white"/>
<path fill-rule="evenodd" clip-rule="evenodd" d="M48.4836 29.1428C48.2529 29.1428 48.0186 29.0869 47.7809 28.975C47.5502 28.8561 47.3334 28.6848 47.1306 28.4611H47.0887L46.9628 29.0169H45.7566V21.6646H47.2984V23.4686L47.2565 24.2657C47.4593 24.0839 47.676 23.9441 47.9068 23.8462C48.1445 23.7413 48.3857 23.6888 48.6305 23.6888C48.9451 23.6888 49.2283 23.7518 49.48 23.8776C49.7317 24.0035 49.945 24.1818 50.1198 24.4125C50.3016 24.6363 50.438 24.9125 50.5289 25.2411C50.6268 25.5628 50.6757 25.9229 50.6757 26.3214C50.6757 26.7689 50.6128 27.1675 50.4869 27.5171C50.368 27.8667 50.2037 28.1639 49.9939 28.4086C49.7912 28.6463 49.5569 28.8281 49.2912 28.954C49.0325 29.0799 48.7633 29.1428 48.4836 29.1428ZM48.127 27.8842C48.3927 27.8842 48.62 27.7653 48.8088 27.5276C48.9976 27.2829 49.0919 26.8913 49.0919 26.3529C49.0919 25.4159 48.7913 24.9474 48.1899 24.9474C47.8823 24.9474 47.5851 25.1048 47.2984 25.4194V27.5486C47.4383 27.6744 47.5781 27.7618 47.718 27.8108C47.8578 27.8597 47.9942 27.8842 48.127 27.8842Z" fill="white"/>
<path fill-rule="evenodd" clip-rule="evenodd" d="M41.4921 29.1428C41.0306 29.1428 40.6076 29.0624 40.223 28.9016C39.8455 28.7338 39.5203 28.496 39.2476 28.1884C38.9749 27.8807 38.7617 27.5066 38.6078 27.0661C38.461 26.6256 38.3876 26.1256 38.3876 25.5663C38.3876 25.0069 38.461 24.5104 38.6078 24.0769C38.7617 23.6364 38.9749 23.2693 39.2476 22.9756C39.5203 22.675 39.8455 22.4477 40.223 22.2939C40.6076 22.1331 41.0306 22.0527 41.4921 22.0527C41.9536 22.0527 42.3732 22.1331 42.7507 22.2939C43.1353 22.4477 43.4639 22.675 43.7366 22.9756C44.0093 23.2763 44.2191 23.6469 44.3659 24.0874C44.5198 24.5209 44.5967 25.0139 44.5967 25.5663C44.5967 26.1256 44.5198 26.6256 44.3659 27.0661C44.2191 27.5066 44.0093 27.8807 43.7366 28.1884C43.4639 28.496 43.1353 28.7338 42.7507 28.9016C42.3732 29.0624 41.9536 29.1428 41.4921 29.1428ZM41.4921 27.8108C41.9606 27.8108 42.3312 27.6115 42.6039 27.2129C42.8766 26.8074 43.0129 26.2585 43.0129 25.5663C43.0129 24.881 42.8766 24.3461 42.6039 23.9615C42.3312 23.577 41.9606 23.3847 41.4921 23.3847C41.0237 23.3847 40.6531 23.577 40.3804 23.9615C40.1077 24.3461 39.9713 24.881 39.9713 25.5663C39.9713 26.2585 40.1077 26.8074 40.3804 27.2129C40.6531 27.6115 41.0237 27.8108 41.4921 27.8108Z" fill="white"/>
<path d="M51.1312 23.8147L52.8828 29.0169H54.6658L56.3649 23.8147H54.886L54.2043 26.269C54.1344 26.5277 54.0645 26.7934 53.9945 27.0661C53.9316 27.3318 53.8687 27.601 53.8057 27.8737H53.7638C53.6939 27.601 53.6239 27.3318 53.554 27.0661C53.4911 26.7934 53.4247 26.5277 53.3547 26.269L52.6835 23.8147H51.1312Z" fill="white"/>
<path d="M60.296 28.8701C60.4778 29.0519 60.7016 29.1428 60.9673 29.1428C61.233 29.1428 61.4532 29.0519 61.628 28.8701C61.8098 28.6813 61.9007 28.4506 61.9007 28.1779C61.9007 27.8982 61.8098 27.6674 61.628 27.4856C61.4532 27.2968 61.233 27.2024 60.9673 27.2024C60.7016 27.2024 60.4778 27.2968 60.296 27.4856C60.1212 27.6674 60.0338 27.8982 60.0338 28.1779C60.0338 28.4506 60.1212 28.6813 60.296 28.8701Z" fill="white"/>
<path d="M64.6361 29.1428C64.3704 29.1428 64.1467 29.1008 63.9649 29.0169C63.7831 28.933 63.6362 28.8177 63.5244 28.6708C63.4195 28.517 63.3426 28.3352 63.2936 28.1254C63.2447 27.9087 63.2202 27.6674 63.2202 27.4017V21.6646H64.762V27.4647C64.762 27.6255 64.79 27.7374 64.8459 27.8003C64.9088 27.8632 64.9718 27.8947 65.0347 27.8947H65.1186C65.1466 27.8947 65.1815 27.8877 65.2235 27.8737L65.4123 29.0169C65.3284 29.0519 65.22 29.0799 65.0871 29.1008C64.9613 29.1288 64.811 29.1428 64.6361 29.1428Z" fill="white"/>
<path d="M66.2213 23.8147V29.0169H67.7631V23.8147H66.2213Z" fill="white"/>
<path d="M66.3471 22.8288C66.515 22.9756 66.7282 23.049 66.9869 23.049C67.2526 23.049 67.4659 22.9756 67.6267 22.8288C67.7945 22.675 67.8784 22.4792 67.8784 22.2414C67.8784 22.0037 67.7945 21.8114 67.6267 21.6646C67.4659 21.5177 67.2526 21.4443 66.9869 21.4443C66.7282 21.4443 66.515 21.5177 66.3471 21.6646C66.1793 21.8114 66.0954 22.0037 66.0954 22.2414C66.0954 22.4792 66.1793 22.675 66.3471 22.8288Z" fill="white"/>
<path d="M69.1199 29.0169V23.8147H70.3785L70.4834 24.4755H70.5254C70.7491 24.2657 70.9939 24.0839 71.2596 23.9301C71.5253 23.7693 71.8364 23.6888 72.193 23.6888C72.7594 23.6888 73.1684 23.8741 73.4202 24.2447C73.6789 24.6153 73.8082 25.1292 73.8082 25.7865V29.0169H72.2664V25.9858C72.2664 25.6082 72.214 25.3495 72.1091 25.2097C72.0112 25.0698 71.8504 24.9999 71.6267 24.9999C71.4309 24.9999 71.2631 25.0453 71.1232 25.1362C70.9834 25.2201 70.8295 25.3425 70.6617 25.5033V29.0169H69.1199Z" fill="white"/>
<path d="M75.1221 21.6646V29.0169H76.6219V27.7374L77.2827 26.9927L78.4574 29.0169H80.125L78.1637 25.9543L79.9887 23.8147H78.3105L76.6639 25.8809H76.6219V21.6646H75.1221Z" fill="white"/>
<rect x="5.35352" y="449.884" width="227.878" height="28.4848" fill="#20AF48"/>
<rect opacity="0.1" width="227.878" height="5.69696" transform="matrix(1 0 0 -1 5.35352 449.884)" fill="url(#paint3_linear_0_18312)"/>
<path d="M101.443 466.054C101.362 466.75 101.104 467.288 100.67 467.667C100.239 468.044 99.6654 468.232 98.9481 468.232C98.1706 468.232 97.5468 467.954 97.0767 467.396C96.6096 466.839 96.3761 466.093 96.3761 465.159V464.526C96.3761 463.914 96.4846 463.376 96.7015 462.912C96.9215 462.448 97.2319 462.092 97.6327 461.845C98.0335 461.595 98.4976 461.47 99.025 461.47C99.7241 461.47 100.285 461.666 100.707 462.058C101.128 462.446 101.374 462.986 101.443 463.676H100.571C100.496 463.152 100.331 462.772 100.078 462.537C99.8281 462.302 99.477 462.184 99.025 462.184C98.4705 462.184 98.035 462.389 97.7186 462.799C97.4052 463.209 97.2485 463.792 97.2485 464.548V465.186C97.2485 465.9 97.3977 466.468 97.696 466.89C97.9943 467.312 98.4117 467.523 98.9481 467.523C99.4303 467.523 99.7995 467.414 100.056 467.197C100.315 466.977 100.487 466.596 100.571 466.054H101.443ZM102.28 465.651C102.28 465.172 102.373 464.741 102.56 464.358C102.75 463.976 103.012 463.68 103.346 463.472C103.684 463.265 104.068 463.161 104.499 463.161C105.165 463.161 105.703 463.391 106.113 463.852C106.526 464.313 106.732 464.926 106.732 465.692V465.751C106.732 466.227 106.64 466.655 106.456 467.034C106.276 467.411 106.015 467.705 105.674 467.916C105.337 468.127 104.948 468.232 104.508 468.232C103.845 468.232 103.307 468.002 102.894 467.541C102.485 467.08 102.28 466.469 102.28 465.71V465.651ZM103.12 465.751C103.12 466.293 103.245 466.729 103.496 467.057C103.749 467.386 104.086 467.55 104.508 467.55C104.933 467.55 105.271 467.384 105.521 467.053C105.771 466.718 105.896 466.251 105.896 465.651C105.896 465.115 105.768 464.681 105.512 464.349C105.258 464.015 104.921 463.848 104.499 463.848C104.086 463.848 103.753 464.012 103.5 464.34C103.247 464.669 103.12 465.139 103.12 465.751ZM109.322 465.036L110.407 463.251H111.383L109.783 465.669L111.433 468.142H110.466L109.336 466.311L108.206 468.142H107.234L108.884 465.669L107.284 463.251H108.251L109.322 465.036ZM116.406 465.751C116.406 466.495 116.235 467.095 115.895 467.55C115.554 468.005 115.093 468.232 114.512 468.232C113.918 468.232 113.451 468.044 113.11 467.667V470.022H112.274V463.251H113.038L113.079 463.793C113.419 463.371 113.892 463.161 114.498 463.161C115.086 463.161 115.55 463.382 115.89 463.825C116.234 464.268 116.406 464.884 116.406 465.674V465.751ZM115.569 465.656C115.569 465.104 115.452 464.669 115.217 464.349C114.982 464.03 114.659 463.87 114.249 463.87C113.743 463.87 113.363 464.095 113.11 464.544V466.881C113.36 467.327 113.743 467.55 114.258 467.55C114.659 467.55 114.977 467.392 115.212 467.075C115.45 466.756 115.569 466.283 115.569 465.656ZM120.492 468.142C120.444 468.045 120.404 467.874 120.374 467.627C119.986 468.03 119.522 468.232 118.982 468.232C118.5 468.232 118.104 468.097 117.793 467.825C117.486 467.551 117.332 467.205 117.332 466.786C117.332 466.277 117.525 465.882 117.911 465.602C118.3 465.318 118.845 465.177 119.547 465.177H120.361V464.792C120.361 464.5 120.273 464.268 120.099 464.096C119.924 463.921 119.666 463.834 119.326 463.834C119.027 463.834 118.777 463.909 118.575 464.06C118.373 464.211 118.272 464.393 118.272 464.607H117.432C117.432 464.363 117.518 464.128 117.689 463.902C117.864 463.673 118.099 463.492 118.394 463.359C118.693 463.227 119.02 463.161 119.375 463.161C119.939 463.161 120.38 463.302 120.7 463.585C121.019 463.866 121.185 464.253 121.197 464.747V466.998C121.197 467.447 121.254 467.804 121.369 468.07V468.142H120.492ZM119.104 467.505C119.366 467.505 119.615 467.437 119.85 467.301C120.085 467.166 120.255 466.989 120.361 466.772V465.769H119.705C118.681 465.769 118.168 466.069 118.168 466.668C118.168 466.93 118.256 467.135 118.431 467.283C118.605 467.431 118.83 467.505 119.104 467.505ZM126.504 468.142H125.668V466.054H123.421V468.142H122.58V463.251H123.421V465.371H125.668V463.251H126.504V468.142ZM131.015 463.251H131.851V468.142H131.015V464.575L128.759 468.142H127.923V463.251H128.759V466.822L131.015 463.251ZM136.828 463.929H135.187V468.142H134.351V463.929H132.742V463.251H136.828V463.929ZM138.555 464.937H139.825C140.38 464.943 140.818 465.088 141.141 465.371C141.463 465.654 141.624 466.038 141.624 466.524C141.624 467.012 141.458 467.404 141.127 467.699C140.796 467.994 140.35 468.142 139.789 468.142H137.719V463.251H138.555V464.937ZM138.555 465.62V467.459H139.798C140.111 467.459 140.354 467.379 140.526 467.22C140.698 467.057 140.783 466.836 140.783 466.555C140.783 466.284 140.699 466.063 140.53 465.891C140.365 465.716 140.131 465.626 139.83 465.62H138.555Z" fill="white"/>
<path d="M38.2382 59.9039H37.3657V56.8618H34.0478V59.9039H33.1799V53.3224H34.0478V56.1521H37.3657V53.3224H38.2382V59.9039ZM42.668 59.9039C42.6198 59.8075 42.5807 59.6357 42.5505 59.3886C42.1618 59.7924 41.6977 59.9943 41.1583 59.9943C40.6761 59.9943 40.2798 59.8587 39.9694 59.5875C39.662 59.3133 39.5084 58.9667 39.5084 58.5478C39.5084 58.0386 39.7012 57.6438 40.087 57.3635C40.4757 57.0803 41.0212 56.9386 41.7233 56.9386H42.537V56.5544C42.537 56.2621 42.4496 56.03 42.2748 55.8583C42.1 55.6835 41.8423 55.5961 41.5018 55.5961C41.2035 55.5961 40.9533 55.6714 40.7514 55.8221C40.5495 55.9728 40.4486 56.1551 40.4486 56.3691H39.6078C39.6078 56.125 39.6937 55.8899 39.8655 55.6639C40.0402 55.4349 40.2753 55.2541 40.5706 55.1215C40.869 54.9889 41.1959 54.9226 41.5515 54.9226C42.1151 54.9226 42.5565 55.0642 42.876 55.3475C43.1954 55.6277 43.3612 56.015 43.3732 56.5092V58.7603C43.3732 59.2093 43.4305 59.5664 43.545 59.8316V59.9039H42.668ZM41.2803 59.2666C41.5425 59.2666 41.7911 59.1988 42.0262 59.0632C42.2612 58.9275 42.4315 58.7513 42.537 58.5343V57.5308H41.8815C40.8569 57.5308 40.3446 57.8306 40.3446 58.4303C40.3446 58.6925 40.432 58.8974 40.6068 59.0451C40.7816 59.1927 41.0061 59.2666 41.2803 59.2666ZM47.3737 56.351C47.3737 56.122 47.2863 55.9411 47.1115 55.8085C46.9367 55.6729 46.6971 55.6051 46.3928 55.6051C46.0974 55.6051 45.8503 55.682 45.6514 55.8357C45.4556 55.9894 45.3576 56.1702 45.3576 56.3781H44.5259C44.5259 55.9532 44.7037 55.6051 45.0593 55.3339C45.4149 55.0627 45.8594 54.9271 46.3928 54.9271C46.9653 54.9271 47.4113 55.0506 47.7308 55.2977C48.0502 55.5418 48.2099 55.8914 48.2099 56.3465C48.2099 56.5664 48.1436 56.7684 48.011 56.9522C47.8784 57.136 47.6901 57.2822 47.446 57.3906C48.0156 57.5835 48.3003 57.9632 48.3003 58.5298C48.3003 58.9788 48.1271 59.3344 47.7805 59.5966C47.4339 59.8587 46.9714 59.9898 46.3928 59.9898C45.8292 59.9898 45.3636 59.8527 44.996 59.5785C44.6314 59.3012 44.449 58.9275 44.449 58.4574H45.2808C45.2808 58.6955 45.3862 58.9004 45.5972 59.0722C45.8112 59.241 46.0763 59.3253 46.3928 59.3253C46.7122 59.3253 46.9699 59.2515 47.1657 59.1038C47.3616 58.9562 47.4596 58.7648 47.4596 58.5298C47.4596 58.2555 47.3767 58.0597 47.2109 57.9421C47.0482 57.8216 46.7936 57.7613 46.447 57.7613H45.6108V57.0561H46.5193C47.0889 57.0411 47.3737 56.806 47.3737 56.351ZM52.4048 59.9039C52.3565 59.8075 52.3174 59.6357 52.2872 59.3886C51.8985 59.7924 51.4344 59.9943 50.895 59.9943C50.4128 59.9943 50.0165 59.8587 49.7061 59.5875C49.3988 59.3133 49.2451 58.9667 49.2451 58.5478C49.2451 58.0386 49.4379 57.6438 49.8237 57.3635C50.2124 57.0803 50.7579 56.9386 51.46 56.9386H52.2737V56.5544C52.2737 56.2621 52.1863 56.03 52.0115 55.8583C51.8367 55.6835 51.5791 55.5961 51.2385 55.5961C50.9402 55.5961 50.6901 55.6714 50.4882 55.8221C50.2862 55.9728 50.1853 56.1551 50.1853 56.3691H49.3445C49.3445 56.125 49.4304 55.8899 49.6022 55.6639C49.777 55.4349 50.012 55.2541 50.3073 55.1215C50.6057 54.9889 50.9327 54.9226 51.2882 54.9226C51.8518 54.9226 52.2933 55.0642 52.6127 55.3475C52.9321 55.6277 53.0979 56.015 53.1099 56.5092V58.7603C53.1099 59.2093 53.1672 59.5664 53.2817 59.8316V59.9039H52.4048ZM51.017 59.2666C51.2792 59.2666 51.5278 59.1988 51.7629 59.0632C51.9979 58.9275 52.1682 58.7513 52.2737 58.5343V57.5308H51.6182C50.5936 57.5308 50.0813 57.8306 50.0813 58.4303C50.0813 58.6925 50.1687 58.8974 50.3435 59.0451C50.5183 59.1927 50.7428 59.2666 51.017 59.2666ZM54.3801 59.2214L54.6694 58.8643C54.9949 58.4424 55.1802 57.8095 55.2254 56.9657L55.3023 55.013H58.4529V59.2214H59.0812V61.3414H58.245V59.9039H54.8322V61.3414H53.9959L54.0004 59.2214H54.3801ZM55.3701 59.2214H57.6167V55.7859H56.1114L56.0617 56.9522C56.0104 57.9255 55.7799 58.6819 55.3701 59.2214Z" fill="black"/>
<rect x="16.3951" y="46.2752" width="53.409" height="20.6515" rx="3.20454" stroke="#D6D6D6" stroke-width="0.71212"/>
<path d="M23.2774 56.2076C23.3041 56.1666 23.3354 56.1277 23.3714 56.0917L25.5028 53.961C25.781 53.6829 26.232 53.6829 26.5102 53.961C26.7884 54.2391 26.7884 54.69 26.5102 54.9681L24.8768 56.601L26.5099 58.2337C26.7881 58.5118 26.7881 58.9627 26.5099 59.2408C26.2318 59.5189 25.7807 59.5189 25.5025 59.2408L23.3668 57.1057C23.1226 56.8616 23.0928 56.4843 23.2774 56.2076Z" fill="black"/>
</g>
<path d="M2.85742 23.5685C2.85742 12.3474 11.3261 3.25098 21.7727 3.25098H216.222C226.669 3.25098 235.137 12.3474 235.137 23.5685V474.618C235.137 485.839 226.669 494.935 216.222 494.935H21.7727C11.3261 494.935 2.85742 485.839 2.85742 474.618V23.5685Z" fill="url(#paint4_linear_0_18312)"/>
<path d="M235.137 23.5685C235.137 12.3474 226.669 3.25098 216.222 3.25098H21.7727C11.3261 3.25098 2.85742 12.3474 2.85742 23.5685V474.618C2.85742 485.839 11.3261 494.935 21.7727 494.935H216.222C226.669 494.935 235.137 485.839 235.137 474.618V23.5685Z" fill="url(#paint5_linear_0_18312)"/>
<defs>
<linearGradient id="paint0_linear_0_18312" x1="118.997" y1="-0.802609" x2="118.997" y2="18.4516" gradientUnits="userSpaceOnUse">
<stop/>
<stop offset="1" stop-color="#3A3A3A" stop-opacity="0"/>
</linearGradient>
<linearGradient id="paint1_linear_0_18312" x1="118.997" y1="499.004" x2="118.997" y2="479.75" gradientUnits="userSpaceOnUse">
<stop/>
<stop offset="1" stop-color="#3A3A3A" stop-opacity="0"/>
</linearGradient>
<linearGradient id="paint2_linear_0_18312" x1="-83.8918" y1="808.353" x2="193.669" y2="-110.41" gradientUnits="userSpaceOnUse">
<stop stop-color="#FC5980"/>
<stop offset="1" stop-color="#3300FF"/>
</linearGradient>
<linearGradient id="paint3_linear_0_18312" x1="113.939" y1="0" x2="113.939" y2="5.69696" gradientUnits="userSpaceOnUse">
<stop/>
<stop offset="1" stop-color="white" stop-opacity="0"/>
</linearGradient>
<linearGradient id="paint4_linear_0_18312" x1="-18.2589" y1="494.935" x2="264.074" y2="494.935" gradientUnits="userSpaceOnUse">
<stop stop-color="#FDFDFD"/>
<stop offset="0.116343" stop-color="white" stop-opacity="0"/>
</linearGradient>
<linearGradient id="paint5_linear_0_18312" x1="256.254" y1="494.935" x2="-26.0798" y2="494.935" gradientUnits="userSpaceOnUse">
<stop stop-color="#FDFDFD"/>
<stop offset="0.116343" stop-color="white" stop-opacity="0"/>
</linearGradient>
</defs>
</svg>
