<svg width="238" height="497" viewBox="0 0 238 497" fill="none" xmlns="http://www.w3.org/2000/svg">
<path d="M0.166016 98.9933C0.166016 97.65 1.18159 96.561 2.43436 96.561C3.68714 96.561 4.70271 97.65 4.70271 98.9933V158.99C4.70271 160.333 3.68714 161.422 2.43436 161.422C1.18159 161.422 0.166016 160.333 0.166016 158.99V98.9933Z" fill="#161616"/>
<path d="M0.166016 176.827C0.166016 175.484 1.18159 174.395 2.43436 174.395C3.68714 174.395 4.70271 175.484 4.70271 176.827V197.907C4.70271 199.25 3.68714 200.339 2.43436 200.339C1.18159 200.339 0.166016 199.25 0.166016 197.907V176.827Z" fill="#161616"/>
<path d="M233.05 93.3179C233.05 91.9746 234.065 90.8856 235.318 90.8856C236.571 90.8856 237.586 91.9746 237.586 93.3179V114.398C237.586 115.741 236.571 116.83 235.318 116.83C234.065 116.83 233.05 115.741 233.05 114.398V93.3179Z" fill="#161616"/>
<path d="M1.67825 20.2692C1.67825 9.07482 10.1414 0 20.5811 0H217.171C227.611 0 236.074 9.07482 236.074 20.2692V476.731C236.074 487.925 227.611 497 217.171 497H20.5811C10.1414 497 1.67825 487.925 1.67825 476.731V20.2692Z" fill="#161616"/>
<path d="M3.18945 23.4702C3.18945 12.2759 11.6526 3.20105 22.0924 3.20105H215.658C226.098 3.20105 234.561 12.2759 234.561 23.4702V473.529C234.561 484.724 226.098 493.798 215.658 493.798H22.0924C11.6526 493.798 3.18945 484.724 3.18945 473.529V23.4702Z" fill="url(#paint0_linear_0_19106)"/>
<path d="M3.18945 473.529C3.18945 484.724 11.6526 493.798 22.0924 493.798H215.658C226.098 493.798 234.561 484.724 234.561 473.529V23.4702C234.561 12.2759 226.098 3.20105 215.658 3.20105H22.0924C11.6526 3.20105 3.18945 12.2759 3.18945 23.4702V473.529Z" fill="url(#paint1_linear_0_19106)"/>
<mask id="mask0_0_19106" style="mask-type:alpha" maskUnits="userSpaceOnUse" x="5" y="10" width="229" height="468">
<path d="M5.45898 23.5122C5.45898 16.3478 10.8754 10.5399 17.5568 10.5399H220.952C227.633 10.5399 233.05 16.3478 233.05 23.5122V464.569C233.05 471.734 227.633 477.542 220.952 477.542H17.5568C10.8754 477.542 5.45898 471.734 5.45898 464.569V23.5122Z" fill="#CFCFCF"/>
</mask>
<g mask="url(#mask0_0_19106)">
<path d="M3.18945 23.5122C3.18945 12.3178 11.6526 3.24304 22.0924 3.24304H215.658C226.098 3.24304 234.561 12.3179 234.561 23.5122V473.488C234.561 484.682 226.098 493.757 215.658 493.757H22.0924C11.6526 493.757 3.18945 484.682 3.18945 473.488V23.5122Z" fill="url(#paint2_linear_0_19106)"/>
<rect width="227.36" height="474.841" transform="translate(5.47656 10.2883)" fill="white"/>
<rect x="5.47852" y="74.233" width="227.359" height="0.710496" fill="#EFEFEF"/>
<rect x="5.70508" y="375.124" width="227.132" height="110.005" fill="white"/>
<path d="M82.9378 53.9305L84.832 58.9637L86.7216 53.9305H88.1964V60.4971H87.0599V58.3323L87.1726 55.4369L85.2333 60.4971H84.417L82.4823 55.4414L82.595 58.3323V60.4971H81.4585V53.9305H82.9378ZM89.2382 58.0121C89.2382 57.534 89.3329 57.1041 89.5223 56.7222C89.7118 56.3374 89.9779 56.0427 90.3206 55.8383C90.6634 55.6308 91.0572 55.5271 91.5022 55.5271C92.1607 55.5271 92.6944 55.739 93.1033 56.163C93.5152 56.5869 93.7377 57.1492 93.7707 57.8497L93.7753 58.1068C93.7753 58.5878 93.6821 59.0178 93.4956 59.3966C93.3122 59.7755 93.0476 60.0686 92.7019 60.2761C92.3591 60.4835 91.9622 60.5873 91.5112 60.5873C90.8227 60.5873 90.271 60.3588 89.8561 59.9018C89.4442 59.4417 89.2382 58.8299 89.2382 58.0662V58.0121ZM90.3341 58.1068C90.3341 58.6089 90.4379 59.0028 90.6453 59.2884C90.8528 59.571 91.1414 59.7123 91.5112 59.7123C91.8811 59.7123 92.1682 59.568 92.3727 59.2794C92.5801 58.9907 92.6838 58.5683 92.6838 58.0121C92.6838 57.519 92.5771 57.1281 92.3636 56.8395C92.1532 56.5508 91.866 56.4065 91.5022 56.4065C91.1444 56.4065 90.8603 56.5493 90.6498 56.835C90.4394 57.1176 90.3341 57.5415 90.3341 58.1068ZM97.7486 55.6173H98.84V60.4971H97.7486V57.2409L95.8363 60.4971H94.7449V55.6173H95.8363V58.8735L97.7486 55.6173ZM104.013 58.9276L105.005 55.6173H106.173L104.234 61.2367C103.936 62.0575 103.431 62.4679 102.719 62.4679C102.559 62.4679 102.383 62.4409 102.191 62.3868V61.5389L102.398 61.5524C102.675 61.5524 102.882 61.5013 103.021 61.3991C103.162 61.2998 103.273 61.1315 103.354 60.8939L103.512 60.4745L101.799 55.6173H102.98L104.013 58.9276ZM108.748 59.7123C109.022 59.7123 109.249 59.6327 109.429 59.4733C109.61 59.314 109.706 59.117 109.718 58.8825H110.751C110.739 59.1862 110.644 59.4703 110.467 59.7349C110.289 59.9965 110.049 60.2039 109.745 60.3573C109.441 60.5106 109.114 60.5873 108.762 60.5873C108.079 60.5873 107.538 60.3663 107.138 59.9243C106.738 59.4823 106.539 58.872 106.539 58.0932V57.9805C106.539 57.2379 106.737 56.644 107.134 56.1991C107.531 55.7511 108.072 55.5271 108.757 55.5271C109.338 55.5271 109.81 55.6969 110.174 56.0367C110.54 56.3734 110.733 56.8169 110.751 57.3671H109.718C109.706 57.0875 109.61 56.8575 109.429 56.6771C109.252 56.4967 109.025 56.4065 108.748 56.4065C108.394 56.4065 108.12 56.5358 107.928 56.7944C107.735 57.0499 107.637 57.4393 107.634 57.9625V58.1383C107.634 58.6675 107.729 59.0629 107.919 59.3245C108.111 59.583 108.388 59.7123 108.748 59.7123ZM115.725 55.6173V60.4971H114.629V56.5012H113.249L113.159 58.2015C113.102 59.0193 112.944 59.6071 112.686 59.9649C112.43 60.3197 112.038 60.4971 111.509 60.4971H111.17L111.166 59.5861L111.391 59.5635C111.632 59.5304 111.806 59.3846 111.914 59.126C112.026 58.8645 112.096 58.3894 112.126 57.7009L112.217 55.6173H115.725ZM118.598 58.9276L119.59 55.6173H120.758L118.819 61.2367C118.522 62.0575 118.016 62.4679 117.304 62.4679C117.144 62.4679 116.969 62.4409 116.776 62.3868V61.5389L116.984 61.5524C117.26 61.5524 117.468 61.5013 117.606 61.3991C117.747 61.2998 117.859 61.1315 117.94 60.8939L118.098 60.4745L116.384 55.6173H117.565L118.598 58.9276ZM124.642 56.5012H122.522V60.4971H121.43V55.6173H124.642V56.5012ZM128.308 55.6173H129.4V60.4971H128.308V57.2409L126.396 60.4971H125.305V55.6173H126.396V58.8735L128.308 55.6173Z" fill="black"/>
<path d="M22.3157 93.6663C22.2606 94.4272 21.9789 95.0262 21.4706 95.4633C20.9654 95.9004 20.2984 96.119 19.4695 96.119C18.5629 96.119 17.8489 95.8146 17.3276 95.2059C16.8095 94.5939 16.5505 93.7553 16.5505 92.69V92.2577C16.5505 91.5778 16.6703 90.9788 16.9099 90.4607C17.1495 89.9426 17.4911 89.546 17.9347 89.2708C18.3816 88.9923 18.8996 88.8531 19.4889 88.8531C20.3049 88.8531 20.9622 89.0716 21.4608 89.5087C21.9595 89.9459 22.2477 90.5595 22.3254 91.3495H20.8683C20.8327 90.893 20.7048 90.5627 20.4846 90.3587C20.2677 90.1515 19.9358 90.0479 19.4889 90.0479C19.0032 90.0479 18.639 90.2227 18.3961 90.5724C18.1565 90.9189 18.0335 91.458 18.027 92.1898V92.724C18.027 93.4882 18.142 94.0467 18.3718 94.3996C18.605 94.7526 18.9709 94.929 19.4695 94.929C19.9196 94.929 20.2547 94.8271 20.4749 94.6231C20.6983 94.4158 20.8262 94.0969 20.8586 93.6663H22.3157ZM27.5417 91.8935H25.8563V96.0219H24.4478V91.8935H22.7916V90.7667H27.5417V91.8935ZM32.9814 93.4428C32.9814 94.2523 32.7969 94.9015 32.4277 95.3905C32.0618 95.8761 31.5664 96.119 30.9415 96.119C30.4105 96.119 29.9815 95.9344 29.6544 95.5653V98.0423H28.2508V90.7667H29.5524L29.601 91.2815C29.941 90.8735 30.3846 90.6695 30.9318 90.6695C31.5794 90.6695 32.0829 90.9091 32.4423 91.3884C32.8017 91.8676 32.9814 92.5281 32.9814 93.37V93.4428ZM31.5778 93.3408C31.5778 92.8519 31.4903 92.4747 31.3155 92.2092C31.1439 91.9437 30.8929 91.8109 30.5627 91.8109C30.1223 91.8109 29.8196 91.9793 29.6544 92.316V94.4676C29.826 94.8141 30.132 94.9873 30.5724 94.9873C31.2426 94.9873 31.5778 94.4385 31.5778 93.3408ZM37.0224 90.7667H38.426V96.0219H37.0224V92.7774L35.2642 96.0219H33.8557V90.7667H35.2642V94.0062L37.0224 90.7667ZM44.5554 94.0742H43.9192V96.0219H42.5155V94.0742H41.889L40.8447 96.0219H39.1497L40.8059 93.2728L39.1691 90.7667H40.9079L42.0007 92.7289H42.5155V90.7667H43.9192V92.7289H44.4437L45.5414 90.7667H47.2801L45.6531 93.2388L47.3239 96.0219H45.5997L44.5554 94.0742ZM50.0583 94.0839H49.4949V96.0219H48.0913V90.7667H49.4949V92.7434H49.9952L51.1414 90.7667H52.9142L51.1948 93.268L53.0744 96.0219H51.2045L50.0583 94.0839ZM56.6491 96.0219C56.5844 95.8956 56.5374 95.7385 56.5083 95.5507C56.1683 95.9296 55.7263 96.119 55.1823 96.119C54.6675 96.119 54.2401 95.97 53.9001 95.6722C53.5634 95.3743 53.395 94.9987 53.395 94.5454C53.395 93.9884 53.6006 93.561 54.0118 93.2631C54.4263 92.9652 55.0237 92.8147 55.804 92.8114H56.45V92.5103C56.45 92.2675 56.3868 92.0732 56.2606 91.9275C56.1375 91.7818 55.9416 91.7089 55.6729 91.7089C55.4365 91.7089 55.2503 91.7656 55.1143 91.8789C54.9816 91.9922 54.9152 92.1477 54.9152 92.3452H53.5116C53.5116 92.0408 53.6055 91.7591 53.7933 91.5001C53.9811 91.241 54.2466 91.0387 54.5898 90.893C54.933 90.744 55.3183 90.6695 55.7457 90.6695C56.3933 90.6695 56.9065 90.8331 57.2854 91.1601C57.6675 91.4839 57.8585 91.9404 57.8585 92.5297V94.8076C57.8617 95.3063 57.9313 95.6835 58.0673 95.9393V96.0219H56.6491ZM55.4883 95.0456C55.6955 95.0456 55.8866 95.0003 56.0614 94.9096C56.2363 94.8157 56.3658 94.6911 56.45 94.5356V93.6323H55.9254C55.2228 93.6323 54.8488 93.8751 54.8035 94.3608L54.7986 94.4434C54.7986 94.6182 54.8602 94.7623 54.9832 94.8756C55.1062 94.9889 55.2746 95.0456 55.4883 95.0456Z" fill="black"/>
<rect x="5.47656" y="74.233" width="227.359" height="0.710496" fill="#EFEFEF"/>
<rect x="5.47656" y="110.468" width="227.359" height="0.710496" fill="#EFEFEF"/>
<path d="M19.4161 295.494L20.7032 292.152H22.2768L19.8046 297.985L19.6055 298.369C19.2396 299.007 18.6795 299.326 17.925 299.326L17.415 299.306L17.4005 298.136C17.4782 298.149 17.6045 298.155 17.7793 298.155C17.9833 298.155 18.1468 298.119 18.2699 298.048C18.3961 297.977 18.5014 297.846 18.5855 297.655L18.7653 297.193L16.2834 292.152H17.8522L19.4161 295.494ZM24.9578 295.537L25.8418 293.968H27.3426L25.8466 296.543L27.4057 299.224H25.9001L24.9627 297.572L24.0301 299.224H22.5196L24.0787 296.543L22.5876 293.968H24.0933L24.9578 295.537ZM27.6048 296.547C27.6048 296.026 27.7052 295.562 27.906 295.154C28.1067 294.746 28.3949 294.43 28.7705 294.206C29.1493 293.983 29.5881 293.871 30.0867 293.871C30.7958 293.871 31.3738 294.088 31.8206 294.522C32.2707 294.956 32.5216 295.545 32.5734 296.29L32.5832 296.649C32.5832 297.456 32.3581 298.103 31.908 298.592C31.458 299.078 30.8541 299.321 30.0964 299.321C29.3387 299.321 28.7332 299.078 28.2799 298.592C27.8299 298.107 27.6048 297.446 27.6048 296.611V296.547ZM29.0085 296.649C29.0085 297.148 29.1024 297.53 29.2902 297.796C29.478 298.058 29.7467 298.189 30.0964 298.189C30.4364 298.189 30.7019 298.06 30.8929 297.801C31.084 297.538 31.1795 297.121 31.1795 296.547C31.1795 296.059 31.084 295.68 30.8929 295.411C30.7019 295.142 30.4332 295.008 30.0867 295.008C29.7435 295.008 29.478 295.142 29.2902 295.411C29.1024 295.676 29.0085 296.089 29.0085 296.649ZM33.1708 298.092C33.4882 297.755 33.7035 297.422 33.8168 297.091C33.9301 296.761 33.9933 296.293 34.0062 295.688L34.0451 293.968H37.9112V298.092H38.6689V300.802H37.2652V299.224H34.1519V300.802H32.7191V298.092H33.1708ZM34.827 298.092H36.5124V295.129H35.4196L35.4099 295.761C35.3807 296.726 35.1865 297.503 34.827 298.092ZM44.6186 295.518C44.6186 295.333 44.557 295.191 44.434 295.09C44.3142 294.987 44.1426 294.935 43.9192 294.935C43.6893 294.935 43.5015 294.984 43.3558 295.081C43.2133 295.175 43.1421 295.309 43.1421 295.484H41.7384C41.7384 295.008 41.9359 294.621 42.331 294.323C42.726 294.025 43.2311 293.876 43.8463 293.876C44.523 293.876 45.0541 294.009 45.4394 294.274C45.8279 294.54 46.0222 294.917 46.0222 295.406C46.0222 295.639 45.951 295.855 45.8085 296.052C45.6693 296.246 45.4718 296.402 45.216 296.518C45.815 296.729 46.1145 297.135 46.1145 297.737C46.1145 298.22 45.9073 298.605 45.4928 298.893C45.0816 299.178 44.5328 299.321 43.8463 299.321C43.2084 299.321 42.6839 299.172 42.2727 298.874C41.8615 298.576 41.6559 298.175 41.6559 297.669H43.0595C43.0595 297.848 43.1388 297.992 43.2975 298.102C43.4561 298.212 43.6634 298.267 43.9192 298.267C44.1685 298.267 44.3628 298.209 44.502 298.092C44.6412 297.975 44.7108 297.823 44.7108 297.635C44.7108 297.406 44.6445 297.242 44.5117 297.145C44.379 297.045 44.1798 296.994 43.9143 296.994H43.1518V296.081H43.9629C44.4 296.068 44.6186 295.88 44.6186 295.518ZM50.0146 299.224C49.9498 299.097 49.9029 298.94 49.8737 298.753C49.5338 299.131 49.0918 299.321 48.5478 299.321C48.033 299.321 47.6056 299.172 47.2656 298.874C46.9288 298.576 46.7605 298.2 46.7605 297.747C46.7605 297.19 46.9661 296.763 47.3773 296.465C47.7917 296.167 48.3891 296.016 49.1695 296.013H49.8155V295.712C49.8155 295.469 49.7523 295.275 49.626 295.129C49.503 294.984 49.3071 294.911 49.0383 294.911C48.802 294.911 48.6158 294.967 48.4798 295.081C48.347 295.194 48.2807 295.349 48.2807 295.547H46.877C46.877 295.243 46.9709 294.961 47.1587 294.702C47.3465 294.443 47.612 294.24 47.9553 294.095C48.2985 293.946 48.6838 293.871 49.1112 293.871C49.7588 293.871 50.272 294.035 50.6508 294.362C51.0329 294.686 51.224 295.142 51.224 295.732V298.009C51.2272 298.508 51.2968 298.885 51.4328 299.141V299.224H50.0146ZM48.8538 298.247C49.061 298.247 49.2521 298.202 49.4269 298.111C49.6018 298.018 49.7313 297.893 49.8155 297.737V296.834H49.2909C48.5883 296.834 48.2143 297.077 48.169 297.563L48.1641 297.645C48.1641 297.82 48.2256 297.964 48.3487 298.077C48.4717 298.191 48.6401 298.247 48.8538 298.247ZM59.3496 293.968V299.224H57.9459V295.105H56.7074L56.62 296.727C56.5649 297.592 56.3949 298.221 56.11 298.617C55.8251 299.012 55.4009 299.214 54.8375 299.224H54.3615L54.3469 298.082L54.5218 298.068C54.7744 298.048 54.9589 297.899 55.0755 297.621C55.1921 297.342 55.2649 296.868 55.294 296.198L55.3912 293.968H59.3496ZM63.5994 293.968H65.003V299.224H63.5994V295.979L61.8412 299.224H60.4327V293.968H61.8412V297.208L63.5994 293.968ZM66.0764 293.968H67.48V298.092H69.2382V293.968H70.6467V298.102H71.4335L71.3364 300.783H70.0299V299.224H66.0764V293.968ZM71.9192 296.547C71.9192 296.026 72.0196 295.562 72.2204 295.154C72.4211 294.746 72.7093 294.43 73.0849 294.206C73.4637 293.983 73.9025 293.871 74.4011 293.871C75.1102 293.871 75.6882 294.088 76.135 294.522C76.5851 294.956 76.836 295.545 76.8878 296.29L76.8976 296.649C76.8976 297.456 76.6725 298.103 76.2225 298.592C75.7724 299.078 75.1685 299.321 74.4108 299.321C73.6531 299.321 73.0477 299.078 72.5943 298.592C72.1443 298.107 71.9192 297.446 71.9192 296.611V296.547ZM73.3229 296.649C73.3229 297.148 73.4168 297.53 73.6046 297.796C73.7924 298.058 74.0611 298.189 74.4108 298.189C74.7508 298.189 75.0163 298.06 75.2074 297.801C75.3984 297.538 75.4939 297.121 75.4939 296.547C75.4939 296.059 75.3984 295.68 75.2074 295.411C75.0163 295.142 74.7476 295.008 74.4011 295.008C74.0579 295.008 73.7924 295.142 73.6046 295.411C73.4168 295.676 73.3229 296.089 73.3229 296.649ZM80.9628 297.567L82.3373 293.968H84.0955V299.224H82.6919V295.999L81.4339 299.224H80.4917L79.258 296.052V299.224H77.8544V293.968H79.598L80.9628 297.567Z" fill="black"/>
<rect x="5.47656" y="277.435" width="227.359" height="0.710496" fill="#EFEFEF"/>
<rect x="5.47656" y="313.67" width="227.359" height="0.710496" fill="#EFEFEF"/>
<path d="M21.9436 128.179H21.0732V125.143H17.7629V128.179H16.897V121.612H17.7629V124.435H21.0732V121.612H21.9436V128.179ZM26.3634 128.179C26.3153 128.082 26.2762 127.911 26.2461 127.665C25.8583 128.067 25.3953 128.269 24.8571 128.269C24.376 128.269 23.9806 128.134 23.6709 127.863C23.3643 127.589 23.2109 127.244 23.2109 126.826C23.2109 126.318 23.4034 125.924 23.7882 125.644C24.1761 125.361 24.7203 125.22 25.4208 125.22H26.2326V124.837C26.2326 124.545 26.1454 124.314 25.971 124.142C25.7967 123.968 25.5396 123.881 25.1998 123.881C24.9022 123.881 24.6526 123.956 24.4512 124.106C24.2497 124.257 24.149 124.438 24.149 124.652H23.3102C23.3102 124.408 23.3958 124.174 23.5672 123.948C23.7416 123.72 23.9761 123.539 24.2708 123.407C24.5684 123.275 24.8947 123.209 25.2494 123.209C25.8117 123.209 26.2522 123.35 26.5709 123.633C26.8896 123.912 27.0549 124.299 27.067 124.792V127.038C27.067 127.486 27.1241 127.842 27.2383 128.107V128.179H26.3634ZM24.9788 127.543C25.2404 127.543 25.4885 127.475 25.723 127.34C25.9575 127.205 26.1274 127.029 26.2326 126.812V125.811H25.5787C24.5564 125.811 24.0453 126.11 24.0453 126.708C24.0453 126.97 24.1325 127.174 24.3069 127.322C24.4812 127.469 24.7052 127.543 24.9788 127.543ZM31.0583 124.634C31.0583 124.405 30.9711 124.225 30.7967 124.093C30.6223 123.957 30.3833 123.89 30.0796 123.89C29.785 123.89 29.5384 123.966 29.34 124.12C29.1446 124.273 29.0468 124.453 29.0468 124.661H28.217C28.217 124.237 28.3944 123.89 28.7492 123.619C29.104 123.349 29.5475 123.213 30.0796 123.213C30.6509 123.213 31.0959 123.336 31.4146 123.583C31.7333 123.827 31.8926 124.175 31.8926 124.629C31.8926 124.849 31.8265 125.05 31.6942 125.234C31.5619 125.417 31.374 125.563 31.1305 125.671C31.6987 125.864 31.9828 126.242 31.9828 126.808C31.9828 127.256 31.81 127.61 31.4642 127.872C31.1184 128.134 30.6569 128.264 30.0796 128.264C29.5174 128.264 29.0529 128.128 28.6861 127.854C28.3222 127.577 28.1403 127.205 28.1403 126.736H28.9702C28.9702 126.973 29.0754 127.177 29.2859 127.349C29.4994 127.517 29.7639 127.601 30.0796 127.601C30.3983 127.601 30.6554 127.528 30.8508 127.38C31.0463 127.233 31.144 127.042 31.144 126.808C31.144 126.534 31.0613 126.339 30.8959 126.221C30.7336 126.101 30.4795 126.041 30.1338 126.041H29.2994V125.337H30.2059C30.7742 125.322 31.0583 125.088 31.0583 124.634ZM33.1419 128.179V123.299H35.0451C35.6946 123.299 36.1922 123.413 36.5379 123.642C36.8867 123.867 37.0611 124.199 37.0611 124.638C37.0611 124.864 36.9934 125.068 36.8581 125.252C36.7228 125.432 36.5229 125.57 36.2583 125.667C36.553 125.736 36.789 125.871 36.9664 126.073C37.1468 126.274 37.237 126.515 37.237 126.794C37.237 127.242 37.0716 127.585 36.7409 127.822C36.4132 128.06 35.9486 128.179 35.3473 128.179H33.1419ZM33.9763 126.036V127.507H35.3563C35.7051 127.507 35.9652 127.442 36.1365 127.313C36.3109 127.184 36.3981 127.002 36.3981 126.767C36.3981 126.28 36.0403 126.036 35.3247 126.036H33.9763ZM33.9763 125.369H35.0541C35.8359 125.369 36.2267 125.14 36.2267 124.683C36.2267 124.226 35.8569 123.99 35.1173 123.975H33.9763V125.369ZM41.3546 128.179C41.3065 128.082 41.2674 127.911 41.2373 127.665C40.8495 128.067 40.3865 128.269 39.8483 128.269C39.3672 128.269 38.9718 128.134 38.6621 127.863C38.3555 127.589 38.2021 127.244 38.2021 126.826C38.2021 126.318 38.3945 125.924 38.7794 125.644C39.1673 125.361 39.7115 125.22 40.412 125.22H41.2238V124.837C41.2238 124.545 41.1366 124.314 40.9622 124.142C40.7878 123.968 40.5308 123.881 40.191 123.881C39.8934 123.881 39.6438 123.956 39.4424 124.106C39.2409 124.257 39.1402 124.438 39.1402 124.652H38.3013C38.3013 124.408 38.387 124.174 38.5584 123.948C38.7328 123.72 38.9673 123.539 39.262 123.407C39.5596 123.275 39.8858 123.209 40.2406 123.209C40.8029 123.209 41.2434 123.35 41.5621 123.633C41.8808 123.912 42.0461 124.299 42.0582 124.792V127.038C42.0582 127.486 42.1153 127.842 42.2295 128.107V128.179H41.3546ZM39.97 127.543C40.2316 127.543 40.4797 127.475 40.7142 127.34C40.9487 127.205 41.1186 127.029 41.2238 126.812V125.811H40.5699C39.5476 125.811 39.0365 126.11 39.0365 126.708C39.0365 126.97 39.1237 127.174 39.298 127.322C39.4724 127.469 39.6964 127.543 39.97 127.543ZM47.3529 128.179H46.5185V126.095H44.2771V128.179H43.4382V123.299H44.2771V125.414H46.5185V123.299H47.3529V128.179ZM51.8538 123.299H52.6882V128.179H51.8538V124.62L49.6034 128.179H48.769V123.299H49.6034V126.862L51.8538 123.299ZM56.0526 128.269C55.3912 128.269 54.853 128.052 54.4381 127.619C54.0231 127.184 53.8157 126.602 53.8157 125.874V125.721C53.8157 125.237 53.9074 124.805 54.0908 124.426C54.2772 124.045 54.5358 123.747 54.8665 123.533C55.2002 123.317 55.561 123.209 55.9489 123.209C56.5833 123.209 57.0764 123.418 57.4282 123.836C57.78 124.254 57.9558 124.852 57.9558 125.631V125.978H54.65C54.6621 126.459 54.8019 126.848 55.0695 127.146C55.3401 127.441 55.6828 127.588 56.0977 127.588C56.3924 127.588 56.6419 127.528 56.8464 127.408C57.0508 127.287 57.2297 127.128 57.3831 126.929L57.8927 127.326C57.4838 127.955 56.8704 128.269 56.0526 128.269ZM55.9489 123.894C55.6122 123.894 55.3295 124.017 55.101 124.264C54.8725 124.508 54.7312 124.85 54.6771 125.292H57.1215V125.229C57.0974 124.805 56.9832 124.478 56.7787 124.246C56.5743 124.011 56.2977 123.894 55.9489 123.894ZM62.8131 126.957L63.9496 123.299H64.8426L62.8807 128.932C62.5771 129.744 62.0945 130.15 61.433 130.15L61.2752 130.136L60.964 130.077V129.401L61.1895 129.419C61.4721 129.419 61.6916 129.362 61.848 129.248C62.0073 129.133 62.1381 128.924 62.2403 128.621L62.4252 128.125L60.6844 123.299H61.5954L62.8131 126.957ZM67.4854 127.588C67.7831 127.588 68.0432 127.498 68.2657 127.317C68.4882 127.137 68.6114 126.911 68.6355 126.641H69.4247C69.4097 126.92 69.3135 127.187 69.1361 127.439C68.9587 127.692 68.7212 127.893 68.4235 128.043C68.1289 128.194 67.8162 128.269 67.4854 128.269C66.821 128.269 66.2918 128.048 65.8979 127.606C65.5071 127.161 65.3116 126.554 65.3116 125.784V125.644C65.3116 125.169 65.3988 124.747 65.5732 124.377C65.7476 124.007 65.9971 123.72 66.3219 123.515C66.6496 123.311 67.0359 123.209 67.4809 123.209C68.0281 123.209 68.4822 123.373 68.8429 123.7C69.2068 124.028 69.4007 124.453 69.4247 124.977H68.6355C68.6114 124.661 68.4912 124.402 68.2747 124.201C68.0612 123.996 67.7966 123.894 67.4809 123.894C67.057 123.894 66.7278 124.048 66.4932 124.354C66.2617 124.658 66.146 125.098 66.146 125.676V125.834C66.146 126.396 66.2617 126.829 66.4932 127.132C66.7248 127.436 67.0555 127.588 67.4854 127.588ZM74.3632 123.299V128.179H73.5243V123.989H71.8646L71.7654 125.815C71.7113 126.654 71.57 127.254 71.3415 127.615C71.116 127.976 70.7567 128.164 70.2636 128.179H69.9299V127.444L70.1689 127.426C70.4395 127.395 70.6334 127.239 70.7507 126.957C70.8679 126.674 70.9431 126.151 70.9762 125.387L71.0664 123.299H74.3632ZM77.2992 126.957L78.4357 123.299H79.3287L77.3668 128.932C77.0631 129.744 76.5806 130.15 75.9191 130.15L75.7613 130.136L75.4501 130.077V129.401L75.6756 129.419C75.9582 129.419 76.1777 129.362 76.334 129.248C76.4934 129.133 76.6242 128.924 76.7264 128.621L76.9113 128.125L75.1705 123.299H76.0815L77.2992 126.957ZM83.2298 123.989H80.9793V128.179H80.1405V123.299H83.2298V123.989ZM87.1129 123.299H87.9472V128.179H87.1129V124.62L84.8624 128.179H84.0281V123.299H84.8624V126.862L87.1129 123.299Z" fill="black"/>
<path d="M196.87 128.179H192.455V127.426L194.642 125.04C194.958 124.688 195.182 124.395 195.314 124.16C195.45 123.923 195.517 123.685 195.517 123.448C195.517 123.135 195.428 122.882 195.251 122.69C195.077 122.498 194.841 122.401 194.543 122.401C194.188 122.401 193.913 122.51 193.718 122.726C193.522 122.943 193.425 123.239 193.425 123.615H192.329C192.329 123.215 192.419 122.855 192.599 122.537C192.783 122.215 193.043 121.965 193.379 121.788C193.719 121.611 194.11 121.522 194.552 121.522C195.189 121.522 195.692 121.683 196.058 122.005C196.428 122.323 196.613 122.765 196.613 123.33C196.613 123.658 196.52 124.002 196.333 124.363C196.15 124.721 195.848 125.128 195.427 125.585L193.821 127.304H196.87V128.179ZM201.985 125.414C201.985 126.358 201.807 127.071 201.452 127.552C201.101 128.03 200.564 128.269 199.842 128.269C199.133 128.269 198.598 128.036 198.237 127.57C197.879 127.101 197.696 126.408 197.686 125.491V124.354C197.686 123.41 197.862 122.702 198.214 122.23C198.569 121.758 199.109 121.522 199.833 121.522C200.552 121.522 201.087 121.752 201.439 122.212C201.794 122.672 201.975 123.361 201.985 124.278V125.414ZM200.889 124.187C200.889 123.571 200.804 123.12 200.636 122.834C200.468 122.546 200.2 122.401 199.833 122.401C199.475 122.401 199.212 122.538 199.044 122.812C198.876 123.082 198.787 123.506 198.778 124.084V125.572C198.778 126.185 198.864 126.642 199.035 126.943C199.206 127.244 199.475 127.394 199.842 127.394C200.194 127.394 200.454 127.256 200.622 126.979C200.791 126.699 200.88 126.263 200.889 125.671V124.187ZM209.597 125.788C209.597 126.543 209.426 127.146 209.083 127.597C208.74 128.045 208.28 128.269 207.703 128.269C207.168 128.269 206.74 128.093 206.418 127.741V130.055H205.322V123.299H206.332L206.377 123.795C206.699 123.404 207.136 123.209 207.69 123.209C208.285 123.209 208.751 123.431 209.088 123.876C209.427 124.318 209.597 124.933 209.597 125.721V125.788ZM208.506 125.694C208.506 125.207 208.408 124.82 208.213 124.535C208.02 124.249 207.744 124.106 207.383 124.106C206.935 124.106 206.613 124.291 206.418 124.661V126.826C206.616 127.205 206.941 127.394 207.392 127.394C207.741 127.394 208.013 127.254 208.208 126.975C208.407 126.692 208.506 126.265 208.506 125.694ZM212.182 126.609L213.174 123.299H214.342L212.403 128.918C212.105 129.739 211.6 130.15 210.887 130.15C210.728 130.15 210.552 130.123 210.36 130.068V129.221L210.567 129.234C210.844 129.234 211.051 129.183 211.189 129.081C211.331 128.981 211.442 128.813 211.523 128.576L211.681 128.156L209.967 123.299H211.149L212.182 126.609ZM217.273 123.57C217.887 123.57 218.378 123.775 218.748 124.187C219.118 124.596 219.303 125.153 219.303 125.856V125.91C219.303 126.614 219.101 127.184 218.699 127.619C218.299 128.055 217.754 128.273 217.066 128.273C216.395 128.273 215.854 128.051 215.442 127.606C215.03 127.161 214.824 126.554 214.824 125.784V125.468C214.824 124.416 215.011 123.583 215.384 122.97C215.756 122.356 216.313 121.973 217.052 121.82C217.467 121.735 217.735 121.647 217.855 121.554C217.978 121.457 218.04 121.328 218.04 121.166H218.924C218.924 121.469 218.874 121.716 218.775 121.905C218.676 122.095 218.524 122.25 218.32 122.37C218.115 122.487 217.763 122.598 217.264 122.704C216.807 122.8 216.459 122.971 216.218 123.218C215.98 123.464 215.821 123.806 215.74 124.241C216.176 123.794 216.687 123.57 217.273 123.57ZM217.057 124.449C216.702 124.449 216.424 124.569 216.223 124.81C216.021 125.047 215.92 125.414 215.92 125.91C215.92 126.379 216.02 126.745 216.218 127.006C216.416 127.268 216.699 127.398 217.066 127.398C217.43 127.398 217.711 127.268 217.909 127.006C218.111 126.742 218.211 126.345 218.211 125.815C218.211 125.395 218.111 125.062 217.909 124.819C217.711 124.572 217.427 124.449 217.057 124.449ZM220.845 127.024C221.05 127.024 221.208 127.083 221.319 127.2C221.43 127.314 221.486 127.459 221.486 127.633C221.486 127.804 221.43 127.947 221.319 128.061C221.208 128.173 221.05 128.228 220.845 128.228C220.65 128.228 220.495 128.173 220.381 128.061C220.266 127.95 220.209 127.807 220.209 127.633C220.209 127.459 220.265 127.314 220.376 127.2C220.487 127.083 220.644 127.024 220.845 127.024Z" fill="black"/>
<rect x="16.1348" y="139.599" width="206.044" height="0.710496" fill="#EFEFEF"/>
<path d="M21.9436 157.309H21.0732V154.274H17.7629V157.309H16.897V150.743H17.7629V153.566H21.0732V150.743H21.9436V157.309ZM26.3634 157.309C26.3153 157.213 26.2762 157.041 26.2461 156.795C25.8583 157.198 25.3953 157.399 24.8571 157.399C24.376 157.399 23.9806 157.264 23.6709 156.993C23.3643 156.72 23.2109 156.374 23.2109 155.956C23.2109 155.448 23.4034 155.054 23.7882 154.774C24.1761 154.492 24.7203 154.351 25.4208 154.351H26.2326V153.967C26.2326 153.676 26.1454 153.444 25.971 153.273C25.7967 153.098 25.5396 153.011 25.1998 153.011C24.9022 153.011 24.6526 153.086 24.4512 153.237C24.2497 153.387 24.149 153.569 24.149 153.782H23.3102C23.3102 153.539 23.3958 153.304 23.5672 153.079C23.7416 152.85 23.9761 152.67 24.2708 152.538C24.5684 152.405 24.8947 152.339 25.2494 152.339C25.8117 152.339 26.2522 152.48 26.5709 152.763C26.8896 153.043 27.0549 153.429 27.067 153.922V156.168C27.067 156.616 27.1241 156.972 27.2383 157.237V157.309H26.3634ZM24.9788 156.673C25.2404 156.673 25.4885 156.606 25.723 156.47C25.9575 156.335 26.1274 156.159 26.2326 155.943V154.941H25.5787C24.5564 154.941 24.0453 155.241 24.0453 155.839C24.0453 156.1 24.1325 156.305 24.3069 156.452C24.4812 156.6 24.7052 156.673 24.9788 156.673ZM31.0583 153.764C31.0583 153.536 30.9711 153.355 30.7967 153.223C30.6223 153.088 30.3833 153.02 30.0796 153.02C29.785 153.02 29.5384 153.097 29.34 153.25C29.1446 153.403 29.0468 153.584 29.0468 153.791H28.217C28.217 153.367 28.3944 153.02 28.7492 152.749C29.104 152.479 29.5475 152.344 30.0796 152.344C30.6509 152.344 31.0959 152.467 31.4146 152.713C31.7333 152.957 31.8926 153.306 31.8926 153.76C31.8926 153.979 31.8265 154.181 31.6942 154.364C31.5619 154.547 31.374 154.693 31.1305 154.802C31.6987 154.994 31.9828 155.373 31.9828 155.938C31.9828 156.386 31.81 156.741 31.4642 157.002C31.1184 157.264 30.6569 157.395 30.0796 157.395C29.5174 157.395 29.0529 157.258 28.6861 156.984C28.3222 156.708 28.1403 156.335 28.1403 155.866H28.9702C28.9702 156.103 29.0754 156.308 29.2859 156.479C29.4994 156.648 29.7639 156.732 30.0796 156.732C30.3983 156.732 30.6554 156.658 30.8508 156.511C31.0463 156.363 31.144 156.173 31.144 155.938C31.144 155.664 31.0613 155.469 30.8959 155.352C30.7336 155.231 30.4795 155.171 30.1338 155.171H29.2994V154.468H30.2059C30.7742 154.453 31.0583 154.218 31.0583 153.764ZM33.1419 157.309V152.429H35.0451C35.6946 152.429 36.1922 152.544 36.5379 152.772C36.8867 152.998 37.0611 153.33 37.0611 153.769C37.0611 153.994 36.9934 154.199 36.8581 154.382C36.7228 154.563 36.5229 154.701 36.2583 154.797C36.553 154.866 36.789 155.001 36.9664 155.203C37.1468 155.404 37.237 155.645 37.237 155.925C37.237 156.373 37.0716 156.715 36.7409 156.953C36.4132 157.19 35.9486 157.309 35.3473 157.309H33.1419ZM33.9763 155.167V156.637H35.3563C35.7051 156.637 35.9652 156.572 36.1365 156.443C36.3109 156.314 36.3981 156.132 36.3981 155.897C36.3981 155.41 36.0403 155.167 35.3247 155.167H33.9763ZM33.9763 154.499H35.0541C35.8359 154.499 36.2267 154.271 36.2267 153.814C36.2267 153.357 35.8569 153.121 35.1173 153.106H33.9763V154.499ZM41.3546 157.309C41.3065 157.213 41.2674 157.041 41.2373 156.795C40.8495 157.198 40.3865 157.399 39.8483 157.399C39.3672 157.399 38.9718 157.264 38.6621 156.993C38.3555 156.72 38.2021 156.374 38.2021 155.956C38.2021 155.448 38.3945 155.054 38.7794 154.774C39.1673 154.492 39.7115 154.351 40.412 154.351H41.2238V153.967C41.2238 153.676 41.1366 153.444 40.9622 153.273C40.7878 153.098 40.5308 153.011 40.191 153.011C39.8934 153.011 39.6438 153.086 39.4424 153.237C39.2409 153.387 39.1402 153.569 39.1402 153.782H38.3013C38.3013 153.539 38.387 153.304 38.5584 153.079C38.7328 152.85 38.9673 152.67 39.262 152.538C39.5596 152.405 39.8858 152.339 40.2406 152.339C40.8029 152.339 41.2434 152.48 41.5621 152.763C41.8808 153.043 42.0461 153.429 42.0582 153.922V156.168C42.0582 156.616 42.1153 156.972 42.2295 157.237V157.309H41.3546ZM39.97 156.673C40.2316 156.673 40.4797 156.606 40.7142 156.47C40.9487 156.335 41.1186 156.159 41.2238 155.943V154.941H40.5699C39.5476 154.941 39.0365 155.241 39.0365 155.839C39.0365 156.1 39.1237 156.305 39.298 156.452C39.4724 156.6 39.6964 156.673 39.97 156.673ZM47.3529 157.309H46.5185V155.225H44.2771V157.309H43.4382V152.429H44.2771V154.544H46.5185V152.429H47.3529V157.309ZM51.8538 152.429H52.6882V157.309H51.8538V153.751L49.6034 157.309H48.769V152.429H49.6034V155.992L51.8538 152.429ZM56.0526 157.399C55.3912 157.399 54.853 157.183 54.4381 156.75C54.0231 156.314 53.8157 155.732 53.8157 155.004V154.851C53.8157 154.367 53.9074 153.936 54.0908 153.557C54.2772 153.175 54.5358 152.877 54.8665 152.664C55.2002 152.447 55.561 152.339 55.9489 152.339C56.5833 152.339 57.0764 152.548 57.4282 152.966C57.78 153.384 57.9558 153.982 57.9558 154.761V155.108H54.65C54.6621 155.589 54.8019 155.979 55.0695 156.276C55.3401 156.571 55.6828 156.718 56.0977 156.718C56.3924 156.718 56.6419 156.658 56.8464 156.538C57.0508 156.418 57.2297 156.258 57.3831 156.06L57.8927 156.457C57.4838 157.085 56.8704 157.399 56.0526 157.399ZM55.9489 153.025C55.6122 153.025 55.3295 153.148 55.101 153.394C54.8725 153.638 54.7312 153.981 54.6771 154.423H57.1215V154.36C57.0974 153.936 56.9832 153.608 56.7787 153.376C56.5743 153.142 56.2977 153.025 55.9489 153.025ZM62.8131 156.087L63.9496 152.429H64.8426L62.8807 158.062C62.5771 158.874 62.0945 159.28 61.433 159.28L61.2752 159.266L60.964 159.208V158.531L61.1895 158.549C61.4721 158.549 61.6916 158.492 61.848 158.378C62.0073 158.264 62.1381 158.055 62.2403 157.751L62.4252 157.255L60.6844 152.429H61.5954L62.8131 156.087ZM67.4854 156.718C67.7831 156.718 68.0432 156.628 68.2657 156.448C68.4882 156.267 68.6114 156.042 68.6355 155.771H69.4247C69.4097 156.051 69.3135 156.317 69.1361 156.569C68.9587 156.822 68.7212 157.023 68.4235 157.174C68.1289 157.324 67.8162 157.399 67.4854 157.399C66.821 157.399 66.2918 157.178 65.8979 156.736C65.5071 156.291 65.3116 155.684 65.3116 154.914V154.774C65.3116 154.299 65.3988 153.877 65.5732 153.507C65.7476 153.137 65.9971 152.85 66.3219 152.646C66.6496 152.441 67.0359 152.339 67.4809 152.339C68.0281 152.339 68.4822 152.503 68.8429 152.831C69.2068 153.158 69.4007 153.584 69.4247 154.107H68.6355C68.6114 153.791 68.4912 153.533 68.2747 153.331C68.0612 153.127 67.7966 153.025 67.4809 153.025C67.057 153.025 66.7278 153.178 66.4932 153.485C66.2617 153.788 66.146 154.229 66.146 154.806V154.964C66.146 155.526 66.2617 155.959 66.4932 156.263C66.7248 156.566 67.0555 156.718 67.4854 156.718ZM74.3632 152.429V157.309H73.5243V153.119H71.8646L71.7654 154.946C71.7113 155.785 71.57 156.385 71.3415 156.745C71.116 157.106 70.7567 157.294 70.2636 157.309H69.9299V156.574L70.1689 156.556C70.4395 156.526 70.6334 156.37 70.7507 156.087C70.8679 155.804 70.9431 155.281 70.9762 154.517L71.0664 152.429H74.3632ZM77.2992 156.087L78.4357 152.429H79.3287L77.3668 158.062C77.0631 158.874 76.5806 159.28 75.9191 159.28L75.7613 159.266L75.4501 159.208V158.531L75.6756 158.549C75.9582 158.549 76.1777 158.492 76.334 158.378C76.4934 158.264 76.6242 158.055 76.7264 157.751L76.9113 157.255L75.1705 152.429H76.0815L77.2992 156.087ZM83.2298 153.119H80.9793V157.309H80.1405V152.429H83.2298V153.119ZM87.1129 152.429H87.9472V157.309H87.1129V153.751L84.8624 157.309H84.0281V152.429H84.8624V155.992L87.1129 152.429Z" fill="black"/>
<path d="M196.87 157.309H192.455V156.556L194.642 154.17C194.958 153.818 195.182 153.525 195.314 153.291C195.45 153.053 195.517 152.816 195.517 152.578C195.517 152.265 195.428 152.013 195.251 151.82C195.077 151.628 194.841 151.532 194.543 151.532C194.188 151.532 193.913 151.64 193.718 151.857C193.522 152.073 193.425 152.369 193.425 152.745H192.329C192.329 152.345 192.419 151.986 192.599 151.667C192.783 151.345 193.043 151.096 193.379 150.918C193.719 150.741 194.11 150.652 194.552 150.652C195.189 150.652 195.692 150.813 196.058 151.135C196.428 151.454 196.613 151.896 196.613 152.461C196.613 152.789 196.52 153.133 196.333 153.494C196.15 153.851 195.848 154.259 195.427 154.716L193.821 156.434H196.87V157.309ZM201.985 154.544C201.985 155.489 201.807 156.201 201.452 156.682C201.101 157.16 200.564 157.399 199.842 157.399C199.133 157.399 198.598 157.166 198.237 156.7C197.879 156.231 197.696 155.538 197.686 154.621V153.485C197.686 152.541 197.862 151.832 198.214 151.36C198.569 150.888 199.109 150.652 199.833 150.652C200.552 150.652 201.087 150.882 201.439 151.342C201.794 151.802 201.975 152.491 201.985 153.408V154.544ZM200.889 153.318C200.889 152.701 200.804 152.25 200.636 151.965C200.468 151.676 200.2 151.532 199.833 151.532C199.475 151.532 199.212 151.669 199.044 151.942C198.876 152.213 198.787 152.637 198.778 153.214V154.702C198.778 155.316 198.864 155.773 199.035 156.073C199.206 156.374 199.475 156.524 199.842 156.524C200.194 156.524 200.454 156.386 200.622 156.109C200.791 155.83 200.88 155.394 200.889 154.802V153.318ZM209.597 154.919C209.597 155.673 209.426 156.276 209.083 156.727C208.74 157.175 208.28 157.399 207.703 157.399C207.168 157.399 206.74 157.223 206.418 156.872V159.185H205.322V152.429H206.332L206.377 152.925C206.699 152.535 207.136 152.339 207.69 152.339C208.285 152.339 208.751 152.562 209.088 153.007C209.427 153.449 209.597 154.063 209.597 154.851V154.919ZM208.506 154.824C208.506 154.337 208.408 153.951 208.213 153.665C208.02 153.379 207.744 153.237 207.383 153.237C206.935 153.237 206.613 153.421 206.418 153.791V155.956C206.616 156.335 206.941 156.524 207.392 156.524C207.741 156.524 208.013 156.385 208.208 156.105C208.407 155.822 208.506 155.395 208.506 154.824ZM212.182 155.74L213.174 152.429H214.342L212.403 158.049C212.105 158.87 211.6 159.28 210.887 159.28C210.728 159.28 210.552 159.253 210.36 159.199V158.351L210.567 158.364C210.844 158.364 211.051 158.313 211.189 158.211C211.331 158.112 211.442 157.943 211.523 157.706L211.681 157.287L209.967 152.429H211.149L212.182 155.74ZM217.273 152.7C217.887 152.7 218.378 152.906 218.748 153.318C219.118 153.727 219.303 154.283 219.303 154.986V155.041C219.303 155.744 219.101 156.314 218.699 156.75C218.299 157.186 217.754 157.404 217.066 157.404C216.395 157.404 215.854 157.181 215.442 156.736C215.03 156.291 214.824 155.684 214.824 154.914V154.599C214.824 153.546 215.011 152.713 215.384 152.1C215.756 151.487 216.313 151.103 217.052 150.95C217.467 150.866 217.735 150.777 217.855 150.684C217.978 150.588 218.04 150.458 218.04 150.296H218.924C218.924 150.6 218.874 150.846 218.775 151.036C218.676 151.225 218.524 151.38 218.32 151.5C218.115 151.617 217.763 151.729 217.264 151.834C216.807 151.93 216.459 152.102 216.218 152.348C215.98 152.595 215.821 152.936 215.74 153.372C216.176 152.924 216.687 152.7 217.273 152.7ZM217.057 153.579C216.702 153.579 216.424 153.7 216.223 153.94C216.021 154.178 215.92 154.544 215.92 155.041C215.92 155.51 216.02 155.875 216.218 156.136C216.416 156.398 216.699 156.529 217.066 156.529C217.43 156.529 217.711 156.398 217.909 156.136C218.111 155.872 218.211 155.475 218.211 154.946C218.211 154.525 218.111 154.193 217.909 153.949C217.711 153.703 217.427 153.579 217.057 153.579ZM220.845 156.155C221.05 156.155 221.208 156.213 221.319 156.33C221.43 156.445 221.486 156.589 221.486 156.763C221.486 156.935 221.43 157.078 221.319 157.192C221.208 157.303 221.05 157.359 220.845 157.359C220.65 157.359 220.495 157.303 220.381 157.192C220.266 157.081 220.209 156.938 220.209 156.763C220.209 156.589 220.265 156.445 220.376 156.33C220.487 156.213 220.644 156.155 220.845 156.155Z" fill="black"/>
<rect x="16.1348" y="168.729" width="206.044" height="0.710496" fill="#EFEFEF"/>
<path d="M21.9436 186.439H21.0732V183.404H17.7629V186.439H16.897V179.873H17.7629V182.696H21.0732V179.873H21.9436V186.439ZM26.3634 186.439C26.3153 186.343 26.2762 186.172 26.2461 185.925C25.8583 186.328 25.3953 186.53 24.8571 186.53C24.376 186.53 23.9806 186.394 23.6709 186.124C23.3643 185.85 23.2109 185.504 23.2109 185.086C23.2109 184.578 23.4034 184.184 23.7882 183.905C24.1761 183.622 24.7203 183.481 25.4208 183.481H26.2326V183.097C26.2326 182.806 26.1454 182.574 25.971 182.403C25.7967 182.229 25.5396 182.141 25.1998 182.141C24.9022 182.141 24.6526 182.216 24.4512 182.367C24.2497 182.517 24.149 182.699 24.149 182.913H23.3102C23.3102 182.669 23.3958 182.434 23.5672 182.209C23.7416 181.98 23.9761 181.8 24.2708 181.668C24.5684 181.535 24.8947 181.469 25.2494 181.469C25.8117 181.469 26.2522 181.611 26.5709 181.893C26.8896 182.173 27.0549 182.559 27.067 183.052V185.298C27.067 185.746 27.1241 186.103 27.2383 186.367V186.439H26.3634ZM24.9788 185.803C25.2404 185.803 25.4885 185.736 25.723 185.6C25.9575 185.465 26.1274 185.289 26.2326 185.073V184.072H25.5787C24.5564 184.072 24.0453 184.371 24.0453 184.969C24.0453 185.231 24.1325 185.435 24.3069 185.582C24.4812 185.73 24.7052 185.803 24.9788 185.803ZM31.0583 182.894C31.0583 182.666 30.9711 182.486 30.7967 182.353C30.6223 182.218 30.3833 182.15 30.0796 182.15C29.785 182.15 29.5384 182.227 29.34 182.38C29.1446 182.534 29.0468 182.714 29.0468 182.922H28.217C28.217 182.498 28.3944 182.15 28.7492 181.88C29.104 181.609 29.5475 181.474 30.0796 181.474C30.6509 181.474 31.0959 181.597 31.4146 181.844C31.7333 182.087 31.8926 182.436 31.8926 182.89C31.8926 183.109 31.8265 183.311 31.6942 183.494C31.5619 183.678 31.374 183.824 31.1305 183.932C31.6987 184.124 31.9828 184.503 31.9828 185.068C31.9828 185.516 31.81 185.871 31.4642 186.133C31.1184 186.394 30.6569 186.525 30.0796 186.525C29.5174 186.525 29.0529 186.388 28.6861 186.115C28.3222 185.838 28.1403 185.465 28.1403 184.996H28.9702C28.9702 185.234 29.0754 185.438 29.2859 185.609C29.4994 185.778 29.7639 185.862 30.0796 185.862C30.3983 185.862 30.6554 185.788 30.8508 185.641C31.0463 185.494 31.144 185.303 31.144 185.068C31.144 184.795 31.0613 184.599 30.8959 184.482C30.7336 184.362 30.4795 184.302 30.1338 184.302H29.2994V183.598H30.2059C30.7742 183.583 31.0583 183.348 31.0583 182.894ZM33.1419 186.439V181.56H35.0451C35.6946 181.56 36.1922 181.674 36.5379 181.902C36.8867 182.128 37.0611 182.46 37.0611 182.899C37.0611 183.124 36.9934 183.329 36.8581 183.512C36.7228 183.693 36.5229 183.831 36.2583 183.927C36.553 183.996 36.789 184.132 36.9664 184.333C37.1468 184.535 37.237 184.775 37.237 185.055C37.237 185.503 37.0716 185.846 36.7409 186.083C36.4132 186.321 35.9486 186.439 35.3473 186.439H33.1419ZM33.9763 184.297V185.767H35.3563C35.7051 185.767 35.9652 185.703 36.1365 185.573C36.3109 185.444 36.3981 185.262 36.3981 185.028C36.3981 184.541 36.0403 184.297 35.3247 184.297H33.9763ZM33.9763 183.63H35.0541C35.8359 183.63 36.2267 183.401 36.2267 182.944C36.2267 182.487 35.8569 182.251 35.1173 182.236H33.9763V183.63ZM41.3546 186.439C41.3065 186.343 41.2674 186.172 41.2373 185.925C40.8495 186.328 40.3865 186.53 39.8483 186.53C39.3672 186.53 38.9718 186.394 38.6621 186.124C38.3555 185.85 38.2021 185.504 38.2021 185.086C38.2021 184.578 38.3945 184.184 38.7794 183.905C39.1673 183.622 39.7115 183.481 40.412 183.481H41.2238V183.097C41.2238 182.806 41.1366 182.574 40.9622 182.403C40.7878 182.229 40.5308 182.141 40.191 182.141C39.8934 182.141 39.6438 182.216 39.4424 182.367C39.2409 182.517 39.1402 182.699 39.1402 182.913H38.3013C38.3013 182.669 38.387 182.434 38.5584 182.209C38.7328 181.98 38.9673 181.8 39.262 181.668C39.5596 181.535 39.8858 181.469 40.2406 181.469C40.8029 181.469 41.2434 181.611 41.5621 181.893C41.8808 182.173 42.0461 182.559 42.0582 183.052V185.298C42.0582 185.746 42.1153 186.103 42.2295 186.367V186.439H41.3546ZM39.97 185.803C40.2316 185.803 40.4797 185.736 40.7142 185.6C40.9487 185.465 41.1186 185.289 41.2238 185.073V184.072H40.5699C39.5476 184.072 39.0365 184.371 39.0365 184.969C39.0365 185.231 39.1237 185.435 39.298 185.582C39.4724 185.73 39.6964 185.803 39.97 185.803ZM47.3529 186.439H46.5185V184.356H44.2771V186.439H43.4382V181.56H44.2771V183.675H46.5185V181.56H47.3529V186.439ZM51.8538 181.56H52.6882V186.439H51.8538V182.881L49.6034 186.439H48.769V181.56H49.6034V185.122L51.8538 181.56ZM56.0526 186.53C55.3912 186.53 54.853 186.313 54.4381 185.88C54.0231 185.444 53.8157 184.862 53.8157 184.135V183.981C53.8157 183.497 53.9074 183.066 54.0908 182.687C54.2772 182.305 54.5358 182.008 54.8665 181.794C55.2002 181.578 55.561 181.469 55.9489 181.469C56.5833 181.469 57.0764 181.678 57.4282 182.096C57.78 182.514 57.9558 183.112 57.9558 183.891V184.238H54.65C54.6621 184.72 54.8019 185.109 55.0695 185.407C55.3401 185.701 55.6828 185.849 56.0977 185.849C56.3924 185.849 56.6419 185.788 56.8464 185.668C57.0508 185.548 57.2297 185.389 57.3831 185.19L57.8927 185.587C57.4838 186.215 56.8704 186.53 56.0526 186.53ZM55.9489 182.155C55.6122 182.155 55.3295 182.278 55.101 182.525C54.8725 182.768 54.7312 183.111 54.6771 183.553H57.1215V183.49C57.0974 183.066 56.9832 182.738 56.7787 182.507C56.5743 182.272 56.2977 182.155 55.9489 182.155ZM62.8131 185.217L63.9496 181.56H64.8426L62.8807 187.192C62.5771 188.004 62.0945 188.41 61.433 188.41L61.2752 188.397L60.964 188.338V187.662L61.1895 187.68C61.4721 187.68 61.6916 187.622 61.848 187.508C62.0073 187.394 62.1381 187.185 62.2403 186.881L62.4252 186.385L60.6844 181.56H61.5954L62.8131 185.217ZM67.4854 185.849C67.7831 185.849 68.0432 185.758 68.2657 185.578C68.4882 185.398 68.6114 185.172 68.6355 184.901H69.4247C69.4097 185.181 69.3135 185.447 69.1361 185.7C68.9587 185.952 68.7212 186.154 68.4235 186.304C68.1289 186.454 67.8162 186.53 67.4854 186.53C66.821 186.53 66.2918 186.309 65.8979 185.867C65.5071 185.422 65.3116 184.814 65.3116 184.045V183.905C65.3116 183.43 65.3988 183.007 65.5732 182.637C65.7476 182.268 65.9971 181.98 66.3219 181.776C66.6496 181.572 67.0359 181.469 67.4809 181.469C68.0281 181.469 68.4822 181.633 68.8429 181.961C69.2068 182.289 69.4007 182.714 69.4247 183.237H68.6355C68.6114 182.922 68.4912 182.663 68.2747 182.462C68.0612 182.257 67.7966 182.155 67.4809 182.155C67.057 182.155 66.7278 182.308 66.4932 182.615C66.2617 182.919 66.146 183.359 66.146 183.936V184.094C66.146 184.656 66.2617 185.089 66.4932 185.393C66.7248 185.697 67.0555 185.849 67.4854 185.849ZM74.3632 181.56V186.439H73.5243V182.25H71.8646L71.7654 184.076C71.7113 184.915 71.57 185.515 71.3415 185.876C71.116 186.236 70.7567 186.424 70.2636 186.439H69.9299V185.704L70.1689 185.686C70.4395 185.656 70.6334 185.5 70.7507 185.217C70.8679 184.934 70.9431 184.411 70.9762 183.648L71.0664 181.56H74.3632ZM77.2992 185.217L78.4357 181.56H79.3287L77.3668 187.192C77.0631 188.004 76.5806 188.41 75.9191 188.41L75.7613 188.397L75.4501 188.338V187.662L75.6756 187.68C75.9582 187.68 76.1777 187.622 76.334 187.508C76.4934 187.394 76.6242 187.185 76.7264 186.881L76.9113 186.385L75.1705 181.56H76.0815L77.2992 185.217ZM83.2298 182.25H80.9793V186.439H80.1405V181.56H83.2298V182.25ZM87.1129 181.56H87.9472V186.439H87.1129V182.881L84.8624 186.439H84.0281V181.56H84.8624V185.122L87.1129 181.56Z" fill="black"/>
<path d="M196.87 186.439H192.455V185.686L194.642 183.3C194.958 182.949 195.182 182.655 195.314 182.421C195.45 182.183 195.517 181.946 195.517 181.708C195.517 181.396 195.428 181.143 195.251 180.951C195.077 180.758 194.841 180.662 194.543 180.662C194.188 180.662 193.913 180.77 193.718 180.987C193.522 181.203 193.425 181.499 193.425 181.875H192.329C192.329 181.475 192.419 181.116 192.599 180.797C192.783 180.476 193.043 180.226 193.379 180.049C193.719 179.871 194.11 179.783 194.552 179.783C195.189 179.783 195.692 179.943 196.058 180.265C196.428 180.584 196.613 181.026 196.613 181.591C196.613 181.919 196.52 182.263 196.333 182.624C196.15 182.982 195.848 183.389 195.427 183.846L193.821 185.564H196.87V186.439ZM201.985 183.675C201.985 184.619 201.807 185.331 201.452 185.812C201.101 186.291 200.564 186.53 199.842 186.53C199.133 186.53 198.598 186.297 198.237 185.83C197.879 185.361 197.696 184.668 197.686 183.751V182.615C197.686 181.671 197.862 180.963 198.214 180.491C198.569 180.019 199.109 179.783 199.833 179.783C200.552 179.783 201.087 180.013 201.439 180.473C201.794 180.933 201.975 181.621 201.985 182.538V183.675ZM200.889 182.448C200.889 181.832 200.804 181.381 200.636 181.095C200.468 180.806 200.2 180.662 199.833 180.662C199.475 180.662 199.212 180.799 199.044 181.072C198.876 181.343 198.787 181.767 198.778 182.344V183.833C198.778 184.446 198.864 184.903 199.035 185.204C199.206 185.504 199.475 185.655 199.842 185.655C200.194 185.655 200.454 185.516 200.622 185.24C200.791 184.96 200.88 184.524 200.889 183.932V182.448ZM209.597 184.049C209.597 184.804 209.426 185.407 209.083 185.858C208.74 186.306 208.28 186.53 207.703 186.53C207.168 186.53 206.74 186.354 206.418 186.002V188.315H205.322V181.56H206.332L206.377 182.056C206.699 181.665 207.136 181.469 207.69 181.469C208.285 181.469 208.751 181.692 209.088 182.137C209.427 182.579 209.597 183.194 209.597 183.981V184.049ZM208.506 183.954C208.506 183.467 208.408 183.081 208.213 182.795C208.02 182.51 207.744 182.367 207.383 182.367C206.935 182.367 206.613 182.552 206.418 182.922V185.086C206.616 185.465 206.941 185.655 207.392 185.655C207.741 185.655 208.013 185.515 208.208 185.235C208.407 184.953 208.506 184.526 208.506 183.954ZM212.182 184.87L213.174 181.56H214.342L212.403 187.179C212.105 188 211.6 188.41 210.887 188.41C210.728 188.41 210.552 188.383 210.36 188.329V187.481L210.567 187.495C210.844 187.495 211.051 187.444 211.189 187.341C211.331 187.242 211.442 187.074 211.523 186.836L211.681 186.417L209.967 181.56H211.149L212.182 184.87ZM217.273 181.83C217.887 181.83 218.378 182.036 218.748 182.448C219.118 182.857 219.303 183.413 219.303 184.117V184.171C219.303 184.874 219.101 185.444 218.699 185.88C218.299 186.316 217.754 186.534 217.066 186.534C216.395 186.534 215.854 186.312 215.442 185.867C215.03 185.422 214.824 184.814 214.824 184.045V183.729C214.824 182.677 215.011 181.844 215.384 181.23C215.756 180.617 216.313 180.234 217.052 180.08C217.467 179.996 217.735 179.907 217.855 179.814C217.978 179.718 218.04 179.589 218.04 179.426H218.924C218.924 179.73 218.874 179.977 218.775 180.166C218.676 180.355 218.524 180.51 218.32 180.63C218.115 180.748 217.763 180.859 217.264 180.964C216.807 181.06 216.459 181.232 216.218 181.478C215.98 181.725 215.821 182.066 215.74 182.502C216.176 182.054 216.687 181.83 217.273 181.83ZM217.057 182.71C216.702 182.71 216.424 182.83 216.223 183.07C216.021 183.308 215.92 183.675 215.92 184.171C215.92 184.64 216.02 185.005 216.218 185.267C216.416 185.528 216.699 185.659 217.066 185.659C217.43 185.659 217.711 185.528 217.909 185.267C218.111 185.002 218.211 184.605 218.211 184.076C218.211 183.655 218.111 183.323 217.909 183.079C217.711 182.833 217.427 182.71 217.057 182.71ZM220.845 185.285C221.05 185.285 221.208 185.343 221.319 185.461C221.43 185.575 221.486 185.719 221.486 185.894C221.486 186.065 221.43 186.208 221.319 186.322C221.208 186.433 221.05 186.489 220.845 186.489C220.65 186.489 220.495 186.433 220.381 186.322C220.266 186.211 220.209 186.068 220.209 185.894C220.209 185.719 220.265 185.575 220.376 185.461C220.487 185.343 220.644 185.285 220.845 185.285Z" fill="black"/>
<rect x="16.1348" y="197.859" width="206.044" height="0.710496" fill="#EFEFEF"/>
<path d="M21.9436 215.57H21.0732V212.534H17.7629V215.57H16.897V209.003H17.7629V211.826H21.0732V209.003H21.9436V215.57ZM26.3634 215.57C26.3153 215.473 26.2762 215.302 26.2461 215.056C25.8583 215.458 25.3953 215.66 24.8571 215.66C24.376 215.66 23.9806 215.525 23.6709 215.254C23.3643 214.98 23.2109 214.635 23.2109 214.217C23.2109 213.709 23.4034 213.315 23.7882 213.035C24.1761 212.752 24.7203 212.611 25.4208 212.611H26.2326V212.228C26.2326 211.936 26.1454 211.705 25.971 211.533C25.7967 211.359 25.5396 211.272 25.1998 211.272C24.9022 211.272 24.6526 211.347 24.4512 211.497C24.2497 211.648 24.149 211.829 24.149 212.043H23.3102C23.3102 211.799 23.3958 211.565 23.5672 211.339C23.7416 211.111 23.9761 210.93 24.2708 210.798C24.5684 210.666 24.8947 210.6 25.2494 210.6C25.8117 210.6 26.2522 210.741 26.5709 211.024C26.8896 211.303 27.0549 211.69 27.067 212.183V214.429C27.067 214.877 27.1241 215.233 27.2383 215.498V215.57H26.3634ZM24.9788 214.934C25.2404 214.934 25.4885 214.866 25.723 214.731C25.9575 214.596 26.1274 214.42 26.2326 214.203V213.202H25.5787C24.5564 213.202 24.0453 213.501 24.0453 214.099C24.0453 214.361 24.1325 214.565 24.3069 214.713C24.4812 214.86 24.7052 214.934 24.9788 214.934ZM31.0583 212.025C31.0583 211.796 30.9711 211.616 30.7967 211.484C30.6223 211.348 30.3833 211.281 30.0796 211.281C29.785 211.281 29.5384 211.357 29.34 211.511C29.1446 211.664 29.0468 211.844 29.0468 212.052H28.217C28.217 211.628 28.3944 211.281 28.7492 211.01C29.104 210.74 29.5475 210.604 30.0796 210.604C30.6509 210.604 31.0959 210.727 31.4146 210.974C31.7333 211.218 31.8926 211.566 31.8926 212.02C31.8926 212.24 31.8265 212.441 31.6942 212.625C31.5619 212.808 31.374 212.954 31.1305 213.062C31.6987 213.255 31.9828 213.633 31.9828 214.199C31.9828 214.647 31.81 215.001 31.4642 215.263C31.1184 215.525 30.6569 215.655 30.0796 215.655C29.5174 215.655 29.0529 215.519 28.6861 215.245C28.3222 214.968 28.1403 214.596 28.1403 214.127H28.9702C28.9702 214.364 29.0754 214.568 29.2859 214.74C29.4994 214.908 29.7639 214.992 30.0796 214.992C30.3983 214.992 30.6554 214.919 30.8508 214.771C31.0463 214.624 31.144 214.433 31.144 214.199C31.144 213.925 31.0613 213.73 30.8959 213.612C30.7336 213.492 30.4795 213.432 30.1338 213.432H29.2994V212.728H30.2059C30.7742 212.713 31.0583 212.479 31.0583 212.025ZM33.1419 215.57V210.69H35.0451C35.6946 210.69 36.1922 210.804 36.5379 211.033C36.8867 211.258 37.0611 211.59 37.0611 212.029C37.0611 212.255 36.9934 212.459 36.8581 212.643C36.7228 212.823 36.5229 212.961 36.2583 213.058C36.553 213.127 36.789 213.262 36.9664 213.464C37.1468 213.665 37.237 213.906 37.237 214.185C37.237 214.633 37.0716 214.976 36.7409 215.213C36.4132 215.451 35.9486 215.57 35.3473 215.57H33.1419ZM33.9763 213.427V214.898H35.3563C35.7051 214.898 35.9652 214.833 36.1365 214.704C36.3109 214.574 36.3981 214.393 36.3981 214.158C36.3981 213.671 36.0403 213.427 35.3247 213.427H33.9763ZM33.9763 212.76H35.0541C35.8359 212.76 36.2267 212.531 36.2267 212.074C36.2267 211.617 35.8569 211.381 35.1173 211.366H33.9763V212.76ZM41.3546 215.57C41.3065 215.473 41.2674 215.302 41.2373 215.056C40.8495 215.458 40.3865 215.66 39.8483 215.66C39.3672 215.66 38.9718 215.525 38.6621 215.254C38.3555 214.98 38.2021 214.635 38.2021 214.217C38.2021 213.709 38.3945 213.315 38.7794 213.035C39.1673 212.752 39.7115 212.611 40.412 212.611H41.2238V212.228C41.2238 211.936 41.1366 211.705 40.9622 211.533C40.7878 211.359 40.5308 211.272 40.191 211.272C39.8934 211.272 39.6438 211.347 39.4424 211.497C39.2409 211.648 39.1402 211.829 39.1402 212.043H38.3013C38.3013 211.799 38.387 211.565 38.5584 211.339C38.7328 211.111 38.9673 210.93 39.262 210.798C39.5596 210.666 39.8858 210.6 40.2406 210.6C40.8029 210.6 41.2434 210.741 41.5621 211.024C41.8808 211.303 42.0461 211.69 42.0582 212.183V214.429C42.0582 214.877 42.1153 215.233 42.2295 215.498V215.57H41.3546ZM39.97 214.934C40.2316 214.934 40.4797 214.866 40.7142 214.731C40.9487 214.596 41.1186 214.42 41.2238 214.203V213.202H40.5699C39.5476 213.202 39.0365 213.501 39.0365 214.099C39.0365 214.361 39.1237 214.565 39.298 214.713C39.4724 214.86 39.6964 214.934 39.97 214.934ZM47.3529 215.57H46.5185V213.486H44.2771V215.57H43.4382V210.69H44.2771V212.805H46.5185V210.69H47.3529V215.57ZM51.8538 210.69H52.6882V215.57H51.8538V212.011L49.6034 215.57H48.769V210.69H49.6034V214.253L51.8538 210.69ZM56.0526 215.66C55.3912 215.66 54.853 215.443 54.4381 215.01C54.0231 214.574 53.8157 213.993 53.8157 213.265V213.112C53.8157 212.628 53.9074 212.196 54.0908 211.817C54.2772 211.436 54.5358 211.138 54.8665 210.924C55.2002 210.708 55.561 210.6 55.9489 210.6C56.5833 210.6 57.0764 210.809 57.4282 211.227C57.78 211.645 57.9558 212.243 57.9558 213.022V213.369H54.65C54.6621 213.85 54.8019 214.239 55.0695 214.537C55.3401 214.832 55.6828 214.979 56.0977 214.979C56.3924 214.979 56.6419 214.919 56.8464 214.798C57.0508 214.678 57.2297 214.519 57.3831 214.32L57.8927 214.717C57.4838 215.346 56.8704 215.66 56.0526 215.66ZM55.9489 211.285C55.6122 211.285 55.3295 211.408 55.101 211.655C54.8725 211.899 54.7312 212.241 54.6771 212.683H57.1215V212.62C57.0974 212.196 56.9832 211.869 56.7787 211.637C56.5743 211.402 56.2977 211.285 55.9489 211.285ZM62.8131 214.347L63.9496 210.69H64.8426L62.8807 216.323C62.5771 217.135 62.0945 217.541 61.433 217.541L61.2752 217.527L60.964 217.468V216.792L61.1895 216.81C61.4721 216.81 61.6916 216.753 61.848 216.639C62.0073 216.524 62.1381 216.315 62.2403 216.012L62.4252 215.516L60.6844 210.69H61.5954L62.8131 214.347ZM67.4854 214.979C67.7831 214.979 68.0432 214.889 68.2657 214.708C68.4882 214.528 68.6114 214.302 68.6355 214.032H69.4247C69.4097 214.311 69.3135 214.578 69.1361 214.83C68.9587 215.083 68.7212 215.284 68.4235 215.434C68.1289 215.585 67.8162 215.66 67.4854 215.66C66.821 215.66 66.2918 215.439 65.8979 214.997C65.5071 214.552 65.3116 213.945 65.3116 213.175V213.035C65.3116 212.56 65.3988 212.138 65.5732 211.768C65.7476 211.398 65.9971 211.111 66.3219 210.906C66.6496 210.702 67.0359 210.6 67.4809 210.6C68.0281 210.6 68.4822 210.764 68.8429 211.091C69.2068 211.419 69.4007 211.844 69.4247 212.368H68.6355C68.6114 212.052 68.4912 211.793 68.2747 211.592C68.0612 211.387 67.7966 211.285 67.4809 211.285C67.057 211.285 66.7278 211.439 66.4932 211.745C66.2617 212.049 66.146 212.489 66.146 213.067V213.225C66.146 213.787 66.2617 214.22 66.4932 214.523C66.7248 214.827 67.0555 214.979 67.4854 214.979ZM74.3632 210.69V215.57H73.5243V211.38H71.8646L71.7654 213.206C71.7113 214.045 71.57 214.645 71.3415 215.006C71.116 215.367 70.7567 215.555 70.2636 215.57H69.9299V214.835L70.1689 214.817C70.4395 214.786 70.6334 214.63 70.7507 214.347C70.8679 214.065 70.9431 213.542 70.9762 212.778L71.0664 210.69H74.3632ZM77.2992 214.347L78.4357 210.69H79.3287L77.3668 216.323C77.0631 217.135 76.5806 217.541 75.9191 217.541L75.7613 217.527L75.4501 217.468V216.792L75.6756 216.81C75.9582 216.81 76.1777 216.753 76.334 216.639C76.4934 216.524 76.6242 216.315 76.7264 216.012L76.9113 215.516L75.1705 210.69H76.0815L77.2992 214.347ZM83.2298 211.38H80.9793V215.57H80.1405V210.69H83.2298V211.38ZM87.1129 210.69H87.9472V215.57H87.1129V212.011L84.8624 215.57H84.0281V210.69H84.8624V214.253L87.1129 210.69Z" fill="black"/>
<path d="M196.87 215.57H192.455V214.817L194.642 212.431C194.958 212.079 195.182 211.786 195.314 211.551C195.45 211.314 195.517 211.076 195.517 210.839C195.517 210.526 195.428 210.273 195.251 210.081C195.077 209.889 194.841 209.792 194.543 209.792C194.188 209.792 193.913 209.901 193.718 210.117C193.522 210.334 193.425 210.63 193.425 211.006H192.329C192.329 210.606 192.419 210.246 192.599 209.928C192.783 209.606 193.043 209.356 193.379 209.179C193.719 209.002 194.11 208.913 194.552 208.913C195.189 208.913 195.692 209.074 196.058 209.396C196.428 209.714 196.613 210.156 196.613 210.721C196.613 211.049 196.52 211.393 196.333 211.754C196.15 212.112 195.848 212.519 195.427 212.976L193.821 214.695H196.87V215.57ZM201.985 212.805C201.985 213.749 201.807 214.462 201.452 214.943C201.101 215.421 200.564 215.66 199.842 215.66C199.133 215.66 198.598 215.427 198.237 214.961C197.879 214.492 197.696 213.799 197.686 212.882V211.745C197.686 210.801 197.862 210.093 198.214 209.621C198.569 209.149 199.109 208.913 199.833 208.913C200.552 208.913 201.087 209.143 201.439 209.603C201.794 210.063 201.975 210.752 201.985 211.669V212.805ZM200.889 211.578C200.889 210.962 200.804 210.511 200.636 210.225C200.468 209.937 200.2 209.792 199.833 209.792C199.475 209.792 199.212 209.929 199.044 210.203C198.876 210.473 198.787 210.897 198.778 211.475V212.963C198.778 213.576 198.864 214.033 199.035 214.334C199.206 214.635 199.475 214.785 199.842 214.785C200.194 214.785 200.454 214.647 200.622 214.37C200.791 214.09 200.88 213.654 200.889 213.062V211.578ZM209.597 213.179C209.597 213.934 209.426 214.537 209.083 214.988C208.74 215.436 208.28 215.66 207.703 215.66C207.168 215.66 206.74 215.484 206.418 215.132V217.446H205.322V210.69H206.332L206.377 211.186C206.699 210.795 207.136 210.6 207.69 210.6C208.285 210.6 208.751 210.822 209.088 211.267C209.427 211.709 209.597 212.324 209.597 213.112V213.179ZM208.506 213.085C208.506 212.598 208.408 212.211 208.213 211.926C208.02 211.64 207.744 211.497 207.383 211.497C206.935 211.497 206.613 211.682 206.418 212.052V214.217C206.616 214.596 206.941 214.785 207.392 214.785C207.741 214.785 208.013 214.645 208.208 214.366C208.407 214.083 208.506 213.656 208.506 213.085ZM212.182 214L213.174 210.69H214.342L212.403 216.309C212.105 217.13 211.6 217.541 210.887 217.541C210.728 217.541 210.552 217.514 210.36 217.459V216.612L210.567 216.625C210.844 216.625 211.051 216.574 211.189 216.472C211.331 216.372 211.442 216.204 211.523 215.967L211.681 215.547L209.967 210.69H211.149L212.182 214ZM217.273 210.96C217.887 210.96 218.378 211.166 218.748 211.578C219.118 211.987 219.303 212.544 219.303 213.247V213.301C219.303 214.005 219.101 214.574 218.699 215.01C218.299 215.446 217.754 215.664 217.066 215.664C216.395 215.664 215.854 215.442 215.442 214.997C215.03 214.552 214.824 213.945 214.824 213.175V212.859C214.824 211.807 215.011 210.974 215.384 210.361C215.756 209.747 216.313 209.364 217.052 209.211C217.467 209.126 217.735 209.038 217.855 208.945C217.978 208.848 218.04 208.719 218.04 208.557H218.924C218.924 208.86 218.874 209.107 218.775 209.296C218.676 209.486 218.524 209.641 218.32 209.761C218.115 209.878 217.763 209.989 217.264 210.095C216.807 210.191 216.459 210.362 216.218 210.609C215.98 210.855 215.821 211.197 215.74 211.632C216.176 211.184 216.687 210.96 217.273 210.96ZM217.057 211.84C216.702 211.84 216.424 211.96 216.223 212.201C216.021 212.438 215.92 212.805 215.92 213.301C215.92 213.77 216.02 214.136 216.218 214.397C216.416 214.659 216.699 214.789 217.066 214.789C217.43 214.789 217.711 214.659 217.909 214.397C218.111 214.133 218.211 213.736 218.211 213.206C218.211 212.786 218.111 212.453 217.909 212.21C217.711 211.963 217.427 211.84 217.057 211.84ZM220.845 214.415C221.05 214.415 221.208 214.474 221.319 214.591C221.43 214.705 221.486 214.85 221.486 215.024C221.486 215.195 221.43 215.338 221.319 215.452C221.208 215.564 221.05 215.619 220.845 215.619C220.65 215.619 220.495 215.564 220.381 215.452C220.266 215.341 220.209 215.198 220.209 215.024C220.209 214.85 220.265 214.705 220.376 214.591C220.487 214.474 220.644 214.415 220.845 214.415Z" fill="black"/>
<rect x="16.1348" y="226.99" width="206.044" height="0.710496" fill="#EFEFEF"/>
<rect x="16.49" y="238.713" width="205.333" height="24.1569" rx="3.19723" stroke="#D6D6D6" stroke-width="0.710496"/>
<path d="M89.5902 256.072H88.7288V254.462H84.0158V256.077H83.1499L83.1454 253.754H83.6821C83.9647 253.436 84.1887 253.009 84.3541 252.473C84.5225 251.935 84.6277 251.346 84.6698 250.706L84.8141 247.896H88.7423V253.754H89.5992L89.5902 256.072ZM84.6698 253.754H87.8719V248.608H85.6485L85.5538 250.539C85.5147 251.293 85.4139 251.937 85.2516 252.469C85.0922 253.001 84.8983 253.43 84.6698 253.754ZM90.2757 251.977C90.2757 251.499 90.3689 251.069 90.5553 250.688C90.7447 250.306 91.0063 250.011 91.3401 249.804C91.6768 249.596 92.0602 249.492 92.4901 249.492C93.1546 249.492 93.6913 249.722 94.1002 250.182C94.5121 250.642 94.718 251.254 94.718 252.018V252.077C94.718 252.552 94.6263 252.979 94.4429 253.357C94.2625 253.733 94.0025 254.026 93.6627 254.237C93.326 254.447 92.9381 254.553 92.4991 254.553C91.8377 254.553 91.301 254.323 90.8891 253.863C90.4802 253.403 90.2757 252.794 90.2757 252.036V251.977ZM91.1146 252.077C91.1146 252.618 91.2393 253.052 91.4889 253.38C91.7415 253.708 92.0782 253.872 92.4991 253.872C92.9231 253.872 93.2598 253.706 93.5094 253.375C93.7589 253.042 93.8837 252.576 93.8837 251.977C93.8837 251.442 93.7559 251.009 93.5003 250.679C93.2478 250.345 92.911 250.178 92.4901 250.178C92.0782 250.178 91.746 250.342 91.4934 250.67C91.2408 250.997 91.1146 251.466 91.1146 252.077ZM97.9066 249.862C98.52 249.862 99.01 250.068 99.3769 250.48C99.7467 250.889 99.9316 251.429 99.9316 252.099V252.176C99.9316 252.636 99.8429 253.048 99.6655 253.412C99.4881 253.772 99.2325 254.053 98.8988 254.255C98.5681 254.453 98.1862 254.553 97.7533 254.553C97.0978 254.553 96.5701 254.335 96.1703 253.899C95.7704 253.46 95.5704 252.872 95.5704 252.135V251.729C95.5704 250.704 95.7598 249.889 96.1387 249.285C96.5205 248.681 97.0828 248.312 97.8254 248.18C98.2464 248.105 98.5305 248.013 98.6778 247.905C98.8251 247.797 98.8988 247.648 98.8988 247.458H99.5843C99.5843 247.834 99.4986 248.127 99.3272 248.338C99.1589 248.548 98.8883 248.697 98.5154 248.784L97.8931 248.924C97.397 249.041 97.0241 249.24 96.7746 249.519C96.528 249.796 96.3672 250.166 96.292 250.629C96.734 250.118 97.2722 249.862 97.9066 249.862ZM97.7442 250.548C97.3353 250.548 97.0106 250.686 96.7701 250.963C96.5296 251.236 96.4093 251.617 96.4093 252.104V252.176C96.4093 252.699 96.5296 253.114 96.7701 253.421C97.0136 253.724 97.3413 253.876 97.7533 253.876C98.1682 253.876 98.4959 253.723 98.7364 253.416C98.977 253.109 99.0972 252.661 99.0972 252.072C99.0972 251.612 98.9755 251.244 98.7319 250.967C98.4914 250.688 98.1622 250.548 97.7442 250.548ZM103.882 254.462C103.834 254.366 103.795 254.195 103.765 253.948C103.377 254.351 102.914 254.553 102.376 254.553C101.895 254.553 101.5 254.417 101.19 254.147C100.883 253.873 100.73 253.527 100.73 253.109C100.73 252.601 100.922 252.207 101.307 251.928C101.695 251.645 102.239 251.504 102.94 251.504H103.752V251.121C103.752 250.829 103.664 250.597 103.49 250.426C103.316 250.252 103.059 250.164 102.719 250.164C102.421 250.164 102.172 250.24 101.97 250.39C101.769 250.54 101.668 250.722 101.668 250.936H100.829C100.829 250.692 100.915 250.458 101.086 250.232C101.261 250.004 101.495 249.823 101.79 249.691C102.087 249.559 102.414 249.492 102.768 249.492C103.331 249.492 103.771 249.634 104.09 249.916C104.408 250.196 104.574 250.582 104.586 251.075V253.321C104.586 253.769 104.643 254.126 104.757 254.39V254.462H103.882ZM102.498 253.826C102.759 253.826 103.007 253.759 103.242 253.624C103.476 253.488 103.646 253.312 103.752 253.096V252.095H103.098C102.075 252.095 101.564 252.394 101.564 252.992C101.564 253.254 101.651 253.458 101.826 253.606C102 253.753 102.224 253.826 102.498 253.826ZM105.97 254.462V249.583H107.874C108.523 249.583 109.021 249.697 109.366 249.925C109.715 250.151 109.89 250.483 109.89 250.922C109.89 251.148 109.822 251.352 109.687 251.535C109.551 251.716 109.351 251.854 109.087 251.95C109.382 252.019 109.618 252.155 109.795 252.356C109.975 252.558 110.066 252.798 110.066 253.078C110.066 253.526 109.9 253.869 109.569 254.106C109.242 254.344 108.777 254.462 108.176 254.462H105.97ZM106.805 252.32V253.79H108.185C108.534 253.79 108.794 253.726 108.965 253.596C109.139 253.467 109.227 253.285 109.227 253.051C109.227 252.564 108.869 252.32 108.153 252.32H106.805ZM106.805 251.653H107.883C108.664 251.653 109.055 251.424 109.055 250.967C109.055 250.51 108.685 250.274 107.946 250.259H106.805V251.653ZM114.327 249.583H115.162V254.462H114.327V250.904L112.077 254.462H111.243V249.583H112.077V253.145L114.327 249.583ZM120.127 250.259H118.49V254.462H117.656V250.259H116.05V249.583H120.127V250.259ZM121.85 251.265H123.117C123.671 251.271 124.108 251.415 124.43 251.698C124.752 251.98 124.912 252.364 124.912 252.848C124.912 253.335 124.747 253.726 124.416 254.02C124.086 254.315 123.641 254.462 123.081 254.462H121.016V249.583H121.85V251.265ZM121.85 251.946V253.781H123.09C123.403 253.781 123.645 253.702 123.816 253.542C123.988 253.38 124.074 253.159 124.074 252.879C124.074 252.609 123.989 252.388 123.821 252.216C123.656 252.042 123.423 251.952 123.122 251.946H121.85ZM129.842 253.24L130.978 249.583H131.871L129.909 255.216C129.606 256.027 129.123 256.433 128.462 256.433L128.304 256.42L127.993 256.361V255.685L128.218 255.703C128.501 255.703 128.72 255.646 128.877 255.531C129.036 255.417 129.167 255.208 129.269 254.904L129.454 254.408L127.713 249.583H128.624L129.842 253.24ZM134.514 253.872C134.812 253.872 135.072 253.781 135.294 253.601C135.517 253.421 135.64 253.195 135.664 252.924H136.453C136.438 253.204 136.342 253.47 136.165 253.723C135.987 253.975 135.75 254.177 135.452 254.327C135.158 254.477 134.845 254.553 134.514 254.553C133.85 254.553 133.32 254.332 132.927 253.89C132.536 253.445 132.34 252.837 132.34 252.068V251.928C132.34 251.453 132.428 251.03 132.602 250.66C132.776 250.291 133.026 250.004 133.351 249.799C133.678 249.595 134.065 249.492 134.51 249.492C135.057 249.492 135.511 249.656 135.872 249.984C136.235 250.312 136.429 250.737 136.453 251.26H135.664C135.64 250.945 135.52 250.686 135.303 250.485C135.09 250.28 134.825 250.178 134.51 250.178C134.086 250.178 133.756 250.331 133.522 250.638C133.29 250.942 133.175 251.382 133.175 251.959V252.117C133.175 252.679 133.29 253.112 133.522 253.416C133.753 253.72 134.084 253.872 134.514 253.872ZM141.392 249.583V254.462H140.553V250.273H138.893L138.794 252.099C138.74 252.938 138.599 253.538 138.37 253.899C138.145 254.259 137.785 254.447 137.292 254.462H136.959V253.727L137.198 253.709C137.468 253.679 137.662 253.523 137.779 253.24C137.897 252.958 137.972 252.434 138.005 251.671L138.095 249.583H141.392ZM144.328 253.24L145.464 249.583H146.357L144.396 255.216C144.092 256.027 143.609 256.433 142.948 256.433L142.79 256.42L142.479 256.361V255.685L142.704 255.703C142.987 255.703 143.206 255.646 143.363 255.531C143.522 255.417 143.653 255.208 143.755 254.904L143.94 254.408L142.199 249.583H143.11L144.328 253.24ZM150.258 250.273H148.008V254.462H147.169V249.583H150.258V250.273ZM152.581 253.24L153.718 249.583H154.611L152.649 255.216C152.345 256.027 151.863 256.433 151.201 256.433L151.043 256.42L150.732 256.361V255.685L150.958 255.703C151.24 255.703 151.46 255.646 151.616 255.531C151.775 255.417 151.906 255.208 152.008 254.904L152.193 254.408L150.452 249.583H151.363L152.581 253.24Z" fill="#20AF48"/>
<rect x="16.49" y="325.393" width="205.333" height="24.1569" rx="3.19723" stroke="#D6D6D6" stroke-width="0.710496"/>
<path d="M89.5902 342.753H88.7288V341.143H84.0158V342.758H83.1499L83.1454 340.435H83.6821C83.9647 340.116 84.1887 339.689 84.3541 339.154C84.5225 338.616 84.6277 338.027 84.6698 337.386L84.8141 334.576H88.7423V340.435H89.5992L89.5902 342.753ZM84.6698 340.435H87.8719V335.289H85.6485L85.5538 337.219C85.5147 337.974 85.4139 338.617 85.2516 339.15C85.0922 339.682 84.8983 340.11 84.6698 340.435ZM90.2757 338.658C90.2757 338.18 90.3689 337.75 90.5553 337.368C90.7447 336.986 91.0063 336.692 91.3401 336.484C91.6768 336.277 92.0602 336.173 92.4901 336.173C93.1546 336.173 93.6913 336.403 94.1002 336.863C94.5121 337.323 94.718 337.935 94.718 338.699V338.757C94.718 339.232 94.6263 339.659 94.4429 340.038C94.2625 340.414 94.0025 340.707 93.6627 340.917C93.326 341.128 92.9381 341.233 92.4991 341.233C91.8377 341.233 91.301 341.003 90.8891 340.543C90.4802 340.083 90.2757 339.474 90.2757 338.717V338.658ZM91.1146 338.757C91.1146 339.298 91.2393 339.733 91.4889 340.061C91.7415 340.388 92.0782 340.552 92.4991 340.552C92.9231 340.552 93.2598 340.387 93.5094 340.056C93.7589 339.722 93.8837 339.256 93.8837 338.658C93.8837 338.123 93.7559 337.69 93.5003 337.359C93.2478 337.025 92.911 336.858 92.4901 336.858C92.0782 336.858 91.746 337.022 91.4934 337.35C91.2408 337.678 91.1146 338.147 91.1146 338.757ZM97.9066 336.543C98.52 336.543 99.01 336.749 99.3769 337.161C99.7467 337.57 99.9316 338.109 99.9316 338.78V338.856C99.9316 339.316 99.8429 339.728 99.6655 340.092C99.4881 340.453 99.2325 340.734 98.8988 340.935C98.5681 341.134 98.1862 341.233 97.7533 341.233C97.0978 341.233 96.5701 341.015 96.1703 340.579C95.7704 340.14 95.5704 339.552 95.5704 338.816V338.41C95.5704 337.385 95.7598 336.57 96.1387 335.965C96.5205 335.361 97.0828 334.993 97.8254 334.861C98.2464 334.785 98.5305 334.694 98.6778 334.585C98.8251 334.477 98.8988 334.328 98.8988 334.139H99.5843C99.5843 334.515 99.4986 334.808 99.3272 335.018C99.1589 335.229 98.8883 335.378 98.5154 335.465L97.8931 335.605C97.397 335.722 97.0241 335.92 96.7746 336.2C96.528 336.477 96.3672 336.846 96.292 337.309C96.734 336.798 97.2722 336.543 97.9066 336.543ZM97.7442 337.228C97.3353 337.228 97.0106 337.367 96.7701 337.643C96.5296 337.917 96.4093 338.297 96.4093 338.784V338.856C96.4093 339.38 96.5296 339.794 96.7701 340.101C97.0136 340.405 97.3413 340.557 97.7533 340.557C98.1682 340.557 98.4959 340.403 98.7364 340.097C98.977 339.79 99.0972 339.342 99.0972 338.753C99.0972 338.293 98.9755 337.924 98.7319 337.648C98.4914 337.368 98.1622 337.228 97.7442 337.228ZM103.882 341.143C103.834 341.047 103.795 340.875 103.765 340.629C103.377 341.032 102.914 341.233 102.376 341.233C101.895 341.233 101.5 341.098 101.19 340.827C100.883 340.554 100.73 340.208 100.73 339.79C100.73 339.282 100.922 338.888 101.307 338.608C101.695 338.326 102.239 338.184 102.94 338.184H103.752V337.801C103.752 337.509 103.664 337.278 103.49 337.107C103.316 336.932 103.059 336.845 102.719 336.845C102.421 336.845 102.172 336.92 101.97 337.07C101.769 337.221 101.668 337.403 101.668 337.616H100.829C100.829 337.373 100.915 337.138 101.086 336.913C101.261 336.684 101.495 336.504 101.79 336.371C102.087 336.239 102.414 336.173 102.768 336.173C103.331 336.173 103.771 336.314 104.09 336.597C104.408 336.876 104.574 337.263 104.586 337.756V340.002C104.586 340.45 104.643 340.806 104.757 341.071V341.143H103.882ZM102.498 340.507C102.759 340.507 103.007 340.439 103.242 340.304C103.476 340.169 103.646 339.993 103.752 339.776V338.775H103.098C102.075 338.775 101.564 339.074 101.564 339.673C101.564 339.934 101.651 340.139 101.826 340.286C102 340.433 102.224 340.507 102.498 340.507ZM105.97 341.143V336.263H107.874C108.523 336.263 109.021 336.377 109.366 336.606C109.715 336.831 109.89 337.164 109.89 337.603C109.89 337.828 109.822 338.033 109.687 338.216C109.551 338.396 109.351 338.535 109.087 338.631C109.382 338.7 109.618 338.835 109.795 339.037C109.975 339.238 110.066 339.479 110.066 339.758C110.066 340.206 109.9 340.549 109.569 340.787C109.242 341.024 108.777 341.143 108.176 341.143H105.97ZM106.805 339.001V340.471H108.185C108.534 340.471 108.794 340.406 108.965 340.277C109.139 340.148 109.227 339.966 109.227 339.731C109.227 339.244 108.869 339.001 108.153 339.001H106.805ZM106.805 338.333H107.883C108.664 338.333 109.055 338.105 109.055 337.648C109.055 337.191 108.685 336.955 107.946 336.94H106.805V338.333ZM114.327 336.263H115.162V341.143H114.327V337.585L112.077 341.143H111.243V336.263H112.077V339.826L114.327 336.263ZM120.127 336.94H118.49V341.143H117.656V336.94H116.05V336.263H120.127V336.94ZM121.85 337.945H123.117C123.671 337.951 124.108 338.096 124.43 338.378C124.752 338.661 124.912 339.044 124.912 339.528C124.912 340.015 124.747 340.406 124.416 340.701C124.086 340.996 123.641 341.143 123.081 341.143H121.016V336.263H121.85V337.945ZM121.85 338.626V340.462H123.09C123.403 340.462 123.645 340.382 123.816 340.223C123.988 340.061 124.074 339.84 124.074 339.56C124.074 339.289 123.989 339.068 123.821 338.897C123.656 338.723 123.423 338.632 123.122 338.626H121.85ZM129.842 339.921L130.978 336.263H131.871L129.909 341.896C129.606 342.708 129.123 343.114 128.462 343.114L128.304 343.1L127.993 343.042V342.365L128.218 342.383C128.501 342.383 128.72 342.326 128.877 342.212C129.036 342.098 129.167 341.889 129.269 341.585L129.454 341.089L127.713 336.263H128.624L129.842 339.921ZM134.514 340.552C134.812 340.552 135.072 340.462 135.294 340.282C135.517 340.101 135.64 339.876 135.664 339.605H136.453C136.438 339.885 136.342 340.151 136.165 340.403C135.987 340.656 135.75 340.857 135.452 341.008C135.158 341.158 134.845 341.233 134.514 341.233C133.85 341.233 133.32 341.012 132.927 340.57C132.536 340.125 132.34 339.518 132.34 338.748V338.608C132.34 338.133 132.428 337.711 132.602 337.341C132.776 336.971 133.026 336.684 133.351 336.48C133.678 336.275 134.065 336.173 134.51 336.173C135.057 336.173 135.511 336.337 135.872 336.665C136.235 336.992 136.429 337.418 136.453 337.941H135.664C135.64 337.625 135.52 337.367 135.303 337.165C135.09 336.961 134.825 336.858 134.51 336.858C134.086 336.858 133.756 337.012 133.522 337.318C133.29 337.622 133.175 338.063 133.175 338.64V338.798C133.175 339.36 133.29 339.793 133.522 340.097C133.753 340.4 134.084 340.552 134.514 340.552ZM141.392 336.263V341.143H140.553V336.953H138.893L138.794 338.78C138.74 339.619 138.599 340.218 138.37 340.579C138.145 340.94 137.785 341.128 137.292 341.143H136.959V340.408L137.198 340.39C137.468 340.36 137.662 340.203 137.779 339.921C137.897 339.638 137.972 339.115 138.005 338.351L138.095 336.263H141.392ZM144.328 339.921L145.464 336.263H146.357L144.396 341.896C144.092 342.708 143.609 343.114 142.948 343.114L142.79 343.1L142.479 343.042V342.365L142.704 342.383C142.987 342.383 143.206 342.326 143.363 342.212C143.522 342.098 143.653 341.889 143.755 341.585L143.94 341.089L142.199 336.263H143.11L144.328 339.921ZM150.258 336.953H148.008V341.143H147.169V336.263H150.258V336.953ZM152.581 339.921L153.718 336.263H154.611L152.649 341.896C152.345 342.708 151.863 343.114 151.201 343.114L151.043 343.1L150.732 343.042V342.365L150.958 342.383C151.24 342.383 151.46 342.326 151.616 342.212C151.775 342.098 151.906 341.889 152.008 341.585L152.193 341.089L150.452 336.263H151.363L152.581 339.921Z" fill="#20AF48"/>
<rect x="16.1348" y="437.716" width="206.044" height="28.4198" rx="3.55248" fill="#20AF48"/>
<path d="M76.6352 453.127C76.5415 453.928 76.2449 454.547 75.7453 454.985C75.2492 455.418 74.5883 455.635 73.7627 455.635C72.8676 455.635 72.1495 455.314 71.6083 454.672C71.0705 454.031 70.8017 453.172 70.8017 452.096V451.368C70.8017 450.664 70.9266 450.044 71.1764 449.51C71.4296 448.976 71.7869 448.567 72.2483 448.282C72.7098 447.994 73.244 447.85 73.8511 447.85C74.656 447.85 75.3013 448.076 75.7869 448.527C76.2726 448.974 76.5554 449.595 76.6352 450.39H75.6308C75.5441 449.786 75.355 449.349 75.0636 449.078C74.7757 448.808 74.3715 448.672 73.8511 448.672C73.2128 448.672 72.7115 448.908 72.3472 449.38C71.9864 449.852 71.806 450.523 71.806 451.394V452.128C71.806 452.95 71.9777 453.604 72.3212 454.09C72.6647 454.575 73.1451 454.818 73.7627 454.818C74.3177 454.818 74.7427 454.693 75.0376 454.443C75.336 454.19 75.5337 453.751 75.6308 453.127H76.6352ZM77.5979 452.664C77.5979 452.112 77.7054 451.616 77.9205 451.175C78.1391 450.735 78.4409 450.395 78.826 450.155C79.2145 449.916 79.6569 449.796 80.153 449.796C80.9197 449.796 81.5389 450.062 82.0107 450.593C82.486 451.123 82.7237 451.829 82.7237 452.711V452.778C82.7237 453.326 82.6178 453.819 82.4062 454.256C82.1981 454.69 81.898 455.028 81.506 455.271C81.1174 455.514 80.6699 455.635 80.1634 455.635C79.4001 455.635 78.7809 455.37 78.3056 454.839C77.8338 454.308 77.5979 453.606 77.5979 452.731V452.664ZM78.5658 452.778C78.5658 453.403 78.7098 453.904 78.9977 454.282C79.2891 454.66 79.6777 454.849 80.1634 454.849C80.6525 454.849 81.0411 454.658 81.329 454.277C81.617 453.892 81.7609 453.354 81.7609 452.664C81.7609 452.046 81.6135 451.547 81.3186 451.165C81.0272 450.78 80.6386 450.587 80.153 450.587C79.6777 450.587 79.2943 450.776 79.0029 451.155C78.7115 451.533 78.5658 452.074 78.5658 452.778ZM87.0272 451.441C87.0272 451.177 86.9266 450.969 86.7254 450.816C86.5242 450.66 86.2484 450.582 85.898 450.582C85.558 450.582 85.2735 450.671 85.0446 450.848C84.8191 451.024 84.7063 451.233 84.7063 451.472H83.7488C83.7488 450.983 83.9535 450.582 84.3629 450.27C84.7722 449.958 85.2839 449.802 85.898 449.802C86.5571 449.802 87.0706 449.944 87.4383 450.228C87.8061 450.509 87.9899 450.912 87.9899 451.436C87.9899 451.689 87.9136 451.921 87.761 452.133C87.6083 452.345 87.3915 452.513 87.1105 452.638C87.7662 452.86 88.094 453.297 88.094 453.949C88.094 454.466 87.8945 454.875 87.4956 455.177C87.0966 455.479 86.5641 455.63 85.898 455.63C85.2492 455.63 84.7132 455.472 84.29 455.156C83.8702 454.837 83.6603 454.407 83.6603 453.866H84.6178C84.6178 454.14 84.7393 454.376 84.9821 454.574C85.2284 454.768 85.5337 454.865 85.898 454.865C86.2657 454.865 86.5623 454.78 86.7878 454.61C87.0133 454.44 87.1261 454.22 87.1261 453.949C87.1261 453.633 87.0307 453.408 86.8399 453.273C86.6525 453.134 86.3594 453.064 85.9604 453.064H84.9977V452.253H86.0437C86.6994 452.235 87.0272 451.965 87.0272 451.441ZM89.2961 454.745L89.6291 454.334C90.0038 453.848 90.2172 453.12 90.2692 452.149L90.3577 449.9H93.9847V454.745H94.7081V457.186H93.7454V455.531H89.8165V457.186H88.8538L88.859 454.745H89.2961ZM90.4357 454.745H93.022V450.79H91.2891L91.2319 452.133C91.1729 453.253 90.9075 454.124 90.4357 454.745ZM99.251 455.531C99.1955 455.42 99.1504 455.222 99.1157 454.938C98.6682 455.403 98.1339 455.635 97.5129 455.635C96.9579 455.635 96.5016 455.479 96.1443 455.167C95.7905 454.851 95.6135 454.452 95.6135 453.97C95.6135 453.384 95.8356 452.929 96.2796 452.606C96.7271 452.28 97.3551 452.117 98.1634 452.117H99.1001V451.675C99.1001 451.338 98.9995 451.071 98.7983 450.874C98.5971 450.672 98.3004 450.572 97.9084 450.572C97.565 450.572 97.277 450.658 97.0446 450.832C96.8121 451.005 96.6959 451.215 96.6959 451.462H95.728C95.728 451.181 95.8269 450.91 96.0246 450.65C96.2258 450.386 96.4964 450.178 96.8364 450.025C97.1799 449.873 97.5563 449.796 97.9657 449.796C98.6144 449.796 99.1226 449.959 99.4904 450.286C99.8581 450.608 100.049 451.054 100.063 451.623V454.214C100.063 454.731 100.129 455.142 100.261 455.448V455.531H99.251ZM97.6534 454.797C97.9553 454.797 98.2415 454.719 98.5121 454.563C98.7827 454.407 98.9787 454.204 99.1001 453.954V452.799H98.3455C97.166 452.799 96.5762 453.144 96.5762 453.835C96.5762 454.136 96.6768 454.372 96.8781 454.542C97.0793 454.712 97.3377 454.797 97.6534 454.797ZM105.673 450.681H103.784V455.531H102.821V450.681H100.968V449.9H105.673V450.681ZM107.66 451.841H109.123C109.761 451.848 110.266 452.015 110.637 452.341C111.008 452.667 111.194 453.109 111.194 453.668C111.194 454.23 111.003 454.681 110.621 455.021C110.24 455.361 109.726 455.531 109.081 455.531H106.698V449.9H107.66V451.841ZM107.66 452.627V454.745H109.091C109.452 454.745 109.732 454.653 109.929 454.469C110.127 454.282 110.226 454.027 110.226 453.704C110.226 453.392 110.129 453.137 109.934 452.939C109.744 452.738 109.475 452.634 109.128 452.627H107.66ZM116.793 453.132H116.091V455.531H115.123V449.9H116.091V452.284H116.72L118.614 449.9H119.78L117.553 452.606L119.967 455.531H118.745L116.793 453.132ZM124.271 455.531C124.215 455.42 124.17 455.222 124.136 454.938C123.688 455.403 123.154 455.635 122.533 455.635C121.978 455.635 121.522 455.479 121.164 455.167C120.81 454.851 120.634 454.452 120.634 453.97C120.634 453.384 120.856 452.929 121.3 452.606C121.747 452.28 122.375 452.117 123.183 452.117H124.12V451.675C124.12 451.338 124.019 451.071 123.818 450.874C123.617 450.672 123.32 450.572 122.928 450.572C122.585 450.572 122.297 450.658 122.065 450.832C121.832 451.005 121.716 451.215 121.716 451.462H120.748C120.748 451.181 120.847 450.91 121.045 450.65C121.246 450.386 121.516 450.178 121.856 450.025C122.2 449.873 122.576 449.796 122.986 449.796C123.634 449.796 124.143 449.959 124.51 450.286C124.878 450.608 125.069 451.054 125.083 451.623V454.214C125.083 454.731 125.149 455.142 125.281 455.448V455.531H124.271ZM122.673 454.797C122.975 454.797 123.261 454.719 123.532 454.563C123.803 454.407 123.999 454.204 124.12 453.954V452.799H123.366C122.186 452.799 121.596 453.144 121.596 453.835C121.596 454.136 121.697 454.372 121.898 454.542C122.099 454.712 122.358 454.797 122.673 454.797ZM130.693 450.681H128.804V455.531H127.841V450.681H125.988V449.9H130.693V450.681ZM133.549 455.635C132.786 455.635 132.165 455.385 131.686 454.886C131.208 454.383 130.968 453.711 130.968 452.872V452.695C130.968 452.136 131.074 451.639 131.286 451.201C131.501 450.761 131.799 450.417 132.181 450.171C132.566 449.921 132.982 449.796 133.43 449.796C134.162 449.796 134.731 450.037 135.137 450.52C135.542 451.002 135.745 451.692 135.745 452.591V452.992H131.931C131.945 453.547 132.106 453.996 132.415 454.339C132.727 454.679 133.123 454.849 133.601 454.849C133.941 454.849 134.229 454.78 134.465 454.641C134.701 454.502 134.908 454.319 135.085 454.09L135.673 454.547C135.201 455.273 134.493 455.635 133.549 455.635ZM133.43 450.587C133.041 450.587 132.715 450.73 132.451 451.014C132.188 451.295 132.025 451.691 131.962 452.201H134.783V452.128C134.755 451.639 134.623 451.26 134.387 450.993C134.151 450.723 133.832 450.587 133.43 450.587ZM140.502 450.697H137.905V455.531H136.937V449.9H140.502V450.697ZM140.98 452.664C140.98 452.112 141.088 451.616 141.303 451.175C141.522 450.735 141.824 450.395 142.209 450.155C142.597 449.916 143.039 449.796 143.536 449.796C144.302 449.796 144.922 450.062 145.393 450.593C145.869 451.123 146.106 451.829 146.106 452.711V452.778C146.106 453.326 146 453.819 145.789 454.256C145.581 454.69 145.281 455.028 144.889 455.271C144.5 455.514 144.052 455.635 143.546 455.635C142.783 455.635 142.164 455.37 141.688 454.839C141.216 454.308 140.98 453.606 140.98 452.731V452.664ZM141.948 452.778C141.948 453.403 142.092 453.904 142.38 454.282C142.672 454.66 143.06 454.849 143.546 454.849C144.035 454.849 144.424 454.658 144.712 454.277C145 453.892 145.144 453.354 145.144 452.664C145.144 452.046 144.996 451.547 144.701 451.165C144.41 450.78 144.021 450.587 143.536 450.587C143.06 450.587 142.677 450.776 142.386 451.155C142.094 451.533 141.948 452.074 141.948 452.778ZM152.07 452.778C152.07 453.635 151.874 454.325 151.482 454.849C151.09 455.373 150.559 455.635 149.889 455.635C149.206 455.635 148.668 455.418 148.276 454.985V457.696H147.314V449.9H148.193L148.24 450.525C148.632 450.039 149.177 449.796 149.874 449.796C150.55 449.796 151.085 450.051 151.477 450.561C151.872 451.071 152.07 451.781 152.07 452.69V452.778ZM151.107 452.669C151.107 452.034 150.972 451.533 150.701 451.165C150.431 450.797 150.059 450.613 149.588 450.613C149.005 450.613 148.568 450.872 148.276 451.389V454.079C148.564 454.593 149.005 454.849 149.598 454.849C150.059 454.849 150.425 454.667 150.696 454.303C150.97 453.935 151.107 453.39 151.107 452.669ZM156.941 449.9H157.903V455.531H156.941V451.425L154.344 455.531H153.381V449.9H154.344V454.011L156.941 449.9ZM160.5 452.289H161.853C161.926 451.54 162.191 450.938 162.649 450.483C163.111 450.025 163.692 449.796 164.393 449.796C165.128 449.796 165.73 450.044 166.198 450.541C166.667 451.037 166.92 451.682 166.958 452.476L166.963 452.778C166.963 453.326 166.856 453.821 166.641 454.261C166.425 454.702 166.124 455.042 165.735 455.281C165.347 455.517 164.902 455.635 164.403 455.635C163.678 455.635 163.085 455.399 162.623 454.927C162.162 454.452 161.903 453.836 161.848 453.08H160.5V455.531H159.537V449.9H160.5V452.289ZM162.8 452.778C162.8 453.403 162.944 453.904 163.232 454.282C163.523 454.66 163.914 454.849 164.403 454.849C164.892 454.849 165.279 454.657 165.563 454.272C165.851 453.887 165.995 453.351 165.995 452.664C165.995 452.05 165.85 451.55 165.558 451.165C165.267 450.78 164.878 450.587 164.393 450.587C163.914 450.587 163.529 450.776 163.237 451.155C162.946 451.533 162.8 452.074 162.8 452.778Z" fill="white"/>
<rect x="5.47656" y="10.2882" width="227.359" height="28.4198" fill="black"/>
<path d="M224.129 29.1194C224.372 29.3625 224.372 29.7566 224.129 29.9997C223.886 30.2428 223.492 30.2428 223.249 29.9997L218.627 25.3783L214.006 29.9997C213.763 30.2428 213.369 30.2428 213.126 29.9997C212.883 29.7566 212.883 29.3625 213.126 29.1194L217.747 24.4981L213.126 19.8767C212.883 19.6336 212.883 19.2395 213.126 18.9964C213.369 18.7533 213.763 18.7533 214.006 18.9964L218.627 23.6178L223.249 18.9964C223.492 18.7533 223.886 18.7533 224.129 18.9964C224.372 19.2395 224.372 19.6336 224.129 19.8767L219.508 24.4981L224.129 29.1194Z" fill="white"/>
<path d="M22.8304 20.5765L26.3345 22.623H20.7863C19.6574 22.623 18.7423 23.5392 18.7423 24.6694C18.7423 25.7997 19.6574 26.7159 20.7863 26.7159H25.7505C26.7803 26.7159 27.6322 25.9535 27.7739 24.9618H28.9495C28.802 26.6009 27.4261 27.8853 25.7505 27.8853H20.7863C19.0123 27.8853 17.5742 26.4455 17.5742 24.6694C17.5742 22.8934 19.0123 21.4536 20.7863 21.4536H22.8304V20.5765Z" fill="white"/>
<path d="M29.5336 28.47H24.2905L27.5026 30.5165V29.6394H29.5336C31.3076 29.6394 32.7457 28.1996 32.7457 26.4236C32.7457 24.6475 31.3076 23.2077 29.5336 23.2077H24.5694C22.8938 23.2077 21.5179 24.4921 21.3704 26.1312H22.546C22.6877 25.1395 23.5396 24.3771 24.5694 24.3771H29.5336C30.6625 24.3771 31.5776 25.2933 31.5776 26.4236C31.5776 27.5538 30.6625 28.47 29.5336 28.47Z" fill="white"/>
<path d="M57.2024 28.947V23.7574H58.7404V28.947H57.2024Z" fill="white"/>
<path d="M57.9662 22.9936C57.7081 22.9936 57.4953 22.9203 57.3279 22.7738C57.1605 22.6204 57.0768 22.4251 57.0768 22.1879C57.0768 21.9507 57.1605 21.7589 57.3279 21.6124C57.4953 21.4659 57.7081 21.3927 57.9662 21.3927C58.2312 21.3927 58.444 21.4659 58.6044 21.6124C58.7718 21.7589 58.8555 21.9507 58.8555 22.1879C58.8555 22.4251 58.7718 22.6204 58.6044 22.7738C58.444 22.9203 58.2312 22.9936 57.9662 22.9936Z" fill="white"/>
<path fill-rule="evenodd" clip-rule="evenodd" d="M48.5299 29.0726C48.2997 29.0726 48.066 29.0168 47.8288 28.9052C47.5986 28.7866 47.3824 28.6157 47.1801 28.3925H47.1383L47.0127 28.947H45.8095V21.6124H47.3475V23.4121L47.3057 24.2073C47.508 24.0259 47.7242 23.8864 47.9544 23.7887C48.1915 23.6841 48.4322 23.6318 48.6763 23.6318C48.9902 23.6318 49.2727 23.6946 49.5238 23.8201C49.775 23.9457 49.9877 24.1236 50.1621 24.3538C50.3435 24.577 50.4795 24.8525 50.5702 25.1803C50.6678 25.5012 50.7166 25.8604 50.7166 26.258C50.7166 26.7045 50.6539 27.1021 50.5283 27.4508C50.4097 27.7996 50.2458 28.096 50.0365 28.3402C49.8342 28.5773 49.6006 28.7587 49.3355 28.8843C49.0774 29.0098 48.8089 29.0726 48.5299 29.0726ZM48.1741 27.817C48.4392 27.817 48.6659 27.6984 48.8542 27.4613C49.0425 27.2171 49.1367 26.8265 49.1367 26.2894C49.1367 25.3547 48.8368 24.8874 48.2369 24.8874C47.93 24.8874 47.6335 25.0443 47.3475 25.3582V27.4822C47.487 27.6078 47.6265 27.695 47.766 27.7438C47.9056 27.7926 48.0416 27.817 48.1741 27.817Z" fill="white"/>
<path fill-rule="evenodd" clip-rule="evenodd" d="M41.5552 29.0726C41.0949 29.0726 40.6728 28.9924 40.2892 28.832C39.9125 28.6645 39.5882 28.4274 39.3161 28.1205C39.0441 27.8135 38.8313 27.4404 38.6779 27.0009C38.5314 26.5615 38.4582 26.0627 38.4582 25.5047C38.4582 24.9467 38.5314 24.4514 38.6779 24.0189C38.8313 23.5795 39.0441 23.2133 39.3161 22.9203C39.5882 22.6204 39.9125 22.3937 40.2892 22.2402C40.6728 22.0798 41.0949 21.9996 41.5552 21.9996C42.0156 21.9996 42.4341 22.0798 42.8108 22.2402C43.1944 22.3937 43.5223 22.6204 43.7943 22.9203C44.0664 23.2203 44.2756 23.5899 44.4221 24.0294C44.5756 24.4619 44.6523 24.9536 44.6523 25.5047C44.6523 26.0627 44.5756 26.5615 44.4221 27.0009C44.2756 27.4404 44.0664 27.8135 43.7943 28.1205C43.5223 28.4274 43.1944 28.6645 42.8108 28.832C42.4341 28.9924 42.0156 29.0726 41.5552 29.0726ZM41.5552 27.7438C42.0226 27.7438 42.3923 27.545 42.6643 27.1474C42.9364 26.7428 43.0724 26.1953 43.0724 25.5047C43.0724 24.8211 42.9364 24.2875 42.6643 23.9038C42.3923 23.5202 42.0226 23.3284 41.5552 23.3284C41.0879 23.3284 40.7182 23.5202 40.4461 23.9038C40.1741 24.2875 40.0381 24.8211 40.0381 25.5047C40.0381 26.1953 40.1741 26.7428 40.4461 27.1474C40.7182 27.545 41.0879 27.7438 41.5552 27.7438Z" fill="white"/>
<path d="M51.171 23.7574L52.9184 28.947H54.6971L56.3921 23.7574H54.9168L54.2367 26.2057C54.167 26.4638 54.0972 26.7289 54.0275 27.0009C53.9647 27.266 53.9019 27.5345 53.8391 27.8066H53.7973C53.7275 27.5345 53.6578 27.266 53.588 27.0009C53.5252 26.7289 53.459 26.4638 53.3892 26.2057L52.7196 23.7574H51.171Z" fill="white"/>
<path d="M60.3137 28.8006C60.4951 28.9819 60.7183 29.0726 60.9834 29.0726C61.2484 29.0726 61.4682 28.9819 61.6425 28.8006C61.8239 28.6122 61.9146 28.382 61.9146 28.11C61.9146 27.831 61.8239 27.6008 61.6425 27.4194C61.4682 27.2311 61.2484 27.1369 60.9834 27.1369C60.7183 27.1369 60.4951 27.2311 60.3137 27.4194C60.1393 27.6008 60.0522 27.831 60.0522 28.11C60.0522 28.382 60.1393 28.6122 60.3137 28.8006Z" fill="white"/>
<path d="M64.6434 29.0726C64.3783 29.0726 64.1551 29.0307 63.9738 28.947C63.7924 28.8633 63.6459 28.7482 63.5343 28.6018C63.4297 28.4483 63.353 28.2669 63.3041 28.0577C63.2553 27.8414 63.2309 27.6008 63.2309 27.3357V21.6124H64.769V27.3985C64.769 27.5589 64.7969 27.6705 64.8527 27.7333C64.9154 27.7961 64.9782 27.8275 65.041 27.8275H65.1247C65.1526 27.8275 65.1875 27.8205 65.2293 27.8066L65.4177 28.947C65.334 28.9819 65.2258 29.0098 65.0933 29.0307C64.9678 29.0586 64.8178 29.0726 64.6434 29.0726Z" fill="white"/>
<path d="M66.2247 23.7574V28.947H67.7628V23.7574H66.2247Z" fill="white"/>
<path d="M66.3503 22.7738C66.5177 22.9203 66.7304 22.9936 66.9885 22.9936C67.2536 22.9936 67.4663 22.9203 67.6268 22.7738C67.7942 22.6204 67.8779 22.4251 67.8779 22.1879C67.8779 21.9507 67.7942 21.7589 67.6268 21.6124C67.4663 21.4659 67.2536 21.3927 66.9885 21.3927C66.7304 21.3927 66.5177 21.4659 66.3503 21.6124C66.1829 21.7589 66.0992 21.9507 66.0992 22.1879C66.0992 22.4251 66.1829 22.6204 66.3503 22.7738Z" fill="white"/>
<path d="M69.1164 28.947V23.7574H70.3719L70.4766 24.4165H70.5184C70.7416 24.2073 70.9858 24.0259 71.2508 23.8724C71.5159 23.712 71.8263 23.6318 72.182 23.6318C72.7471 23.6318 73.1551 23.8166 73.4062 24.1863C73.6643 24.556 73.7934 25.0687 73.7934 25.7244V28.947H72.2553V25.9232C72.2553 25.5465 72.203 25.2885 72.0983 25.1489C72.0007 25.0094 71.8403 24.9397 71.617 24.9397C71.4217 24.9397 71.2543 24.985 71.1148 25.0757C70.9753 25.1594 70.8218 25.2815 70.6544 25.4419V28.947H69.1164Z" fill="white"/>
<path d="M75.104 21.6124V28.947H76.6003V27.6705L77.2594 26.9277L78.4313 28.947H80.0949L78.1383 25.8918L79.9589 23.7574H78.2848L76.6421 25.8186H76.6003V21.6124H75.104Z" fill="white"/>
<path d="M38.2854 59.7865H37.415V56.7513H34.1047V59.7865H33.2387V53.22H34.1047V56.0432H37.415V53.22H38.2854V59.7865ZM42.7052 59.7865C42.6571 59.6903 42.618 59.5189 42.5879 59.2724C42.2001 59.6753 41.7371 59.8767 41.1989 59.8767C40.7178 59.8767 40.3224 59.7414 40.0127 59.4708C39.7061 59.1972 39.5527 58.8514 39.5527 58.4335C39.5527 57.9254 39.7452 57.5315 40.13 57.2519C40.5179 56.9693 41.0621 56.8279 41.7626 56.8279H42.5744V56.4446C42.5744 56.153 42.4872 55.9214 42.3128 55.7501C42.1385 55.5757 41.8814 55.4885 41.5416 55.4885C41.244 55.4885 40.9944 55.5637 40.793 55.714C40.5915 55.8643 40.4908 56.0462 40.4908 56.2597H39.6519C39.6519 56.0162 39.7376 55.7816 39.909 55.5561C40.0834 55.3276 40.3179 55.1472 40.6126 55.0149C40.9102 54.8826 41.2365 54.8165 41.5912 54.8165C42.1535 54.8165 42.594 54.9578 42.9127 55.2404C43.2314 55.5201 43.3967 55.9064 43.4088 56.3995V58.6455C43.4088 59.0935 43.4659 59.4498 43.5801 59.7143V59.7865H42.7052ZM41.3206 59.1506C41.5822 59.1506 41.8303 59.0829 42.0648 58.9476C42.2993 58.8123 42.4692 58.6365 42.5744 58.42V57.4188H41.9205C40.8982 57.4188 40.3871 57.7179 40.3871 58.3162C40.3871 58.5778 40.4743 58.7823 40.6487 58.9296C40.823 59.0769 41.047 59.1506 41.3206 59.1506ZM47.4001 56.2417C47.4001 56.0131 47.3129 55.8327 47.1385 55.7005C46.9641 55.5652 46.7251 55.4975 46.4214 55.4975C46.1268 55.4975 45.8802 55.5742 45.6818 55.7275C45.4864 55.8809 45.3886 56.0613 45.3886 56.2687H44.5588C44.5588 55.8448 44.7362 55.4975 45.091 55.2269C45.4458 54.9563 45.8893 54.821 46.4214 54.821C46.9927 54.821 47.4377 54.9443 47.7564 55.1908C48.0751 55.4344 48.2344 55.7831 48.2344 56.2371C48.2344 56.4566 48.1683 56.6581 48.036 56.8415C47.9037 57.0249 47.7158 57.1707 47.4723 57.2789C48.0405 57.4714 48.3246 57.8502 48.3246 58.4155C48.3246 58.8635 48.1518 59.2182 47.806 59.4798C47.4602 59.7414 46.9987 59.8722 46.4214 59.8722C45.8592 59.8722 45.3947 59.7354 45.0278 59.4618C44.664 59.1852 44.4821 58.8123 44.4821 58.3433H45.312C45.312 58.5808 45.4172 58.7853 45.6277 58.9567C45.8411 59.125 46.1057 59.2092 46.4214 59.2092C46.7401 59.2092 46.9972 59.1356 47.1926 58.9882C47.3881 58.8409 47.4858 58.65 47.4858 58.4155C47.4858 58.1419 47.4031 57.9464 47.2377 57.8292C47.0754 57.7089 46.8213 57.6488 46.4756 57.6488H45.6412V56.9452H46.5477C47.116 56.9302 47.4001 56.6957 47.4001 56.2417ZM52.4197 59.7865C52.3716 59.6903 52.3325 59.5189 52.3025 59.2724C51.9146 59.6753 51.4516 59.8767 50.9134 59.8767C50.4323 59.8767 50.0369 59.7414 49.7273 59.4708C49.4206 59.1972 49.2672 58.8514 49.2672 58.4335C49.2672 57.9254 49.4597 57.5315 49.8445 57.2519C50.2324 56.9693 50.7766 56.8279 51.4771 56.8279H52.2889V56.4446C52.2889 56.153 52.2017 55.9214 52.0273 55.7501C51.853 55.5757 51.5959 55.4885 51.2561 55.4885C50.9585 55.4885 50.7089 55.5637 50.5075 55.714C50.306 55.8643 50.2053 56.0462 50.2053 56.2597H49.3665C49.3665 56.0162 49.4521 55.7816 49.6235 55.5561C49.7979 55.3276 50.0324 55.1472 50.3271 55.0149C50.6247 54.8826 50.951 54.8165 51.3057 54.8165C51.868 54.8165 52.3085 54.9578 52.6272 55.2404C52.9459 55.5201 53.1112 55.9064 53.1233 56.3995V58.6455C53.1233 59.0935 53.1804 59.4498 53.2946 59.7143V59.7865H52.4197ZM51.0351 59.1506C51.2967 59.1506 51.5448 59.0829 51.7793 58.9476C52.0138 58.8123 52.1837 58.6365 52.2889 58.42V57.4188H51.635C50.6127 57.4188 50.1016 57.7179 50.1016 58.3162C50.1016 58.5778 50.1888 58.7823 50.3632 58.9296C50.5375 59.0769 50.7615 59.1506 51.0351 59.1506ZM54.3906 59.1055L54.6792 58.7492C55.0039 58.3283 55.1888 57.6969 55.2339 56.855L55.3106 54.9067H58.4541V59.1055H59.081V61.2207H58.2466V59.7865H54.8416V61.2207H54.0072L54.0117 59.1055H54.3906ZM55.3783 59.1055H57.6197V55.6779H56.1179L56.0683 56.8415C56.0172 57.8126 55.7872 58.5673 55.3783 59.1055Z" fill="black"/>
<rect x="16.49" y="46.1684" width="53.2872" height="20.6044" rx="3.19723" stroke="#D6D6D6" stroke-width="0.710496"/>
<path d="M23.3572 56.0782C23.3838 56.0373 23.4151 55.9985 23.451 55.9626L25.5775 53.8368C25.855 53.5593 26.305 53.5593 26.5826 53.8368C26.8601 54.1142 26.8601 54.5641 26.5826 54.8416L24.9529 56.4708L26.5824 58.0997C26.8599 58.3772 26.8599 58.8271 26.5824 59.1045C26.3048 59.382 25.8548 59.382 25.5773 59.1045L23.4464 56.9743C23.2028 56.7307 23.173 56.3543 23.3572 56.0782Z" fill="black"/>
</g>
<path d="M3.01562 23.5115C3.01562 12.3176 11.4639 3.24304 21.8853 3.24304H215.865C226.287 3.24304 234.735 12.3176 234.735 23.5115V473.472C234.735 484.666 226.287 493.741 215.865 493.741H21.8853C11.4639 493.741 3.01562 484.666 3.01562 473.472V23.5115Z" fill="url(#paint3_linear_0_19106)"/>
<path d="M234.735 23.5115C234.735 12.3176 226.287 3.24304 215.865 3.24304H21.8853C11.4639 3.24304 3.01562 12.3176 3.01562 23.5115V473.472C3.01562 484.666 11.4639 493.741 21.8853 493.741H215.865C226.287 493.741 234.735 484.666 234.735 473.472V23.5115Z" fill="url(#paint4_linear_0_19106)"/>
<defs>
<linearGradient id="paint0_linear_0_19106" x1="118.875" y1="-0.80056" x2="118.875" y2="18.4072" gradientUnits="userSpaceOnUse">
<stop/>
<stop offset="1" stop-color="#3A3A3A" stop-opacity="0"/>
</linearGradient>
<linearGradient id="paint1_linear_0_19106" x1="118.875" y1="497.8" x2="118.875" y2="478.592" gradientUnits="userSpaceOnUse">
<stop/>
<stop offset="1" stop-color="#3A3A3A" stop-opacity="0"/>
</linearGradient>
<linearGradient id="paint2_linear_0_19106" x1="-83.5238" y1="806.403" x2="193.367" y2="-110.144" gradientUnits="userSpaceOnUse">
<stop stop-color="#FC5980"/>
<stop offset="1" stop-color="#3300FF"/>
</linearGradient>
<linearGradient id="paint3_linear_0_19106" x1="-18.0498" y1="493.741" x2="263.602" y2="493.741" gradientUnits="userSpaceOnUse">
<stop stop-color="#FDFDFD"/>
<stop offset="0.116343" stop-color="white" stop-opacity="0"/>
</linearGradient>
<linearGradient id="paint4_linear_0_19106" x1="255.8" y1="493.741" x2="-25.8518" y2="493.741" gradientUnits="userSpaceOnUse">
<stop stop-color="#FDFDFD"/>
<stop offset="0.116343" stop-color="white" stop-opacity="0"/>
</linearGradient>
</defs>
</svg>
